<svg xmlns="http://www.w3.org/2000/svg" width="709.837" height="384.613"><path fill="#FFF" stroke="#1A140F" stroke-linecap="round" stroke-linejoin="round" stroke-miterlimit="30" d="M146.155 64.313c0 7.696-6.24 13.935-13.936 13.935H14.435C6.739 78.248.5 72.009.5 64.313V14.435C.5 6.739 6.739.5 14.435.5h117.784c7.696 0 13.936 6.239 13.936 13.935v49.878z"/><g fill="#1A140F"><path d="M55.412 43.708V32.07h1.54v11.638h-1.54zM59.485 43.708v-8.431h1.286v1.199c.619-.926 1.513-1.389 2.683-1.389.508 0 .975.091 1.401.273.426.183.745.422.957.719.211.296.36.648.444 1.056.053.265.08.728.08 1.389v5.184h-1.429V38.58c0-.582-.056-1.017-.167-1.306a1.376 1.376 0 00-.591-.691 1.881 1.881 0 00-.997-.258c-.608 0-1.134.193-1.576.58s-.663 1.119-.663 2.199v4.604h-1.428zM68.956 34.23l1.056-2.223h1.874l-1.747 2.223h-1.183zm.071 9.478v-8.431h1.429v8.431h-1.429zM78.545 40.621l1.405.182c-.154.969-.547 1.727-1.179 2.274-.632.548-1.409.822-2.33.822-1.154 0-2.081-.377-2.782-1.131-.701-.754-1.052-1.835-1.052-3.243 0-.91.151-1.707.452-2.39.302-.683.761-1.195 1.377-1.536s1.288-.512 2.013-.512c.916 0 1.664.231 2.247.694.582.463.955 1.121 1.119 1.973l-1.389.214c-.132-.566-.367-.992-.703-1.278-.336-.286-.742-.429-1.219-.429-.72 0-1.304.258-1.754.774-.45.516-.675 1.333-.675 2.449 0 1.132.217 1.956.651 2.469.434.513 1 .77 1.699.77.561 0 1.029-.172 1.405-.516.377-.343.615-.872.715-1.586zM81.181 33.714V32.07h1.429v1.644h-1.429zm0 9.994v-8.431h1.429v8.431h-1.429zM84.253 39.493c0-1.561.434-2.718 1.302-3.469.725-.625 1.609-.937 2.651-.937 1.159 0 2.106.379 2.842 1.139.735.759 1.104 1.809 1.104 3.147 0 1.085-.163 1.938-.488 2.56a3.458 3.458 0 01-1.421 1.449c-.622.344-1.3.516-2.036.516-1.18 0-2.134-.378-2.862-1.135s-1.092-1.846-1.092-3.27zm1.469 0c0 1.08.236 1.888.707 2.425a2.266 2.266 0 001.778.806c.709 0 1.299-.27 1.771-.81.471-.54.707-1.363.707-2.469 0-1.042-.237-1.833-.71-2.37-.474-.537-1.063-.806-1.767-.806-.714 0-1.307.267-1.778.802-.472.535-.708 1.343-.708 2.422z"/></g><path fill="none" stroke="#1A140F" stroke-miterlimit="10" d="M146.282 39.375h97.431"/><path stroke="#1A140F" stroke-miterlimit="10" d="M242.359 50.173l-.096-21.598 18.752 10.716z"/><path fill="#FFF" stroke="#1A140F" stroke-miterlimit="10" d="M397.863 78.248H252.208L275.979.5h145.654z"/><g fill="#1A140F"><path d="M314.208 33.954V22.315h1.58l6.113 9.138v-9.138h1.477v11.638h-1.58l-6.113-9.146v9.146h-1.477zM325.25 29.738c0-1.561.434-2.718 1.302-3.469.725-.625 1.609-.937 2.651-.937 1.159 0 2.106.379 2.842 1.139.735.759 1.104 1.809 1.104 3.147 0 1.085-.163 1.938-.488 2.56a3.458 3.458 0 01-1.421 1.449c-.622.344-1.3.516-2.036.516-1.18 0-2.134-.378-2.862-1.135s-1.092-1.846-1.092-3.27zm1.469 0c0 1.08.236 1.888.707 2.425a2.266 2.266 0 001.778.806c.709 0 1.299-.27 1.771-.81.471-.54.707-1.363.707-2.469 0-1.042-.237-1.833-.71-2.37-.474-.537-1.063-.806-1.767-.806-.714 0-1.307.267-1.778.802-.472.536-.708 1.343-.708 2.422zM337.944 32.675l.207 1.262a5.275 5.275 0 01-1.08.127c-.519 0-.921-.083-1.207-.246a1.382 1.382 0 01-.604-.647c-.116-.268-.175-.83-.175-1.687v-4.851h-1.048v-1.111h1.048v-2.088l1.421-.857v2.945h1.437v1.111h-1.437v4.93c0 .408.025.67.075.786s.132.209.246.278.276.103.488.103c.161.001.37-.018.629-.055zM344.843 32.914c-.529.45-1.039.768-1.528.953s-1.015.278-1.576.278c-.926 0-1.638-.226-2.136-.679s-.746-1.031-.746-1.734a2.346 2.346 0 011.02-1.953 3.456 3.456 0 011.028-.468c.28-.074.704-.146 1.27-.214 1.154-.138 2.003-.302 2.548-.492.005-.196.008-.32.008-.373 0-.582-.135-.992-.405-1.23-.365-.323-.908-.484-1.627-.484-.672 0-1.168.118-1.488.353-.32.236-.557.652-.71 1.25l-1.397-.19c.127-.598.336-1.081.627-1.449.291-.368.711-.651 1.262-.85.55-.198 1.188-.297 1.913-.297.72 0 1.305.084 1.754.254s.781.382.992.639c.212.256.36.581.445.972.047.244.071.683.071 1.318v1.905c0 1.329.03 2.168.091 2.521.061.352.181.689.361 1.012h-1.493a3.077 3.077 0 01-.284-1.042zm-.119-3.192c-.519.212-1.297.392-2.334.54-.587.084-1.003.18-1.247.286a1.246 1.246 0 00-.563.464c-.132.204-.198.43-.198.679 0 .381.144.699.433.953.288.254.71.381 1.266.381.55 0 1.04-.121 1.469-.361s.743-.57.944-.988c.154-.323.23-.799.23-1.429v-.525zM357.886 33.954h-1.429v-9.105c-.344.328-.795.656-1.354.984a9.646 9.646 0 01-1.504.738V25.19a8.628 8.628 0 002.096-1.366c.598-.534 1.021-1.053 1.27-1.556h.921v11.686zM314.208 53.463V41.825h1.58l6.113 9.138v-9.138h1.477v11.638h-1.58l-6.113-9.146v9.146h-1.477zM325.25 49.248c0-1.561.434-2.718 1.302-3.469.725-.625 1.609-.937 2.651-.937 1.159 0 2.106.379 2.842 1.139.735.759 1.104 1.809 1.104 3.147 0 1.085-.163 1.938-.488 2.56a3.458 3.458 0 01-1.421 1.449c-.622.344-1.3.516-2.036.516-1.18 0-2.134-.378-2.862-1.135s-1.092-1.846-1.092-3.27zm1.469 0c0 1.08.236 1.888.707 2.425a2.266 2.266 0 001.778.806c.709 0 1.299-.27 1.771-.81.471-.54.707-1.363.707-2.469 0-1.042-.237-1.833-.71-2.37-.474-.537-1.063-.806-1.767-.806-.714 0-1.307.267-1.778.802-.472.535-.708 1.342-.708 2.422zM337.944 52.185l.207 1.262a5.275 5.275 0 01-1.08.127c-.519 0-.921-.083-1.207-.246a1.382 1.382 0 01-.604-.647c-.116-.268-.175-.83-.175-1.687v-4.851h-1.048v-1.111h1.048v-2.088l1.421-.857v2.945h1.437v1.111h-1.437v4.93c0 .408.025.67.075.786s.132.209.246.278.276.103.488.103c.161.001.37-.018.629-.055zM344.843 52.423c-.529.45-1.039.768-1.528.953s-1.015.278-1.576.278c-.926 0-1.638-.226-2.136-.679s-.746-1.031-.746-1.734a2.346 2.346 0 011.02-1.953 3.456 3.456 0 011.028-.468c.28-.074.704-.146 1.27-.214 1.154-.138 2.003-.302 2.548-.492.005-.196.008-.32.008-.373 0-.582-.135-.992-.405-1.23-.365-.323-.908-.484-1.627-.484-.672 0-1.168.118-1.488.353-.32.236-.557.652-.71 1.25l-1.397-.19c.127-.598.336-1.081.627-1.449.291-.368.711-.651 1.262-.85.55-.198 1.188-.297 1.913-.297.72 0 1.305.084 1.754.254s.781.382.992.639c.212.256.36.581.445.972.047.244.071.683.071 1.318v1.905c0 1.329.03 2.168.091 2.521.061.352.181.689.361 1.012h-1.493a3.07 3.07 0 01-.284-1.042zm-.119-3.191c-.519.212-1.297.392-2.334.54-.587.084-1.003.18-1.247.286a1.246 1.246 0 00-.563.464c-.132.204-.198.43-.198.679 0 .381.144.699.433.953.288.254.71.381 1.266.381.55 0 1.04-.121 1.469-.361s.743-.57.944-.988c.154-.323.23-.799.23-1.429v-.525zM360.013 52.09v1.374h-7.692a2.512 2.512 0 01.167-.992c.196-.524.51-1.04.941-1.548.431-.508 1.055-1.095 1.87-1.762 1.265-1.037 2.12-1.859 2.564-2.465.445-.606.667-1.179.667-1.719 0-.566-.203-1.044-.607-1.433-.405-.389-.933-.583-1.583-.583-.688 0-1.239.207-1.651.619-.413.413-.622.984-.627 1.715l-1.469-.151c.101-1.095.479-1.93 1.135-2.504s1.537-.861 2.644-.861c1.117 0 2 .31 2.651.929s.977 1.387.977 2.302c0 .466-.095.923-.286 1.374-.19.45-.507.923-.948 1.421-.442.498-1.176 1.18-2.203 2.048-.857.72-1.408 1.208-1.651 1.465a4.76 4.76 0 00-.603.774h5.704z"/></g><path fill="#FFF" stroke="#1A140F" stroke-linecap="round" stroke-linejoin="round" stroke-miterlimit="30" d="M709.337 352.121c0 7.694-6.239 13.935-13.936 13.935H577.619c-7.696 0-13.935-6.24-13.935-13.935v-49.878c0-7.697 6.238-13.936 13.935-13.936h117.783c7.696 0 13.936 6.238 13.936 13.936v49.878z"/><g fill="#1A140F"><path d="M623.138 331.518V319.88h7.851v1.373h-6.311v3.604h5.462v1.373h-5.462v5.287h-1.54zM632.816 321.522v-1.643h1.429v1.643h-1.429zm0 9.996v-8.431h1.429v8.431h-1.429zM636.418 331.518v-8.431h1.278v1.183a2.97 2.97 0 012.557-1.373c.624 0 1.137.13 1.536.389.399.26.681.622.846 1.088.666-.984 1.534-1.477 2.604-1.477.836 0 1.479.231 1.929.694.45.463.675 1.177.675 2.14v5.787h-1.421v-5.311c0-.572-.046-.983-.139-1.234a1.195 1.195 0 00-.504-.607 1.578 1.578 0 00-.857-.23c-.593 0-1.085.197-1.477.592-.392.394-.588 1.025-.588 1.893v4.898h-1.429v-5.478c0-.635-.116-1.111-.35-1.429-.232-.318-.614-.477-1.143-.477-.402 0-.774.105-1.116.317a1.805 1.805 0 00-.742.929c-.153.408-.229.995-.229 1.763v4.374h-1.43z"/></g><path fill="none" stroke="#1A140F" stroke-miterlimit="10" d="M336.92 79.265v39.423"/><path stroke="#1A140F" stroke-miterlimit="10" d="M326.122 117.333l21.597-.097-10.716 18.753z"/><path fill="none" stroke="#1A140F" stroke-miterlimit="10" d="M163.709 139.658h346.423v69.876H163.709z"/><g fill="#1A140F"><path d="M266.845 182.354c-.789-.995-1.456-2.159-2-3.493a10.857 10.857 0 01-.818-4.144c0-1.26.204-2.466.611-3.62.476-1.339 1.212-2.672 2.207-4.001h1.024c-.641 1.101-1.064 1.887-1.27 2.358-.323.73-.577 1.492-.762 2.286-.228.99-.341 1.985-.341 2.985 0 2.546.791 5.089 2.374 7.629h-1.025zM269.695 178.932v-11.638h1.58l6.113 9.138v-9.138h1.477v11.638h-1.58l-6.113-9.146v9.146h-1.477zM280.738 174.717c0-1.561.434-2.718 1.302-3.469.725-.625 1.609-.937 2.651-.937 1.159 0 2.106.379 2.842 1.139.735.759 1.104 1.809 1.104 3.147 0 1.085-.163 1.938-.488 2.56a3.458 3.458 0 01-1.421 1.449c-.622.344-1.3.516-2.036.516-1.18 0-2.134-.378-2.862-1.135s-1.092-1.846-1.092-3.27zm1.468 0c0 1.08.236 1.888.707 2.425a2.266 2.266 0 001.778.806c.709 0 1.299-.27 1.771-.81.471-.54.707-1.363.707-2.469 0-1.042-.237-1.833-.71-2.37-.474-.537-1.063-.806-1.767-.806-.714 0-1.307.267-1.778.802-.472.535-.708 1.342-.708 2.422zM293.431 177.654l.207 1.262a5.275 5.275 0 01-1.08.127c-.519 0-.921-.083-1.207-.246a1.382 1.382 0 01-.604-.647c-.116-.268-.175-.83-.175-1.687v-4.851h-1.048v-1.111h1.048v-2.088l1.421-.857v2.945h1.437v1.111h-1.437v4.93c0 .408.025.67.075.786s.132.209.246.278.276.103.488.103c.161 0 .37-.018.629-.055zM300.33 177.892c-.529.45-1.039.768-1.528.953s-1.015.278-1.576.278c-.926 0-1.638-.226-2.136-.679s-.746-1.031-.746-1.734a2.346 2.346 0 011.02-1.953 3.456 3.456 0 011.028-.468c.28-.074.704-.146 1.27-.214 1.154-.138 2.003-.302 2.548-.492.005-.196.008-.32.008-.373 0-.582-.135-.992-.405-1.23-.365-.323-.908-.484-1.627-.484-.672 0-1.168.118-1.488.353-.32.236-.557.652-.71 1.25l-1.397-.19c.127-.598.336-1.081.627-1.449.291-.368.711-.651 1.262-.85.55-.198 1.188-.297 1.913-.297.72 0 1.305.084 1.754.254s.781.382.992.639c.212.256.36.581.445.972.047.244.071.683.071 1.318v1.905c0 1.329.03 2.168.091 2.521.061.352.181.689.361 1.012h-1.493a3.094 3.094 0 01-.284-1.042zm-.119-3.191c-.519.212-1.297.392-2.334.54-.587.084-1.003.18-1.247.286a1.246 1.246 0 00-.563.464c-.132.204-.198.43-.198.679 0 .381.144.699.433.953.288.254.71.381 1.266.381.55 0 1.04-.121 1.469-.361s.743-.57.944-.988c.154-.323.23-.799.23-1.429v-.525zM313.373 178.932h-1.429v-9.105c-.344.328-.795.656-1.354.984a9.646 9.646 0 01-1.504.738v-1.381a8.628 8.628 0 002.096-1.366c.598-.534 1.021-1.053 1.27-1.556h.921v11.686zM324.947 177.051v-3.191h-3.167v-1.333h3.167v-3.167h1.35v3.167h3.167v1.333h-3.167v3.191h-1.35zM336.125 178.932v-11.638h1.58l6.113 9.138v-9.138h1.477v11.638h-1.58l-6.113-9.146v9.146h-1.477zM347.168 174.717c0-1.561.434-2.718 1.302-3.469.725-.625 1.609-.937 2.651-.937 1.159 0 2.106.379 2.842 1.139.735.759 1.104 1.809 1.104 3.147 0 1.085-.163 1.938-.488 2.56a3.458 3.458 0 01-1.421 1.449c-.622.344-1.3.516-2.036.516-1.18 0-2.134-.378-2.862-1.135s-1.092-1.846-1.092-3.27zm1.468 0c0 1.08.236 1.888.707 2.425a2.266 2.266 0 001.778.806c.709 0 1.299-.27 1.771-.81.471-.54.707-1.363.707-2.469 0-1.042-.237-1.833-.71-2.37-.474-.537-1.063-.806-1.767-.806-.714 0-1.307.267-1.778.802-.472.535-.708 1.342-.708 2.422zM359.861 177.654l.207 1.262a5.275 5.275 0 01-1.08.127c-.519 0-.921-.083-1.207-.246a1.382 1.382 0 01-.604-.647c-.116-.268-.175-.83-.175-1.687v-4.851h-1.048v-1.111h1.048v-2.088l1.421-.857v2.945h1.437v1.111h-1.437v4.93c0 .408.025.67.075.786s.132.209.246.278.276.103.488.103c.161 0 .37-.018.629-.055zM366.76 177.892c-.529.45-1.039.768-1.528.953s-1.015.278-1.576.278c-.926 0-1.638-.226-2.136-.679s-.746-1.031-.746-1.734a2.346 2.346 0 011.02-1.953 3.456 3.456 0 011.028-.468c.28-.074.704-.146 1.27-.214 1.154-.138 2.003-.302 2.548-.492.005-.196.008-.32.008-.373 0-.582-.135-.992-.405-1.23-.365-.323-.908-.484-1.627-.484-.672 0-1.168.118-1.488.353-.32.236-.557.652-.71 1.25l-1.397-.19c.127-.598.336-1.081.627-1.449.291-.368.711-.651 1.262-.85.55-.198 1.188-.297 1.913-.297.72 0 1.305.084 1.754.254s.781.382.992.639c.212.256.36.581.445.972.047.244.071.683.071 1.318v1.905c0 1.329.03 2.168.091 2.521.061.352.181.689.361 1.012h-1.493a3.094 3.094 0 01-.284-1.042zm-.119-3.191c-.519.212-1.297.392-2.334.54-.587.084-1.003.18-1.247.286a1.246 1.246 0 00-.563.464c-.132.204-.198.43-.198.679 0 .381.144.699.433.953.288.254.71.381 1.266.381.55 0 1.04-.121 1.469-.361s.743-.57.944-.988c.154-.323.23-.799.23-1.429v-.525zM381.931 177.559v1.374h-7.692a2.512 2.512 0 01.167-.992c.196-.524.51-1.04.941-1.548.431-.508 1.055-1.095 1.87-1.762 1.265-1.037 2.12-1.859 2.564-2.465.445-.606.667-1.179.667-1.719 0-.566-.203-1.044-.607-1.433-.405-.389-.933-.583-1.583-.583-.688 0-1.239.207-1.651.619-.413.413-.622.984-.627 1.715l-1.469-.151c.101-1.095.479-1.93 1.135-2.504s1.537-.861 2.644-.861c1.117 0 2 .31 2.651.929s.977 1.387.977 2.302c0 .466-.095.923-.286 1.374-.19.45-.507.923-.948 1.421-.442.498-1.176 1.18-2.203 2.048-.857.72-1.408 1.208-1.651 1.465a4.76 4.76 0 00-.603.774h5.704zM384.797 182.354h-1.024c1.583-2.54 2.374-5.083 2.374-7.629 0-.995-.114-1.982-.341-2.961a12.457 12.457 0 00-.754-2.287c-.207-.476-.633-1.27-1.278-2.381h1.024c.995 1.329 1.731 2.662 2.207 4.001.408 1.154.611 2.36.611 3.62 0 1.429-.274 2.81-.822 4.144-.548 1.333-1.214 2.497-1.997 3.493zM392.72 179.13l3.374-12.035h1.143l-3.366 12.035h-1.151zM409.938 177.559v1.374h-7.692a2.512 2.512 0 01.167-.992c.196-.524.51-1.04.941-1.548.431-.508 1.055-1.095 1.87-1.762 1.265-1.037 2.12-1.859 2.564-2.465.445-.606.667-1.179.667-1.719 0-.566-.203-1.044-.607-1.433-.405-.389-.933-.583-1.583-.583-.688 0-1.239.207-1.651.619-.413.413-.622.984-.627 1.715l-1.469-.151c.101-1.095.479-1.93 1.135-2.504s1.537-.861 2.644-.861c1.117 0 2 .31 2.651.929s.977 1.387.977 2.302c0 .466-.095.923-.286 1.374-.19.45-.507.923-.948 1.421-.442.498-1.176 1.18-2.203 2.048-.857.72-1.408 1.208-1.651 1.465a4.76 4.76 0 00-.603.774h5.704z"/></g><path fill="none" stroke="#1A140F" stroke-miterlimit="10" d="M336.92 210.492v39.423"/><path stroke="#1A140F" stroke-miterlimit="10" d="M326.122 248.561l21.597-.097-10.716 18.752z"/><path clip-rule="evenodd" fill="none" stroke="#000" stroke-miterlimit="10" d="M444.779 318.651c.094 14.008.01 28.018.101 42.024.012 1.734-.556 2.304-3.087 2.286-20.629-.139-41.043 1.403-60.991 5.195-11.923 2.268-23.669 5.08-35.326 7.997-17.815 4.459-35.877 8.111-54.858 7.954-10.538-.088-21.114-.924-31.568-1.965-8.602-.858-17.041-2.551-25.575-3.796-1.872-.271-2.419-.9-2.417-2.225.039-34.891.043-69.783-.003-104.675-.002-1.565.601-2.091 2.863-2.09 69.304.037 138.607.039 207.912-.016 2.586-.001 3.057.645 3.046 2.329-.08 13.751-.004 27.503-.092 41.256a418.356 418.356 0 00-.005 5.726z"/><g fill="#1A140F"><path d="M317.032 331.064v-11.638h2.318l2.754 8.24c.254.768.439 1.342.556 1.723.132-.424.339-1.045.62-1.866l2.786-8.097h2.072v11.638h-1.485v-9.74l-3.382 9.74h-1.389l-3.366-9.907v9.907h-1.484zM336.212 328.35l1.477.183c-.233.862-.665 1.532-1.294 2.008-.63.477-1.435.715-2.414.715-1.233 0-2.211-.38-2.933-1.139-.723-.76-1.084-1.825-1.084-3.195 0-1.419.365-2.52 1.096-3.303s1.678-1.175 2.842-1.175c1.127 0 2.048.384 2.763 1.15.715.768 1.072 1.848 1.072 3.239 0 .085-.002.212-.008.381h-6.288c.053.927.315 1.636.786 2.128s1.059.738 1.762.738c.524 0 .971-.138 1.342-.413.371-.274.664-.714.881-1.317zm-4.691-2.311h4.708c-.063-.709-.244-1.241-.54-1.596-.456-.55-1.045-.825-1.771-.825-.656 0-1.208.22-1.655.659-.448.439-.695 1.027-.742 1.762zm1.54-4.453l1.056-2.223h1.874l-1.746 2.223h-1.184zM344.953 331.064v-1.063c-.535.836-1.321 1.254-2.358 1.254-.672 0-1.29-.186-1.854-.556-.564-.37-1-.888-1.31-1.552s-.464-1.428-.464-2.29c0-.842.14-1.605.421-2.291.28-.685.701-1.21 1.262-1.575s1.188-.548 1.881-.548a2.813 2.813 0 012.326 1.159v-4.176h1.421v11.638h-1.325zm-4.517-4.207c0 1.079.228 1.887.683 2.421s.992.802 1.611.802c.625 0 1.155-.255 1.592-.766s.655-1.29.655-2.339c0-1.153-.223-2-.667-2.54-.445-.54-.992-.81-1.644-.81-.635 0-1.166.26-1.591.778-.427.52-.639 1.337-.639 2.454zM348.533 321.069v-1.643h1.429v1.643h-1.429zm0 9.995v-8.431h1.429v8.431h-1.429zM357.638 330.024c-.529.45-1.039.768-1.528.953a4.423 4.423 0 01-1.576.277c-.926 0-1.638-.227-2.136-.679s-.746-1.03-.746-1.734c0-.413.094-.79.282-1.132.188-.341.434-.615.738-.821s.647-.362 1.028-.469c.28-.073.704-.146 1.27-.214 1.154-.138 2.003-.302 2.548-.492.005-.195.008-.32.008-.373 0-.582-.135-.992-.405-1.23-.365-.323-.908-.484-1.627-.484-.672 0-1.168.118-1.488.354-.32.235-.557.652-.71 1.25l-1.397-.19c.127-.598.336-1.081.627-1.449.291-.367.711-.65 1.262-.849.55-.199 1.188-.298 1.913-.298.72 0 1.305.085 1.754.254s.781.382.992.639c.212.257.36.581.445.973.047.243.071.683.071 1.318v1.905c0 1.328.03 2.168.091 2.521.061.352.181.688.361 1.012h-1.493a3.08 3.08 0 01-.284-1.042zm-.119-3.191c-.519.212-1.297.392-2.334.54-.587.085-1.003.18-1.247.286a1.24 1.24 0 00-.563.464 1.225 1.225 0 00-.198.679c0 .381.144.699.433.953.288.254.71.381 1.266.381.55 0 1.04-.12 1.469-.361s.743-.57.944-.988c.154-.323.23-.799.23-1.429v-.525z"/></g><path fill="none" stroke="#1A140F" stroke-miterlimit="10" d="M445.898 326.728h97.433"/><path stroke="#1A140F" stroke-miterlimit="10" d="M541.976 337.526l-.098-21.597 18.753 10.716z"/></svg>