<svg version="1.1" id="Camada_1" xmlns="http://www.w3.org/2000/svg" x="0" y="0" viewBox="0 0 265.4 265.4" xml:space="preserve"><style>.st1{fill:#d0cce5}.st2{fill:#666398}.st3{fill:#fefefe}.st4{fill:#666399}.st5{fill:#676499}.st6{fill:#67649a}.st7{fill:#68659a}.st8{fill:#69669b}.st10{fill:#7874a6}.st13{fill:#6a679c}</style><path fill="#fff" d="M0 0h265.4v265.4H0z"/><g id="z9lo26.tif"><path class="st1" d="M132.4 238.4c-57.8.4-105.9-47.1-105.4-106.3.4-58 46.8-105.8 107.5-105.1 57 .7 104.3 47.6 103.9 106.9-.3 56.9-47.7 105.4-106 104.5z"/><path class="st2" d="M207.6 164.9c-.8.9-.5 1.7.5 1.7 3.7-.2 7.1 1 11 2.5-1.3-3.1-2.4-5.7-2.2-8.6.1-1.2 0-2.2-1.6-2.2s-2.1.7-2.1 2.1c0 .4-.1.9-.1 1.6-3.5-2.9-6.2-6.2-9.1-9.3-1.3-1.4.8-1.9 1.6-2.4 2-1.1 1.5-1.9.1-3.1-1.4-1.2-2.1-.8-2.9.6-1.4 2.5-2 2.5-3.4 0-.7-1.2-1-2.6-3-1.9-1.1.4-.5-.9-.8-1.3-1.3-2.4-1.1-4.7-.2-7.2 1.3-1 2.8-.8 4.2-.8 10.1-.1 20.2.8 30.4.6.5 0 .9.1 1.9-.2-2.9-.6-5.4-1-7.8-.9-8.3.2-16.6-.5-24.9-.6-1.3 0-2.6 0-3.6-1-1.2-2.3-1-4.9-1.3-7.4-.8-6.7-2.4-13.2-4.1-19.8-.2-1.9 1.2-2.5 2.5-3.2 8.9-4.9 18.2-9.2 27.2-14.2.8-.5 2-.6 2.3-1.8-1-.6-1.8.1-2.5.5-9.2 4.7-18.3 9.4-27.5 14.1-1.1.6-2.1 1.1-3.4.9-7.1 1.4-13.9 3.7-20.4 7-1.1.5-2 1.3-2.8 2.1l-11.4 11.4c-2.1 2.1-2 2.5.3 4.1 18.9 12.5 19.6 39.2 1.2 52.4-4.3 3.1-9.1 5-14.4 5.5-2 .2-4 .5-5.4 2.2-1.1 1.2-2.6 1.2-4.1 1-1.5-.2-3-.8-4.3-1.6-6.9-4.6-13.1-10-17.3-17.2-8.2-14.1-3.9-32.5 9.7-41.7 2.8-1.9 2.8-1.9.5-4.2-3.3-3.3-6.8-6.4-9.8-9.9-4.6-5.5-10.5-7.6-17.2-8.4-5.2-.6-10.3-1.1-15.5-1.7-.7-.1-1.5-.1-2-.7-8-.7-15.9-1.5-23.9-2.3-2.2-.2-4.3-.7-6.5-1-1.2-.2-1.6-.5-1.1-1.8 1.7-4.4 3.5-8.8 5.7-13 .7-1.3 1.3-1.4 2.5-.6 2.6 1.7 5.3 3.2 7.8 5 2.1 1.4 4.2 2.3 6.8 2.5 5.1.3 10.2.8 15.2 1.2 2.5-1.3 5-.1 7.5 0 4 .2 8 .3 12 1.1 5.6 1.2 10.3 4 14.4 8.1l16.1 16.1c3.1 3 7.1 3 10.1 0 3.9-3.8 7.6-7.9 11.3-11.9 5.2-5.7 11.6-9.3 18.6-12.2 3-1.3 5.8-3.1 9.2-3.1 2.4-.1 2.6-1 1.4-3-2.8-4.7-5.8-9.3-9.7-13.2-1.3-1.3-.8-2.1-.1-3.3 4.6-7.3 9.2-14.7 13.8-22 .5-.8 2-1.8.1-2.9-1.8-1-2 .7-2.5 1.6-4.5 7.1-9 14.2-13.4 21.3-.8 1.4-1.4 1.9-2.8.5-1.1-1.2-2.4-2.2-3.8-3.1-4-2.4-4.4-6.2-4.5-10.2 0-1.5.9-1.8 2.1-1.9.6 0 1.1-.1 1.2-.8.1-.7-.4-.9-1-1-1.5-.1-1.1-1-.8-1.9.7-2.2 2.2-3.8 3.8-5.3.8-.7 1.6-1.4 1.5-2.9-3.8 1.8-6.2 4.9-8.3 8.1-1 1.6-1.8 2.4-3.9 1.9-2.2-.5-2.2-1.9-2.3-3.6-.2-4.3-1.2-8.4-3.8-12.2-1 1.5-.2 2.6.1 3.6 1 2.6 1.1 5.3.8 8.1-.1.7-.1 1.7-1.2 1.4-3.2-.9-2 1.4-1.6 2.4.4 1 1.3 1.7.2 2.7-1.2 1.1-2.1 2.8-4.2 2.5-6.4-.8-6.4-.8-6.3-7.4.1-5.5.4-10.9.4-16.4 0-1.9.8-2.3 2.5-2.2 12.4.4 24.5 2.4 35.9 7.3 34 14.6 54.9 40.2 61.1 76.7 5 29.6-2.6 56.5-21.9 79.7-16.4 19.8-37.7 31.2-63.1 35-6 .9-12 .8-18 .7-1.7 0-2-.7-1.9-2.1.1-4.7.1-9.3.2-14 0-.8-.4-2.2.9-2.2 1.5-.1 1.1 1.3 1.2 2.3.2.7.8 1.1 1.1 1.7.3.5.5 1 .5 1.5.2 1.7 1.2 2.3 2.9 1.9 1.1-.3 2.2-.4 3.2-.6 2.1-.5 3.9-.9 5.6 1.3 1.3 1.6 3.7.9 4.3-1.2.5-1.9 1.8-2.6 3.5-3 1.7-.4 3.4-.7 5.1-1.1 1-.2 2.1-.4 2-1.8-.1-1.2-.6-1.9-1.9-1.9-.4 0-.7-.1-1-.3-.2-.1-.2-.3-.2-.4 0-.2 0-.3.1-.3 3-.7 4.2-4 7.3-4.7 1.8-.4 2.5-.5 3.3 1.2 2.1 4.4 4.4 8.6 6.6 12.9.5.9.8 1.9 2.2 1.2 1.4-.7.7-1.5.3-2.4-2.3-4.5-4.5-9-6.9-13.4-.7-1.3-.6-2 .7-2.8 2-1.3 4.2-2.2 5.6-4.2.7-1.1 1.4-.7 2.2 0 1.6 1.4 3.2 2.7 4.9 4 3.7 2.8 7.5 1.7 9-2.8.3-.9.6-1.4 1.5-1.7.7-.3 1.6-.8 1.9-1.5 1.1-2.5 2.5-4.3 5.3-5.1.8-.2 1.1-1.2.8-2.1-.4-1-1.3-1.5-2.2-1.2-5.8 2.3-7.8-3.3-11.4-5.5-.2-.1-.4-.7-.3-1 .9-3 1.7-6 2.9-8.8.5-1.3 1.6.1 2.2.5 6.7 4.1 13.3 8.4 19.9 12.5.8.5 1.7 2.1 2.9.2 1.1-1.8-.6-2-1.5-2.5-6.9-4.4-13.9-8.8-20.9-13.1-1.5-.9-1.9-1.8-1.5-3.5.9-4 1.3-8.1 1.6-12.5 2.3 2.4 3.9 1.6 5.3-.7.5-.9 1-1.1 1.9-.3 3.4 3.2 7 6.1 10.1 9.5-1.7.9-3.4 0-5 .7z"/><path class="st3" d="M190.6 106.9c2.9 8.9 4.7 18 5.1 27.4-.2 1.1-2.1 2.3.1 3.3 0 2.4-.1 4.7-.1 7.1-1.6 5.2-2.8 10.6-5.3 15.6-.7 1.5-1.6 2.8-2.4 4.3-.6 1.3-1.2 2.3-2.7 1-.6-.5-1.2-.4-1.6.4-.3.6-1 1.5-.1 1.9 1.8.9 1.2 1.8.4 2.9-5.4 7.2-12.1 13-19.9 17.6-.8.5-1.6.9-2.2-.4-.4-.9-.9-1.3-1.9-.8-.9.4-1.3 1-.7 1.9.8 1.3.1 1.7-1 2.1-7.8 3.4-15.9 4.9-24.3 5.4-1.2.1-1.3-.6-1.3-1.5s-.2-1.6-1.3-1.6c-1 0-1.9 0-1.9 1.3 0 1.8-1.4 1.4-2.4 1.4-7.1-.4-13.8-2.3-20.2-5.2-1.2-.6-2.4-1.2-3.7-1.8-1.2-.6-2.7-1-1.4-2.9.5-.8-.3-1.3-.9-1.7-.7-.5-1.3 0-1.6.6-.9 1.8-1.8.8-2.8.2-7.2-5-13-11.3-17.8-18.7-.7-1.1-1.4-2.3.4-3.1.8-.3.9-.8.4-1.5-.5-.5-.7-1.7-1.8-1-1.7 1.1-2.1-.1-2.7-1.3-3.4-7.1-5.1-14.8-5.8-22.6-.1-1.1-1.4-3.7 1.9-3.1.7.1.7-.7.7-1.2 0-.7.1-1.7-.9-1.7-2.5 0-1.9-1.8-1.8-3.1.9-8.1 2.7-15.9 6.4-23.3.1-.2.1-.4.1-.5 8.2.2 16.4 1.1 24.4 2.9 3.2.7 5.9 2.4 8.2 4.7 5.1 5.2 10.3 10.4 15.5 15.7-5.8 3.1-10.4 7.4-13.5 13.2-6.6 12.5-4.4 26.1 6.1 37.2 3.6 3.8 7.5 7.5 12.2 10 3.5 1.9 4.9 1.7 7.9-1 1-.9 2.2-.8 3.3-.9 12.5-.6 24.6-10 27.8-23.7 3.1-13.6-2.6-26.5-14.9-33.8-1.5-.9-1.7-1.5-.5-2.8l14.3-14.3c.4-.4 1-.8 1.6-1.1 6.7-3.2 13.6-5.7 20.9-7 .1.3.1.6-.1.8-1.1 1.3-1.7 2.4.9 2.3.5-.4.7 0 .9.4z"/><path class="st3" d="M181.4 92.1c-2.4 1-4.7 2.1-7.1 2.9-11 3.8-19.1 11.4-26.7 19.8-1.5 1.7-3.1 3.3-4.8 4.9-3.9 3.9-7.4 3.9-11.3 0-5.4-5.4-10.8-10.8-16.3-16.2-5.3-5.2-11.6-8-19.1-8.2-4.6-.1-9.3-.8-13.9-1.2 4.9-6.6 10.9-11.9 17.9-16.1 1-.6 1.5-.6 2.1.4.4.8 1.1 1.2 2 .6 1-.6.9-1.3.4-2.1-.6-1-.1-1.4.8-1.8 6.1-2.9 12.6-4.7 19.3-5.6 2.1-.2 4.2-.4 6.2-.5 1.2-.1 2.2.1 2.1 1.7-.1 1 .3 1.5 1.4 1.5 1.1 0 1.4-.7 1.3-1.6 0-1.1.4-1.7 1.6-1.5 9.5 1 18.5 3.6 26.9 8.3 1.2.7 1.8 1.2.8 2.5-.6.7-.6 1.2.3 1.7.8.4 1.6.7 2.1-.3.7-1.5 1.5-.9 2.3-.3 4.5 3.2 8.7 6.5 11.7 11.1z"/><path class="st2" d="M65.4 90.3c-.6-.3-1.1-.6-1.5-.9-3.4-2.1-6.8-4.3-10.2-6.4-1.2-.7-1.4-1.2-.6-2.5 8.2-13.2 18.8-23.8 31.8-32.2 1.3-.8 1.8-.6 2.4.7 2.7 5.4 5.5 10.9 8.4 16.2 1 1.8-.1 2.1-1.3 2.7-9.5 4.6-18 10.6-25.3 18.3-.9.9-1.7 1.9-2.5 2.9-.4.5-.8.9-1.2 1.2zM110.7 51.5c-1.2-2.3-2.2-4.6-4-6.5-3.3-3.5-8-2.7-10.1 1.6-1.5 2.9-.8 6.6 1.6 8.8.6-1.3.8-2.8 1.7-3.9 1.8-2.3 4-2.6 6-.6 2.9 2.9 4.5 6.6 6.3 10.4-4.1 1.3-8.2 2.5-12 4.2-1.1.5-1.5 0-1.9-.9-2.9-5.7-5.8-11.4-8.8-17-.6-1.1-.5-1.7.7-2.3 10.8-5.8 22.2-9.6 34.4-11.2 2.5-.3 5.1-.4 7.6-.6 1.4-.1 1.9.4 1.9 1.9l-.6 21.3c0 1.1-.5 1.5-1.7 1.6-5.1.4-10.2.8-15.1 2.1-1.2.3-1.8.1-1.9-1.3-.3-3.1-.5-6.2.1-9.3.9-4.5 3.8-5.6 7.5-2.8.6.4 1.1.9 1.7 1.4 1.5-3.5-.8-7.9-4.5-9.1-3.9-1.3-6.9.5-7.9 4.4-.6 2.2-.5 4.5-.5 6.8.3.4.6 1.1-.5 1zM95.9 218.6c1.4-.7 1.8.3 2.3 1.6.7 1.8 2.2 3 4.2 2.9 1.7-.1 3.1.4 4.5 1.4.6.5 1.6.8 2.3.7 1.9-.4 3 .3 4.1 1.8.8 1 1.9 1.6 3.1.6 1.2-1.1.7-2.2-.3-3-1.7-1.5-1.7-3.2-1-5.2.8-2.2.8-5.1 2.3-6.6 1.6-1.6 4.4.2 6.7.5 5 .5 5 .6 4.8 5.7-.1 3.6-.2 7.1-.1 10.7.1 2-.7 2.5-2.6 2.3-9.5-1.1-18.6-3.6-27.3-7.3-4.9-2.1-9.5-4.6-14-7.4-1.5-.9-1.6-1.6-.6-3 2.3-3.4 4.4-6.9 6.6-10.4.6-.9 1-1.7 2.3-.9 1.1.7 2.8.9 2.1 2.9-.9 2.8-1.8 5.5-2.8 8.3-1.3 3-.1 4.6 3.4 4.4z"/><path class="st4" d="M68.4 204c2.9-1.6 4-4.1 4.4-6.9.2-1.7 1-1.6 2.3-2.1 6-2 8.8 3.5 13.1 5.2 1.1.4.6 1.1.2 1.8l-6.9 11.1c-.5.9-1 1.1-1.9.4-3.8-2.8-7.7-5.7-11.2-9.5z"/><path class="st1" d="M158.9 212.7c1.2.5 3-1.5 3.7 1.2.5 2.2.4 3.6-2.3 3.7-1.5.1-3 .7-4.5.9-1.9.3-3.5.6-3.5 3.1 0 1.2-1.2 2-2.5 2-1.4.1-2.9 0-3.5-1.4-.6-1.6-1.5-1.4-2.8-1.1-1.4.4-2.9.5-4.3.9-3.4 1-3.9 1-4.4-2.8 0-.4-.2-.7-.3-1 .6-.9 1.7-.7 2.6-1.1.9-.1 1.9-.2 2.8-.6 1.3-.1 2.6-.7 3.9-.8.8-.3 1.5-.4 2.3-.4.3-.2.6-.4.8-.5 1.2.2 2.2-.4 3.4-.5.9 0 1.8-.5 2.7-.5 1.3-.2 2.5-.6 3.8-.8.5-.5 1.3-.4 2.1-.3z"/><path class="st4" d="M62.9 179.5c-.6.8-.4 1.6.2 2.4.5.6.4 1.4 0 2-1.5 2.4-3 4.8-4.5 7.1-.5.8-1 .6-1.5 0-2.6-3.6-5-7.4-7.1-11.3-.5-1-.1-1.5.8-1.9 2.4-1.2 4.9-2.5 7.3-3.7.4-.2.9-.4 1.3-.3.8.2 3.6 4.9 3.5 5.7zM66.6 183.3c2.4 1.5 3.2 3.3 2.9 5.9-.2 2.4.8 4.8.7 7.3-.1 2.9-2 4.3-4.7 3.4-4.2-1.4-5.8-5.1-3.7-8.9 1.5-2.7 3.2-5.1 4.8-7.7zM39.3 146.7c3.4 2.4 6.6 3.7 10.3 1.9.6 2.3 1.1 4.5 1.6 6.7.2.9.1 1.3-1 1.2-5-.2-5.5.1-7.6 4.6-1.8-4.6-2.5-9.2-3.3-14.4zM44 130.4h-1.6c-4.2-.1-4.5-.5-3.8-4.7.2-1.3.8-1.9 2.1-2.1l8.4-1.2c1.3-.2 1.6.4 1.5 1.6-.2 1.7-.5 3.4-.7 5.1-.1 1.2-.9 1.4-1.9 1.4-1.5-.1-2.7 0-4-.1z"/><path class="st5" d="M47.2 112v-.5c-.1-4.2 1.5-5.9 5.6-6.2 1-.1 1.3.4 1.3 1.2.1 1.6.2 3.2-.4 4.8-.8 2.1-1.5 4.3-2 6.5-.4 1.6-1.1 2.2-2.8 2.2-1.9-.1-1.3-1.4-1.4-2.3-.2-1.9-.4-3.8-.5-5.7h.2z"/><path class="st4" d="M44.1 166.2c1.3-.5 2.3.3 3.4.6 1.9.4 3.9 1.3 5.8.1 3.2-1.9 2.7 1.4 3.7 2.5 1.3 1.5.2 2.2-1.1 2.8-1.3.6-2.6 1.3-3.9 2-3.8 1.9-3.8 1.9-5.5-1.9-.4-1-.9-2-1.3-3s-.7-2-1.1-3.1z"/><path class="st5" d="M39 140.7c-.3-.4-.4-.5-.4-.5-.8-7.1-.8-7.1 6.2-7 .5 0 1.1-.1 1.6 0 .9.2 2.3-.5 2.7.6.4 1.5.5 3.3-.1 4.8-.4 1.1-1.4.3-2.1.1-3-.8-5.8-.9-7.9 2z"/><path class="st6" d="M49.5 104.4c-5 1.4-5 1.4-5.3 6.3-.2 2.4-.7 4.9-1.1 7.3-.1.6-.3 1.2-.7 1.8-.7 1.2-2 1.1-2.9.9-1-.2-.3-1.3-.2-1.9.4-4.5 1.6-8.9 2.7-13.4.4-1.6 1.2-2 2.8-1.8 1.5.3 3 .5 4.7.8z"/><path class="st7" d="M106.9 210.1c-.8 2.8-1.6 5.5-2.4 8.1-.3.8-.8 1.6-1.8 1.3-1-.3-1.5-1.1-1.2-2.1.8-2.6 1.5-5.2 2.3-7.8.2-.8.6-1.6 1.7-1.1 1 .2 1.7.7 1.4 1.6z"/><path class="st6" d="M113.3 212.6c-.7 2.3-1.5 5-2.4 7.8-.3.8-.9 1.1-1.7.9-1-.2-1.3-1-1.1-1.9.7-2.7 1.6-5.4 2.4-8.1.3-1 1-1.1 1.9-.9.7.4 1.2.8.9 2.2z"/><path class="st7" d="M100.7 207.3c-.8 2.7-1.7 5.4-2.6 8-.3.8-1.2 1-1.8.7-.7-.3-1-1.1-.8-1.9.8-2.4 1.3-4.9 1.6-7.4.1-.8.6-1.5 1.4-1.2.9.4 2.1.4 2.2 1.8zM187.7 187.6c.3.2.6.4.8.6 1.8 1.5 3.6 3 5.5 4.5.8.7 1.4 1.5.5 2.5-.9 1-1.8.7-2.6 0-1.7-1.5-3.5-2.9-5.2-4.4-.5-.4-.9-.9-.4-1.6.5-.4.6-1.3 1.4-1.6zM181.8 196.4c.3-1.3.9-1.9 1.5-2.4.6-.6 1 0 1.4.4 1.6 1.3 3.2 2.7 4.7 4.1.9.7 1.2 1.7.3 2.6-.8.8-1.6.5-2.4-.2-1.5-1.3-3-2.6-4.6-3.8-.3-.4-.7-.6-.9-.7zM156 58.1c-1.3 1 1 3.9-1.6 4.1-1.2.1-3.8-.3-4-2.2-.2-2.5 1.7-4.1 3.8-4 1.3.1 2.3.1 1.8 2.1zM49.8 164.8c-1.7-.4-2.7-1.5-2.6-3.2 0-1.6 1-2.7 2.6-2.5 1.7.1 2.5 1.5 2.6 3 0 1.5-1 2.4-2.6 2.7z"/><path class="st8" d="M44.7 140.9c1.8.4 2.8 1.5 2.9 3.2 0 1.5-1 2.7-2.5 2.6-1.7 0-2.5-1.5-2.7-3-.2-1.5.9-2.4 2.3-2.8z"/><path d="M195.7 149.2c1.7.8 3.4 1.6 3.3 3.1 0 1.2-1.8 1.7-3.3 1.9-.4-1.6-.1-3.1 0-5z" fill="#6a679b"/><path class="st10" d="M156.8 213.2c-1.2.7-2.6.6-4 .9-.3-.3-.8 0-1.1-.5 1.4-.7 2.9-.8 4.4-1 .3.2.6.3.7.6z"/><path d="M143.6 216c-1.2.7-2.6.9-3.9 1-.2-.2-.6-.2-.7-.6 1.3-.6 2.6-.9 4-.9.2.1.6.1.6.5z" fill="#7f7baa"/><path d="M207.6 164.9c1.5-1 3.3-.3 4.9-.5-1.5 1.1-3.3.3-4.9.5z" fill="#a09cc3"/><path class="st13" d="M136.9 217.5c-.9.2-1.8.5-2.7.7-.2-.6-.4-1.3-.6-1.9.7 1 1.7.7 2.6.6.8-.2.8.1.7.6zM156.8 213.2c-.2-.2-.4-.3-.6-.5.8-.5 1.8-.7 2.7-.5v.5c-.6.6-1.4.4-2.1.5z"/><path class="st8" d="M151.7 213.7c.4.2.7.3 1.1.5-.9.2-1.8.4-2.7.5-.3-.2-.8 0-1-.4.7-.8 1.7-.5 2.6-.6z"/><path class="st8" d="M149 214.3c.3.1.7.3 1 .4-1.1-.1-2.2 1.3-3.3.1.7-.7 1.6-.5 2.3-.5z"/><path class="st10" d="M136.9 217.5c-.2-.2-.4-.3-.6-.5.8-.7 1.8-.5 2.7-.6.2.2.4.4.7.6-.9.1-1.8.3-2.8.5z"/><path d="M72.9 189.6c1.4.4 2 1 2.6 2.1-1.3-.2-1.9-.9-2.6-2.1z" fill="#8380ae"/><path class="st8" d="M143.6 216c-.2-.2-.4-.4-.6-.5 1 0 1.9-1.1 2.9-.1-.6.7-1.5.5-2.3.6z"/><path d="M110.7 51.5c.2-.4.4-.7.6-1.1.7.9.5 1.8.4 2.9-.7-.5-.7-1.2-1-1.8z" fill="#8f8bb7"/><path class="st3" d="M137.9 171c-2.2 0-6.1-.8-9.7-2.2-9.9-4-13.3-12.6-8.8-22.2 3.9-8.3 13.4-13 22.3-11 9.1 2 15.6 10 15.7 19.2.1 9.4-7.3 16.2-19.5 16.2z"/><path class="st1" d="M211.1 115.7c-.1 2.6.1 5-1.9 7-2.8 2.8-7.3 3.9-9.3 2-2.6-2.4-2.6-8.3 0-11.1.7-.7 1.5-1.3 2.4-2.1-1.1-.7-2.1-1.4-3-2-.9-.6-1.9-1-2.6-2.2 2.5-1.1 4.8-.7 6.8.8 2.2 1.7 4.5 2.8 7.4 2.7 2.7 0 5.2 1.4 7.6 2.9.1-3.7-.9-5.5-4.3-7.8 1.8-.4 3.6-.8 5.3-1.3 1.4-.4 2.1-.3 2.5 1.3 1.5 5.3 3.2 10.6 4.8 16 .2.7 1 1.5-.2 2.1-1 .5-1.8.4-2.7-.5-3.3-3.1-6.8-5.7-11.1-7.3-.5-.1-1-.3-1.7-.5zM190.6 106.9c-.4-.2-.8-.4-1.3-.1-.8.5-1.4.5-2-.5-.5-1.1-.3-1.7.7-2.2.4-.2.6-.6.9-.9.9.2 1.6-.1 2.3-.5 9.6-5 19.3-10 28.9-14.9.9-.4 1.9-1.8 2.8.1 1 2-.9 1.9-1.7 2.3-9.3 4.9-18.6 9.6-27.9 14.5-.9.5-2.4.7-2.7 2.2z"/><path d="M195.7 137.6c-.9-.2-2 .4-2.3-1.2-.3-1.9 1.6-1.3 2.2-2.1.8.6 1.7.5 2.6.5 8.9.2 17.8.4 26.8.6 2.3.1 4.5.3 6.8.3 1.1 0 1.7.3 1.6 1.6-.1 1.2-.8 1.2-1.7 1.1-5.1-.6-10.2-.2-15.3-.5-6.9-.2-13.8-.5-20.7-.3z" fill="#cfcbe5"/><path class="st1" d="M202.6 85c-5.1 1.2-7.4-.3-8-5-.2-1.9-1.4-2.9-2.8-3.9-2-1.4-3.4-2.9-3.4-5.5 0-1.4-1-2.3-2.5-2.4-.8 0-2 1-2.2-.5-.2-1.3.2-2.7 1.8-3.3 2-.7 3.6-.2 4.9 1.4.3.4.8.9.8 1.4.2 3.9 2.2 6.2 5.6 7.9 1.2.6 1.1 2.2 1.2 3.5.3 2.9 1 5.6 4.6 6.4z"/><path class="st1" d="M197.4 90.1c-4.9 1-7.3-.5-8-4.8-.3-1.6-.9-2.9-2.3-3.8-2.2-1.5-4-3.4-4.2-6.4-.1-1.4-1.1-1.9-2.4-2.1-.8-.1-2.2 1.4-2.3-.4-.1-1.5.4-3.3 2.7-3.5 2.6-.2 5.2 1.5 5.3 4.3.2 2.9 1.5 4.5 4 5.6 1.8.8 2.4 2.4 2.6 4.2.6 4.5.6 4.5 4.6 6.9z"/><path class="st4" d="M203.7 115c3.2-.1 3.7 1.9 3.8 3.6.1 2-1.3 3.3-3.3 3.3-2.1 0-3.7-1.2-4-3.4-.2-1.7 2-3.5 3.5-3.5z"/></g></svg>