<svg version="1.1" id="Camada_1" xmlns="http://www.w3.org/2000/svg" x="0" y="0" viewBox="0 0 265.4 265.4" xml:space="preserve"><style>.st1{fill:#293142}.st3{fill:#d5c09f}.st4{fill:#dde0e3}.st6{fill:#6d6559}.st8{fill:#e2a635}.st9{fill:#f2d648}.st10{fill:#e8be3d}.st14{fill:#e0c03d}.st16{fill:#355682}.st17{fill:#80a8cc}</style><path fill="#fff" d="M0 0h265.4v265.4H0z"/><path class="st1" d="M83.6 183.7l39.3 3.7h2l51.9-1.8-5.3-34.2c-.7-3.6-3.2-6.6-6.7-8l-23.2-9.1-17.8-3.4-17.8 3.4-23.2 9.1c-3.4 1.3-5.9 4.4-6.7 8l-1.5 20.8"/><path fill="#c3ab8a" d="M123.9 120.2h-16.2v7.3l16.2 9.2 16.1-9.2v-7.3z"/><path class="st3" d="M101.8 109.1h-2.3c-4.7 0-8.5-3.8-8.5-8.5s3.8-8.5 8.5-8.5h2.3v17zM145.6 109.1h2.3c4.7 0 8.5-3.8 8.5-8.5s-3.8-8.5-8.5-8.5h-2.3v17z"/><path class="st3" d="M144.6 63.9c0-1.5-1.2-2.6-2.6-2.6h-36.2c-1.5 0-2.6 1.2-2.6 2.6 0 2.6-1 19.2-2.8 21.1l-4 13.9v2.1c0 15.2 12.3 27.6 27.6 27.6 15.2 0 27.6-12.3 27.6-27.6v-2.1l-4-13.9c-1.9-1.9-3-18.5-3-21.1z"/><path class="st4" d="M123.9 53c-9.5 0-20 1-25 8.3-3 4.4-2.6 13.5-2.4 19.2l1 18.3 2.8-13.9c1.8-1.8 1.7-5.5 1.7-8.1 0-1.5 2.3-9.2 3.8-9.2 0 0 6-6.4 18.1-6.7 11.1-.2 18.1 6.7 18.1 6.7 1.5 0 3.2 7.5 3.2 9 0 2.6.4 6.4 2.3 8.2l2.4 13.9 1.6-18.3c0-5.3 1.6-15.2-1-19.4-4.9-7.8-16.7-8-26.6-8z"/><path d="M122.3 108.4c2.6 0 6.2-1.6 6.2-3.5l-3.6-6.1c0 .8 1.2 4.2.6 6.1-.7 2.5-4.6 3.5-3.2 3.5z" fill="#b79c79"/><circle class="st6" cx="110.2" cy="93.6" r="2.5"/><path class="st6" d="M114.8 86.1h-9.2c-.6 0-1.2.5-1.2 1.2 0 .6.5 1.2 1.2 1.2h9.2c.6 0 1.2-.5 1.2-1.2s-.5-1.2-1.2-1.2z"/><circle class="st6" cx="137.5" cy="93.6" r="2.5"/><path class="st6" d="M132.9 86.1h9.2c.6 0 1.2.5 1.2 1.2 0 .6-.5 1.2-1.2 1.2h-9.2c-.6 0-1.2-.5-1.2-1.2.1-.7.6-1.2 1.2-1.2z"/><g><path d="M131.1 115.4h-14.2c-.4 0-.8-.3-.8-.8 0-.4.3-.8.8-.8h14.2c.4 0 .8.3.8.8s-.4.8-.8.8z" fill="#886952"/></g><path class="st1" d="M119.5 129.9l-12-2.6c-.7-.1-1.4.4-1.4 1.1v5.8l17.8 5.5v-4.4c0-2.6-1.9-4.9-4.4-5.4zM128.3 129.9l12-2.6c.7-.1 1.4.4 1.4 1.1v5.8l-17.8 5.5v-4.4c0-2.6 1.8-4.9 4.4-5.4z"/><g><path class="st8" d="M145 134.1c2-.1 3.7.7 4.4 1.8h.2c2-.1 3.7.7 4.4 1.8h.2c2-.1 3.7.7 4.4 1.8h.2c2.5-.1 4.6 1.1 4.7 2.8s-1.9 3.1-4.4 3.2c-2 .1-3.7-.7-4.4-1.8h-.2c-2 .1-3.7-.7-4.4-1.8h-.2c-2 .1-3.7-.7-4.4-1.8h-.2c-2.5.1-4.6-1.1-4.7-2.8 0-1.6 2-3.1 4.4-3.2z"/><path class="st8" d="M154 137.6c2-.1 3.7.7 4.4 1.8h.2c2-.1 3.7.7 4.4 1.8h.2c2-.1 3.7.7 4.4 1.8h.2c2.5-.1 4.6 1.1 4.7 2.8.1 1.7-1.9 3.1-4.4 3.2-2 .1-3.7-.7-4.4-1.8h-.2c-2 .1-3.7-.7-4.4-1.8h-.2c-2 .1-3.7-.7-4.4-1.8h-.2c-2.5.1-4.6-1.1-4.7-2.8 0-1.6 2-3.1 4.4-3.2z"/><path class="st9" d="M145.4 133.4c2-.1 3.7.7 4.4 1.8h.2c2-.1 3.7.7 4.4 1.8h.2c2-.1 3.7.7 4.4 1.8h.2c2.5-.1 4.6 1.1 4.7 2.8.1 1.7-1.9 3.1-4.4 3.2-2 .1-3.7-.7-4.4-1.8h-.2c-2 .1-3.7-.7-4.4-1.8h-.2c-2 .1-3.7-.7-4.4-1.8h-.2c-2.5.1-4.6-1.1-4.7-2.8 0-1.7 2-3.1 4.4-3.2z"/><path class="st9" d="M155 137.5c2-.1 3.7.7 4.4 1.8h.2c2-.1 3.7.7 4.4 1.8h.2c2-.1 3.7.7 4.4 1.8h.2c2.5-.1 4.6 1.1 4.7 2.8.1 1.7-1.9 3.1-4.4 3.2-2 .1-3.7-.7-4.4-1.8h-.2c-2 .1-3.7-.7-4.4-1.8h-.2c-2 .1-3.7-.7-4.4-1.8h-.2c-2.5.1-4.6-1.1-4.7-2.8 0-1.7 1.9-3.1 4.4-3.2z"/><path class="st10" d="M159.2 143.1h.2c.9 0 1.7-.3 2.2-.7.3-.2.5-.5.5-.7 0-.4-.9-1.1-2.6-1.1h-.2l-1.3.1-.5-1c-.3-.5-1.2-1-2.5-1h-.2l-1.3.1-.5-1c-.3-.5-1.2-1-2.5-1h-.2l-1.3.1-.6-1c-.3-.5-1.2-1-2.5-1h-.2c-1.7.1-2.7 1-2.7 1.4 0 .4.9 1.1 2.6 1.1h.2l1.3-.1.5 1c.3.5 1.2 1 2.5 1h.2l1.3-.1.6 1c.3.5 1.2 1 2.5 1h.2l1.3-.1.6 1c.2.5 1.1 1 2.4 1z"/><path class="st10" d="M168.5 146.6h.2c.9 0 1.7-.3 2.2-.7.3-.2.5-.5.5-.7 0-.4-.9-1.1-2.6-1.1h-.2l-1.3.1-.5-1c-.3-.5-1.2-1-2.5-1h-.2l-1.3.1-.5-1c-.3-.5-1.2-1-2.5-1h-.2l-1.3.1-.6-1c-.3-.5-1.2-1-2.5-1h-.2c-1.7.1-2.7 1-2.7 1.4 0 .4.9 1.1 2.6 1.1h.2l1.3-.1.5 1c.3.5 1.2 1 2.5 1h.2l1.3-.1.6 1c.3.5 1.2 1 2.5 1h.2l1.3-.1.6 1c.2.5 1.1 1 2.4 1z"/></g><g><circle class="st9" cx="123.9" cy="147.3" r="1.9"/><circle class="st9" cx="123.9" cy="159.6" r="1.9"/><circle class="st9" cx="123.9" cy="171.9" r="1.9"/><circle class="st9" cx="123.9" cy="184.1" r="1.9"/></g><g><path fill="#6f9f4a" d="M142.4 160.4v10.2h2.3v-10.2z"/><path fill="#6d9d4a" d="M150.7 160.4h-2.3v10.2h2.3z"/><path fill="#eae26e" d="M144.7 160.4h3.7v10.2h-3.7z"/><path class="st14" d="M146.4 172.7c-1.9 0-3.4 1.5-3.4 3.4s1.5 3.4 3.4 3.4 3.4-1.5 3.4-3.4c0-1.8-1.5-3.4-3.4-3.4zm0 6.1c-1.5 0-2.7-1.2-2.7-2.7s1.2-2.7 2.7-2.7 2.7 1.2 2.7 2.7-1.2 2.7-2.7 2.7z"/><path class="st9" d="M146.5 172.2l1 2.9 2.9-.1-2.4 1.9 1 2.7-2.5-1.8-2.4 1.8 1-2.7-2.5-1.9 3 .1zM150.8 169.9v1.9h-8.6v-1.9h-.2v2.2h9v-2.2z"/><g><path class="st14" d="M150.8 163.1v1.9h-8.6v-1.9h-.2v2.2h9v-2.2z"/><path class="st14" d="M150.8 165.3v-1.9h-8.6v1.9h-.2v-2.2h9v2.2z"/></g><g><path class="st9" d="M143.5 163.4l.2.6h.6l-.5.4.2.6-.5-.4-.5.4.2-.6-.6-.4h.7zM146.5 163.4l.2.6h.7l-.5.4.2.6-.6-.4-.5.4.2-.6-.5-.4h.6zM149.6 163.4l.2.6h.6l-.5.4.2.6-.5-.4-.6.4.3-.6-.6-.4h.7z"/></g></g><path d="M110.1 187.6c-4.4-5.6-7.6-9.2-10.5-15.7-1.2-2.7-2.2-5.5-4.1-7.9-.2-.4-.2-1.1-.6-1.3-7.9-5-9.2-12.2-11.3-18.6 3.6-4.5 9.8-3.8 14.6-6.7 1.1-.7 1.1-1 2.2-1.6.9-.5 1.4-.7 2.1 0 3.7 5.2 9 10.1 12.3 15.4 2.6 4.1 4.8 8.2 7 12.5 1 2 2.2 3.9 3.4 5.8 3.4 5.6 7.2 10.9 11.3 16.1.4.5 1 .9 1 1.7l-27.4.3z" fill="#79a8d0"/><g><path class="st8" d="M103 133.8c-2-.1-3.7.7-4.4 1.8h-.2c-2-.1-3.7.7-4.4 1.8h-.2c-2-.1-3.7.7-4.4 1.8h-.2c-2.5-.1-4.6 1.1-4.7 2.8-.1 1.7 1.9 3.1 4.4 3.2 2 .1 3.7-.7 4.4-1.8h.2c2 .1 3.7-.7 4.4-1.8h.2c2 .1 3.7-.7 4.4-1.8h.2c2.5.1 4.6-1.1 4.7-2.8.1-1.6-1.9-3.1-4.4-3.2z"/><path class="st8" d="M94 137.3c-2-.1-3.7.7-4.4 1.8h-.2c-2-.1-3.7.7-4.4 1.8h-.2c-2-.1-3.7.7-4.4 1.8h-.2c-2.5-.1-4.6 1.1-4.7 2.8-.1 1.7 1.9 3.1 4.4 3.2 2 .1 3.7-.7 4.4-1.8h.2c2 .1 3.7-.7 4.4-1.8h.2c2 .1 3.7-.7 4.4-1.8h.2c2.5.1 4.6-1.1 4.7-2.8.1-1.6-1.9-3.1-4.4-3.2z"/><path class="st9" d="M102.6 133.1c-2-.1-3.7.7-4.4 1.8H98c-2-.1-3.7.7-4.4 1.8h-.2c-2-.1-3.7.7-4.4 1.8h-.2c-2.5-.1-4.6 1.1-4.7 2.8-.1 1.7 1.9 3.1 4.4 3.2 2 .1 3.7-.7 4.4-1.8h.2c2 .1 3.7-.7 4.4-1.8h.2c2 .1 3.7-.7 4.4-1.8h.2c2.5.1 4.6-1.1 4.7-2.8.1-1.6-1.9-3.1-4.4-3.2z"/><path class="st9" d="M93.3 136.9c-2-.1-3.7.7-4.4 1.8h-.2c-2-.1-3.7.7-4.4 1.8h-.2c-2-.1-3.7.7-4.4 1.8h-.2c-2.5-.1-4.6 1.1-4.7 2.8-.1 1.7 1.9 3.1 4.4 3.2 2 .1 3.7-.7 4.4-1.8h.2c2 .1 3.7-.7 4.4-1.8h.2c2 .1 3.7-.7 4.4-1.8h.2c2.5.1 4.6-1.1 4.7-2.8.1-1.7-1.9-3.1-4.4-3.2z"/><path class="st10" d="M88.8 142.8h-.2c-.9 0-1.7-.3-2.2-.7-.3-.2-.5-.5-.5-.7 0-.4.9-1.1 2.6-1.1h.2l1.3.1.5-1c.3-.5 1.2-1 2.5-1h.2l1.3.1.5-1c.3-.5 1.2-1 2.5-1h.2l1.3.1.6-1c.3-.5 1.2-1 2.5-1h.2c1.7.1 2.7 1 2.7 1.4 0 .4-.9 1.1-2.6 1.1h-.2l-1.3-.1-.5 1c-.3.5-1.2 1-2.5 1h-.2l-1.3-.1-.6 1c-.3.5-1.2 1-2.5 1h-.2l-1.3-.1-.6 1c-.1.5-1.1 1-2.4 1z"/><path class="st10" d="M79.5 146.3h-.2c-.9 0-1.7-.3-2.2-.7-.3-.2-.5-.5-.5-.7 0-.4.9-1.1 2.6-1.1h.2l1.3.1.5-1c.3-.5 1.2-1 2.5-1h.2l1.3.1.5-1c.3-.5 1.2-1 2.5-1h.2l1.3.1.6-1c.3-.5 1.2-1 2.5-1h.2c1.7.1 2.7 1 2.7 1.4 0 .4-.9 1.1-2.6 1.1h-.2l-1.3-.1-.5 1c-.3.5-1.2 1-2.5 1h-.2l-1.3-.1-.6 1c-.3.5-1.2 1-2.5 1h-.2l-1.3-.1-.6 1c-.1.5-1.1 1-2.4 1z"/></g><g><path class="st9" d="M126.1 132.2c.9-1 5.5-1.3 9.6-2.4 3-.9 5.5-2 5.5-2s0 .8-.2 1c-.3.4-1.6.7-1.6.7s0 .7-.1.9c-.3.4-1.6.9-1.6.9s0 .6-.1.8c-.2.3-1.3.6-1.3.6s-.5.7-.7.8c-.3.2-1.2.3-1.2.3s0 .6-.1.7c-.2.2-1 .2-1 .2s.2.5.1.6c-.2.2-.8.2-1.1.3-.2.1-.7.2-.8.3-.2.3-.2 1.6-.2 1.6l-6.3.5c0 .1.1-4.6 1.1-5.8z"/><path class="st9" d="M131.9 137.8s1-1.1 1.4-1c.2 0 .4.4.6.5.2 0 .8 0 .8-.2.1-.2-.7-.7-.7-.7s1.5-.1 2 0c.4 0 1.1.1 1.5.1.5-.1 1.4-.2 1.3-.7-.2-.7-2.5-.6-2.5-.6s1-.1 1.3-.2c.4 0 1.3.1 1.7-.1.5-.2 1.4-.9 1.7-1.3.1-.1.2-.5.1-.6-.2-.2-.8.1-1 .2-.5.2-2 .9-2 .9s.2-.5.3-.6c.4-.4 1.6-1 1.8-1.5.2-.3.4-1.1.1-1.3-.1-.1-.6 0-.7.1-.7.5-1.9 1.8-2.4 2.5-.1.1-.4.5-.4.5s.1-.8-.1-.8c-.2-.1-.6.4-.7.6-.1.3-.1 1.1-.1 1.1s-.3-.8-.6-.8c-.4.1-.3 1.3-.5 1.7l-.4.4s.2-.9 0-1c-.2-.1-.5.2-.6.4-.1.2-.2.9-.2.9s-.4-.4-.6-.4c-.3.1-.2.8-.3 1-.1.2-.6.4-.7.6-.2 0-.1.3-.1.3z"/><g><path class="st9" d="M121.8 132.4c-.9-1-5.5-1.3-9.6-2.4-3-.9-5.5-2-5.5-2s0 .8.2 1c.3.4 1.6.7 1.6.7s0 .7.1.9c.3.4 1.6.9 1.6.9s0 .6.1.8c.2.3 1.3.6 1.3.6s.5.7.7.8c.3.2 1.2.3 1.2.3s0 .6.1.7c.2.2 1 .2 1 .2s-.2.5-.1.6c.2.2.8.2 1.1.3.2.1.7.2.8.3.2.3.2 1.6.2 1.6l6.3.5c0 .1-.1-4.6-1.1-5.8z"/><path class="st9" d="M115.9 138s-1-1.1-1.4-1c-.2 0-.4.4-.6.5-.2 0-.8 0-.8-.2-.1-.2.7-.7.7-.7s-1.5-.1-2 0c-.4 0-1.1.1-1.5.1-.5-.1-1.4-.2-1.3-.7.2-.7 2.5-.6 2.5-.6s-1-.1-1.3-.2c-.4 0-1.3.1-1.7-.1-.5-.2-1.4-.9-1.7-1.3-.1-.1-.2-.5-.1-.6.2-.2.8.1 1 .2.5.2 2 .9 2 .9s-.2-.5-.3-.6c-.4-.4-1.6-1-1.8-1.5-.2-.3-.4-1.1-.1-1.3.1-.1.6 0 .7.1.7.5 1.9 1.8 2.4 2.5.1.1.4.5.4.5s-.1-.8.1-.8c.2-.1.6.4.7.6.1.3.1 1.1.1 1.1s.3-.8.6-.8c.4.1.3 1.3.5 1.7l.4.4s-.2-.9 0-1c.2-.1.5.2.6.4.1.2.2.9.2.9s.4-.4.6-.4c.3.1.2.8.3 1 .1.2.6.4.7.6.3 0 .1.3.1.3z"/></g></g><g><path class="st4" d="M159.5 78.9c17.6 10.2 29.4 29.2 29.4 51 0 32.5-26.4 58.9-58.9 58.9s-58.9-26.4-58.9-58.9c0-10.6 2.8-20.6 7.7-29.2-7.8 10.9-12.5 24.3-12.5 38.8 0 36.6 29.7 66.3 66.3 66.3s66.3-29.7 66.3-66.3c0-27-16.2-50.3-39.4-60.6z"/><path class="st16" d="M157.7 77.1c17.6 10.2 29.4 29.2 29.4 51 0 32.5-26.4 58.9-58.9 58.9s-58.9-26.4-58.9-58.9c0-10.6 2.8-20.6 7.7-29.2-7.9 10.9-12.5 24.3-12.5 38.8 0 36.6 29.7 66.3 66.3 66.3s66.3-29.7 66.3-66.3c-.1-27.1-16.2-50.3-39.4-60.6zM77.5 89.7c.1-.2.2-.3 0-.5-2.5-2.6-4.9-5.2-7.3-7.8l-.2-.2c-3.1 3.8-5.6 8-7.5 12.4.3-10 .7-20.1 1-30.2 10 .3 20.1.7 30.2 1-4.5 1.6-8.8 3.8-12.8 6.7.1.2.2.3.3.4 2.4 2.5 4.8 5.1 7.1 7.6.2.2-3.2-.6-5.8 5.2-3 6.4-5 5.4-5 5.4z"/><path class="st16" d="M73.5 179.3c6.4 2.9 2.6 5.2 2.4 5.3-2.7 1.6-5.3 3.1-8 4.7-.1 0-.1.1-.2.2 2.6 3.4 5.7 6.3 9 8.7-8.4-2.2-16.9-4.4-25.3-6.6 2.2-8.4 4.4-16.9 6.6-25.2.5 4.1 1.5 8.2 3.2 12.1.2-.1.3-.1.4-.2 2.6-1.5 8.1-4.8 8-5.1 0-.1-1 3.9 3.9 6.1zM191.9 101.8c-6.3-3-2.5-5.2-2.3-5.3l8.1-4.5c.1 0 .1-.1.2-.2-2.6-3.4-5.5-6.3-8.8-8.8 8.3 2.3 16.7 4.7 25 7-2.3 8.3-4.7 16.7-7 25-.4-4.1-1.4-8.1-3-12.1-.2.1-.3.1-.4.2-2.6 1.5-8.1 4.7-8 5-.1 0 1-4-3.8-6.3zM175.1 191.2c-.1.2 3.8 4.4 5.7 6.4l.3.3c2.4-3 4.3-6.3 5.8-9.7-.2 7.8-.4 15.7-.5 23.5-7.8-.2-15.7-.4-23.5-.5 3.5-1.3 6.9-3.1 10-5.3-.1-.1-.1-.2-.1-.2-1.9-2-3.9-4-5.8-6.1-.1-.2-2.9-3 3.4-4 4.6-.7 4.7-4.4 4.7-4.4z"/><path class="st17" d="M77.5 89.1c-2.5-2.6-4.9-5.2-7.3-7.8l-.2-.2c-3.1 3.8-5.6 8-7.5 12.4.3-10 .7-20.1 1-30.2 10 .3 1.5 15.8 8.1 15 0 .2 6.1 11 5.9 10.8zM75.6 184.9c-2.6 1.5-5.2 2.9-7.8 4.4-.1 0-.1.1-.2.2 2.4 3.2 5.3 6.1 8.5 8.5-8-2.2-16.1-4.5-24.1-6.7 2.3-8 13 1.9 13.8-3.6.1-.1 10.1-2.9 9.8-2.8zM174.6 191.4l6.3 6.3.2.2c2.5-3.2 4.4-6.7 5.8-10.4 0 8.3.1 16.7.1 25-8.3-.1-1.7-13.1-7.2-12.3 0-.2-5.3-9-5.2-8.8zM190.1 96.6c2.6-1.5 5.2-2.9 7.8-4.4.1 0 .1-.1.2-.2-2.4-3.3-5.3-6.1-8.4-8.5 8 2.2 16.1 4.5 24.1 6.7-2.3 8-13-1.9-13.8 3.5-.1.2-10.1 3-9.9 2.9z"/></g></svg>