<svg xmlns="http://www.w3.org/2000/svg" xmlns:xlink="http://www.w3.org/1999/xlink" width="697" height="697"><path fill-rule="evenodd" clip-rule="evenodd" fill="#1D5650" stroke="#000" stroke-miterlimit="10" d="M299.667 436.571s-33.696 15.895-49.613 51.661c-6.141 13.801 3.663 40.669 3.663 40.669l12.254-6.267s-8.511-20.17 3.02-32.428c3.083-3.278 16.479-7.245 16.479-7.245l-19.499 63.715h144.726l-19.629-74.215s11.215.504 18.584 16.733c6.957 15.322.029 31.632.029 31.632l15.242 7.063s14.643-25.931 7.332-45.152c-15.379-40.446-49.15-46.166-49.15-46.166h-83.438z"/><path fill-rule="evenodd" clip-rule="evenodd" fill="#15443E" d="M300.666 436.605h80.547s-26.204 59.253-42.999 58.626c-15.958-.594-37.548-58.626-37.548-58.626zm38.031 49.409c14.294.532 36.599-49.9 36.599-49.9h-68.557c0-.001 18.376 49.393 31.958 49.9z"/><path fill-rule="evenodd" clip-rule="evenodd" fill="#FFF" stroke="#000" stroke-miterlimit="10" d="M408.084 548.343l-4.41 3.153c2.854-2.917 4.41-4.819 4.41-4.819H268.342s.437 1.201 1.491 3.155l-1.647-1.489v83.196l21.289 6.488 8.489-62.796-1.24-1.118c10.147 4.845 23.658 8.434 41.489 8.617 11.61.119 22.34-2.853 31.736-7.127l-.002.003 24.425 64.935 25.893-3.044-12.181-89.154z"/><path fill-rule="evenodd" clip-rule="evenodd" fill="#E2E2E2" d="M282.935 631.513l6.927-59.975-4.5-5.167s16.542 8.454 47.167 10.704c36.03 2.647 44-7.537 44-7.537l-.5 5 22.342 60.967-4.592 1.938-23.25-61.805.422-.594.359-.578c-5.578 2.703-20.166 8.595-37.844 7.578-23.906-1.375-33.028-7.099-34.75-7.625-.354-.108-4.588-2.099-4.588-2.099l3.275 3.13-8 59.031-6.468-2.968z"/><path fill="#F3CFB7" d="M411.867 547.543c4.564-2.896 12.318-19.499 12.318-19.499s-11.561-8.349-15.793-8.009c-8.771.701-29.88 14.752-26.687 22.95 2.769 7.106 23.723 8.642 30.162 4.558zM264.712 548.783c-4.565-2.896-11.111-19.259-11.111-19.259s10.353-8.589 14.585-8.249c8.771.701 29.882 14.752 26.688 22.95-2.769 7.106-23.722 8.642-30.162 4.558z"/><path fill-rule="evenodd" clip-rule="evenodd" fill="#FFF" d="M301.514 436.547h79.574s-25.887 51.538-42.479 50.993c-15.765-.519-37.095-50.993-37.095-50.993zm36.675-.508c14.106-.28 37.026-1.302 37.026-1.302l-67.701 1.378s17.272.191 30.675-.076z"/><path fill="#1D5650" stroke="#000" stroke-miterlimit="10" d="M246.013 656.063c12.161 4.554 48.223-1.149 50.019-14.01.317-2.272-2.516-4.641-6.196-6.718-2.715-1.532 4.115-13.33 1.403-14.391-3.479-1.361-19.143-7.293-23.053-2.994-1.73 1.902 1.696 9.441-2.407 10-11.497 1.565-31.235 7.61-33.434 15.616-1.226 4.463 9.331 10.872 13.668 12.497zM435.779 659.839c-12.621 3.056-48.222-1.149-50.018-14.01-.406-2.91-.57-5.34 4.518-7.752 5.578-2.645-2.09-8.454-.955-10.959 3.033-6.692 26.872-1.446 29.366-1.156 2.346.271-.785 8.351 2.762 8.933 12.01 1.971 26.555 5.6 27.996 12.448.954 4.528-9.169 11.406-13.669 12.496z"/><path fill-rule="evenodd" clip-rule="evenodd" fill="#33776C" d="M300.666 436.571h80.547s-26.204 52.213-42.999 51.661c-15.958-.524-37.548-51.661-37.548-51.661zm38.031 43.538c14.294.469 36.599-43.972 36.599-43.972h-68.557c0 .001 18.376 43.526 31.958 43.972z"/><path fill="#F3CFB7" d="M474.107 351.038c8.057-18.343 12.561-38.601 12.561-59.919 0-82.388-66.787-149.177-149.178-149.177-82.386 0-149.174 66.789-149.174 149.177 0 19.121 3.636 37.381 10.19 54.182-4.152.499-7.182 2.078-8.22 4.709-2.31 5.842.001 18.523 12.569 23.49.769.305 7.547-3.334 8.31-3.072a150.11 150.11 0 0036.868 40.047c24.918 18.721 55.886 29.819 89.457 29.819 33.944 0 65.223-11.347 90.28-30.444a150.201 150.201 0 0030.9-31.78c2.828-.547 7.07 2.62 10.08 1.431 12.568-4.967 19.625-17.751 17.314-23.593-1.33-3.369-5.912-5.019-11.957-4.87z"/><path fill-rule="evenodd" clip-rule="evenodd" fill="#DDB69B" d="M474.779 363.575c1.473 3.198-9.543 8.823-2.959 5.79 6.584-3.032 10.729-8.083 9.254-11.28-1.473-3.198-8.004-3.333-14.588-.3-6.584 3.032 6.819 2.593 8.293 5.79zM201.102 357.621c-1.473 3.198 9.542 8.823 2.958 5.79-6.584-3.032-10.728-8.083-9.254-11.28 1.473-3.198 8.004-3.333 14.588-.3 6.584 3.032-6.818 2.593-8.292 5.79z"/><defs><path id="a" d="M414.139 364.164c8.246-5.583 11.188-12.016 6.476-16.899a12.1 12.1 0 00-1.517-1.318c-3.773-10.827-13.365-17.968-30.415-17.505-19.101.519-38.944 10.568-37.852 23.396.094 1.113.344 2.195.661 3.261-5.675 4.939-7.21 10.244-3.185 14.417 6.083 6.306 26.145 7.919 43.326 4.497 10.818-.505 16.842-4.265 22.506-9.849z"/></defs><use xlink:href="#a" overflow="visible" fill-rule="evenodd" clip-rule="evenodd" fill="#DDB69B"/><defs><path id="b" d="M278.18 363.957c.218-.989.391-1.994.457-3.028.753-11.917-10.027-21.448-23.207-21.931-11.767-.431-21.301 6.398-23.906 16.456a9.81 9.81 0 00-1.047 1.227c-3.25 4.538-1.221 10.515 4.471 15.7 3.908 5.188 9.283 10.348 16.749 10.816 11.857 3.178 24.483.012 28.68-5.846 2.779-3.874 1.719-8.806-2.197-13.394z"/></defs><use xlink:href="#b" overflow="visible" fill-rule="evenodd" clip-rule="evenodd" fill="#DDB69B"/><defs><path id="c" d="M256.184 336.059c-11.859-1.552-21.631.004-24.278 11.741-.393.45-.75.928-1.063 1.431-3.301 5.297-1.24 12.271 4.541 18.323 3.968 6.055 9.936 6.604 17.519 7.151 12.041 3.71 24.354 5.485 28.616-1.351 2.822-4.522-3.019-34.375-25.335-37.295z"/></defs><use xlink:href="#c" overflow="visible" fill-rule="evenodd" clip-rule="evenodd" fill="#FFF"/><clipPath id="d"><use xlink:href="#c" overflow="visible"/></clipPath><ellipse transform="rotate(-7.735 257.659 355.711)" clip-path="url(#d)" fill-rule="evenodd" clip-rule="evenodd" fill="#420C0C" cx="257.683" cy="355.81" rx="18.18" ry="20.105"/><path clip-path="url(#d)" fill-rule="evenodd" clip-rule="evenodd" fill="#602B2B" d="M266.823 356.115c.122 7.987-4.293 14.531-9.861 14.614-5.566.086-10.175-6.322-10.295-14.31-.123-7.988 4.292-14.532 9.86-14.617 5.565-.081 10.176 6.325 10.296 14.313z"/><ellipse transform="rotate(-.81 258.623 354.99)" clip-path="url(#d)" fill-rule="evenodd" clip-rule="evenodd" cx="259.057" cy="356.268" rx="7.784" ry="11.169"/><ellipse transform="rotate(-.81 264.783 347.485)" clip-path="url(#d)" fill-rule="evenodd" clip-rule="evenodd" fill="#FFF" cx="265.1" cy="348.493" rx="3.98" ry="5.713"/><defs><path id="e" d="M409.975 359.834c7.731-6.341 10.489-13.648 6.07-19.196a12.412 12.412 0 00-1.421-1.498c-3.539-12.299-13.23-11.292-29.203-10.491-36.921 1.852-40.941 32.525-37.167 37.265 5.703 7.162 21.059 4.458 37.167.571 10.142-.573 19.243-.306 24.554-6.651z"/></defs><use xlink:href="#e" overflow="visible" fill-rule="evenodd" clip-rule="evenodd" fill="#FFF"/><clipPath id="f"><use xlink:href="#e" overflow="visible"/></clipPath><ellipse clip-path="url(#f)" fill-rule="evenodd" clip-rule="evenodd" fill="#420C0C" cx="383.943" cy="345.162" rx="23.125" ry="23.638"/><path clip-path="url(#f)" fill-rule="evenodd" clip-rule="evenodd" fill="#602B2B" d="M397.557 344.146c.146 9.643-5.831 17.551-13.353 17.663-7.516.115-13.729-7.611-13.873-17.253-.148-9.643 5.826-17.551 13.349-17.666 7.517-.112 13.73 7.613 13.877 17.256z"/><ellipse transform="rotate(-.81 386.69 345.631)" clip-path="url(#f)" fill-rule="evenodd" clip-rule="evenodd" cx="385.636" cy="345.28" rx="9.779" ry="14.032"/><ellipse transform="rotate(-.81 394.493 336.017)" clip-path="url(#f)" fill-rule="evenodd" clip-rule="evenodd" fill="#FFF" cx="393.228" cy="335.514" rx="5.001" ry="7.177"/><path fill-rule="evenodd" clip-rule="evenodd" fill="#E2B89C" d="M334.497 388.913s-8.065-8.823-18.013-8.823c-9.948 0-18.013 8.823-18.013 8.823 0-6.732 8.064-12.188 18.013-12.188 9.947.001 18.013 5.456 18.013 12.188z"/><path fill-rule="evenodd" clip-rule="evenodd" fill="#FFF" stroke="#D39797" stroke-miterlimit="10" d="M351.772 406.354c-1.244 1.176 0 3.979 0 3.979S332.896 426 303.76 414.117l2.742-4.4c11.269 4.429 45.27-3.363 45.27-3.363z"/><path fill-rule="evenodd" clip-rule="evenodd" fill="#FFF" d="M421.119 314.432c.439 6.1-17.725-10.74-37.314-7.961s-34.139 15.988-34.139 15.988c-2.548-7.459-6.509-6.608.084-11.755 2.109-1.646 12.598-9.737 15.25-11.037 4.617-2.262 11.638-1.936 17.448-2.76 14.051-1.993 31.935 3.032 38.679 9.76 2.658 2.651-.264 4.217-.008 7.765zM265.5 324.25s-7.564-5.367-21.679-5.367c-14.117 0-20.635 15.631-20.635 6.654 0-8.978 12.046-20.332 25.561-16.255 8.031 2.423 14.523 4.603 16.753 7.218 1.669 1.957 0 3.908 0 7.75z"/><path fill="#FFF" d="M454.842 329.271s-.859 20.124 1.221 26.394c.777 2.348 9.307 1.951 9.307 1.951s4.742 1.235 6.143-.926c4.053-6.255 8.502-20.736 10.369-27.953 2.787-10.771 5.039-33.122 4.787-44.244-.295-12.971-5.957-38.575-9.875-50.942-3.953-12.479-16.143-35.945-23.43-46.818-9.996-14.917-35.527-40.76-44.857-56.105-1.939-3.19-6.064-13.647-6.064-13.647s-7.24.996-9.356 0c-8.513-4.002-24.004-28.978-24.004-28.978l1.517 12.298s-14.013-18.115-16.713-25.168c-1.952-5.099-3.161-21.607-3.161-21.607s-6.523 22.027-12.695 21.348c-4.852-.533-6.649-13.697-6.097-18.547.811-7.089 8.338-27.294 8.338-27.294s-12.743 6.208-15.927 9.595c-5.333 5.672-7.1 24.901-14.398 27.615-3.581 1.332-13.646-6.883-13.646-6.883s2.378 7.891 2.516 10.615c.292 5.729-.79 17.456-3.007 22.746-2.847 6.788-16.684 24.261-16.684 24.261l-1.022-9.099-25.778 37.908-1.516-10.614s-5.22 13.871-7.583 18.196c-5.748 10.519-20.998 29.223-27.292 39.425-7.617 12.348-22.652 37.756-26.031 51.864-2.707 11.303-2.478 34.872-1.585 46.459.769 9.975 2.417 30.021 4.87 39.72 1.982 7.835 11.344 30.271 11.344 30.271l8.513-.511-2.418-13.163v-2.315s-6.66-18.487-6.824-24.951c-.132-5.128 3.326-15.163 5.695-19.712.148-.285.802-.999.802-.999l14.731-19.546 1.517-.685s-7.226-6.163-9.636-8.213l-.978-.832s17.54-5.619 23.569-6.69c.338-.06 1.132-.087 1.316-.374 1.857-2.877-2.013-13.543-2.013-13.543s40.043 11.902 53.781 11.456c16.953-.55 65.306-18.411 65.306-18.411l-14.588 4.764a427194.574 427194.574 0 0059.137 6.065l-19.477 5.564-1.752.501 51.553 17.676 1.52.521-11.018 8.273-1.098.824 31.826 40.941.845 1.519z"/><path fill-rule="evenodd" clip-rule="evenodd" fill="#F4F4F4" d="M286.167 245.139l-1.823-18.273-1.408-14.108s9.23 11.149 12.265 8.885c7.396-5.521-12.265-34.823-12.265-34.823s8.756 17.071 13.121 14.763c8.982-4.748-9.89-39.42-9.89-39.42s6.362 23.698 12.305 21.762c5.14-1.675-2.487-21.479-2.487-21.479l-.784-6.765-4.497-21.061s6.219 17.841 10.812 16.214c3.965-1.405-1.558-16.753-1.558-16.753l-1.485-15.986s4.564 11.101 7.558 10.105c6.263-2.083 0-26.401 0-26.401s8.95 2.137 10.455 0c3.183-4.521-7.455-20.82-7.455-20.82s5.964 1.117 7.455 0c3.232-2.421 4.545-15.505 4.545-15.505L334.497 43.7s-7.885 22.229-8.468 30c-.3 3.99 4.908 13.131 2 15.88-2.133 2.016-11.545-2.122-11.545-2.122s13.207 20.214 8.545 24.839c-3.07 3.046-16.313-5.759-16.313-5.759s7.827 20.277 7.768 27.396c-.056 6.725-2.102 22.132-7.768 25.755-1.713 1.095-8.051-1.136-8.051-1.136s13.127 25.515 8.051 32.025c-1.575 2.021-10.245 0-10.245 0s12.641 12.321 10.245 16.561c-1.662 2.942-13.517-.161-13.517-.161s7.157 13.854 6.314 18.72c-1.055 6.102-15.346 19.441-15.346 19.441z"/><path fill="#F4F4F4" d="M344.226 238.659l-43.561 14.825 36.532-36.751s-13.838 12.87-10.169 15.805c6.958 5.564 28.865-17.371 25-25.398-2.801-5.816-25.682 2.686-25.682 2.686l25.682-29.151s-12.294 16.169-7.803 18.313c9.405 4.49 27.333-29.894 19.549-36.825-8.108-7.219-35.746 24.657-35.746 24.657l39.919-41.76s-6.981 35.782-11.919 46.8c-.914 2.04-6.197 5.525-5 7.413 2.293 3.613 16.919-2.611 16.919-2.611s-28.574 21.799-23.722 30.049c2.51 4.268 19.549-3.17 19.549-3.17s-42.525 6.834-39.746 17.31c1.303 4.906 20.198-2.192 20.198-2.192zM373.333 236.567l-15.44 6.053s22.899-1.579 29.889 1.079c1.895.721 6.248 5.169 6.248 5.169l15.145.494-7.053 12.03s17.396-1.717 21.742 1.57c2.707 2.047 4.627 12.762 4.627 12.762s13.107-2.252 14.539 1.101c1.346 3.157-8.729 10.603-8.729 10.603l8.729 16.04 13 16.399 8-4.528s-19.096-13.615-19-20.625c.043-3.227 9-9.255 9-9.255s-8.531 4.051-10 1.969c-1.545-2.189 5.482-9.21 5.482-9.21v-13.506s-11.131 9.548-15.211 8.148c-6.08-2.086-10.438-23.498-10.438-23.498s-9.926 7.775-12.902 5.856c-2.805-1.807 0-13.34 0-13.34s-11.055 2.747-12.59 0c-.875-1.563 3.75-6.104 3.75-6.104s-15.702 4.803-21.033 4.22c-2.107-.23-7.755-3.427-7.755-3.427zM274.458 253.484s-33.019-21.768-42.212-15.324c-3.999 2.803 0 19.534 0 19.534s-17.467-3.751-21.218 0c-3.763 3.763 0 21.285 0 21.285s-4.36 7.798-5 10.674c-.848 3.809 0 15.607 0 15.607l-9 5.443v-17.996s3.515 5.513 5 4.665c5.042-2.877-5-22.678-5-22.678s5.322 4.052 7 3.126c3.087-1.704 2-13.962 2-13.962s-18-21.161-9-20.16 20.402 10.789 26.157 7.199c5.897-3.679 3.017-27.638 3.017-27.638s15.26 15.604 21.829 14.899c2.946-.315 8.152-8.604 8.152-8.604l18.275 23.93z"/><path fill="#F4F4F4" d="M194.679 334.195c-4.551-9.889-6.363-43.076-6.363-43.076l6.193 9.686-1.609-7.772-5.147-24.854v-28.184s.603 10.951 3.463 10.904c7.598-.125 8.244-29.257 8.244-29.257s-.232 8.197 1.907 8.377c10.958.923 16.797-40.657 16.797-40.657s-2.728 10.581 0 11.138c10.206 2.082 16.32-38.337 16.32-38.337l7.422-12.27 8.901-14.717s-1.096 10.009 1.516 10.614c11.165 2.586 25.778-37.908 25.778-37.908s-1.19 8.515 1.022 9.099c1.847.487 4.489-6.182 4.489-6.182s7.418-9.052 9.105-12.539c2.321-4.796 5.417-15.203 5.753-20.521.352-5.56-3.27-22.039-3.27-22.039l11.582 8.279s2.218 2.487 3.163 2.261c4.293-1.026 6.147-11.78 8.816-15.295 4.643-6.113 21.509-21.915 21.509-21.915s-7.135 19.002-7.241 25.669c-.083 5.195 5 20.172 5 20.172l4.035-6.785 8.66-14.563s1.209 16.509 3.161 21.607c2.701 7.054 9.729 28.043 16.713 25.168C373.462 99.119 369.081 88 369.081 88s15.491 24.975 24.004 28.978c2.116.995 9.356 0 9.356 0l39.014 54.462 31.365 51.819 6.783 25.857 5.596 21.335-3.318 58.283-2.979 8.738-5.094 14.943-2.779-14.943 3-34.007s-.24 13.29 3 12.772c8.627-1.378-3-34.82-3-34.82s4.145 7.041 6 6.008c9.488-5.289-5.721-32.304-10-42.289-3.701-8.638-20.518-31.491-20.518-31.491s10.41 18.2 14.518 14.984c8.537-6.685-23-36.773-23-36.773s11.168 9.514 13.273 6.48c3.764-5.421-19.141-18.176-19.141-18.176l-11.117-10.556-14.871-20.949s12.418 10.398 14.689 7.021c4.809-7.149-25.492-23.185-25.492-23.185s9.6.652 10.135-1.868c2.213-10.426-35.173-24.088-35.173-24.088v14.04s-10.649-18.027-15.44-23.04c-2.933-3.069-10.68-7.063-13.666-10.08-4.77-4.818-15.875-21.985-15.875-21.985s-6.864 11.612-10.917 12.265c-2.485.4-8.718-5.038-8.718-5.038l-12.66 33.088s-8.659 13.324-13.121 15.906c-1.86 1.077-8.477 1.44-8.477 1.44S264 149.7 256.184 154.169c-1.77 1.012-8.152 0-8.152 0s-12.131 39.387-21.829 48.475c-2.34 2.192-9.948 2.043-12.013 4.496-4.486 5.332-1.537 21.438-5.161 27.389-1.155 1.896-6.023 3.472-7 5.466-2.065 4.216 2.967 15.188-.06 18.776-1.722 2.041-9.219-.496-10.524 1.834-1.851 3.306 5.004 10.347 5.584 14.091 1.382 8.918-3.581 27.047-2.52 36.009 1.125 9.512 11.52 36.539 11.52 36.539s-9.543-9.121-11.35-13.049z"/><path fill-rule="evenodd" clip-rule="evenodd" fill="#E2E2E2" d="M271.529 551.012s10.537-.267 13.94-1.065c1.804-.424 6.871-2.779 6.871-2.779s-4.47 5.544-6.645 6.2c-3.437 1.036-14.166-2.356-14.166-2.356zM386.458 547.167s5.93 1.842 8.024 2.172c2.666.42 10.454.202 10.454.202s-8.557 3.995-11.573 3.326c-2.186-.485-6.905-5.7-6.905-5.7z"/><path fill-rule="evenodd" clip-rule="evenodd" fill="#FFF" d="M431.648 637.164c.594 2.431-3.01 1.821-11.928 4.003-8.918 2.183-15.553 6.383-16.148 3.952-.594-2.431 6.154-6.17 15.072-8.353 8.919-2.181 12.409-2.033 13.004.398z"/><path fill-rule="evenodd" clip-rule="evenodd" fill="#FFF" d="M442.172 640.012c.594 2.431-3.01 1.821-11.928 4.003-8.92 2.183-15.555 6.383-16.148 3.952-.596-2.431 6.152-6.17 15.07-8.353 8.92-2.181 12.41-2.033 13.006.398zM253.121 634.064c-.594 2.431 3.01 1.821 11.928 4.003 8.919 2.183 15.554 6.383 16.148 3.952s-6.153-6.17-15.071-8.353c-8.919-2.181-12.41-2.032-13.005.398z"/><path fill-rule="evenodd" clip-rule="evenodd" fill="#FFF" d="M244.121 637.164c-.594 2.431 3.01 1.821 11.928 4.003 8.919 2.183 15.554 6.383 16.148 3.952s-6.153-6.17-15.071-8.353c-8.919-2.181-12.41-2.033-13.005.398z"/><path fill-rule="evenodd" clip-rule="evenodd" fill="#DDB69B" d="M281.251 546.433c-.374 1.817 5.949 3.388 2.209 2.618s-6.469-2.865-6.095-4.682c.373-1.817 3.708-2.667 7.448-1.896 3.741.769-3.188 2.144-3.562 3.96zM398.51 544.607c.465 2.26-8.84 4.676-4.187 3.719 4.652-.956 8.046-3.564 7.582-5.823-.465-2.261-4.614-3.316-9.265-2.359-4.654.957 5.405 2.205 5.87 4.463z"/><path fill-rule="evenodd" clip-rule="evenodd" fill="#FFF" d="M332.494 464.544c-4.065-1.888-5.838-5.716-7.427-9.439-2.247-5.263-3.995-10.739-5.96-16.123-.085-.235-.211-.457-.322-.69-2.279 1.304-2.696 2.76-1.84 6.582-.525-.182-.958-.29-1.356-.474-3.756-1.732-8.594-9.166-7.098-14.392a11.997 11.997 0 011.189-2.811 10.547 10.547 0 012.397-2.801c3.392-2.802 7.081.865 11.289.03 4.916-.975 11.877 1.239 16.557-2.688 2.175.181 3.159-2.85 5.159-2.018 4.169 1.734 5.726 5.369 4.628 10.194-.931 4.093-3.057 7.584-5.794 10.719-.3.344-.712.589-1.417 1.159.717-2.894.986-5.407-1.051-7.87-.111.984-.231 1.727-.272 2.474-.412 7.423-1.119 14.8-3.298 21.958-.718 2.359-1.779 4.484-3.813 5.998l-1.571.192z"/><path fill-rule="evenodd" clip-rule="evenodd" fill="#F4F4F4" d="M310.333 427.334c-1.186-.219-2.141 3.127-2.122 4.333.025 1.551 1.122 8.627 5.788 11.334.743.431 3.028 2.726 2.945 1.872-.361-3.697 2.389-6.539 2.389-6.539s4.562 14.181 6.667 18.667c1.052 2.243 4.2 7.1 6.667 7.333 1.937.184 4.792-3.596 5.667-5.333 2.835-5.639 2.968-25.418 3.5-25.001 1.563 1.225.666 7.793.666 7.793s6.584-5.543 7.552-14.459c.235-2.169-1.667-6.039-3.801-5.584-2.438.52-2.25 7.584-2.25 7.584s-2.488-2.712-3.061-2c-2.896 3.598-2.855 35.425-7.772 35.425-4.417 0-13.5-28.021-13.5-28.021-1.602 0-1.632 5.159-3.183 5.557-1.891.484-5.122-3.639-5.484-5.557-.346-1.827 1.16-7.066-.668-7.404z"/></svg>