<svg xmlns="http://www.w3.org/2000/svg" viewBox="0 0 992 350"><style>.st0{fill:#fff}.st3{fill:#293142}.st5{fill:#d5c09f}.st6{fill:#dde0e3}.st8{fill:#6d6559}.st10{fill:#e2a635}.st11{fill:#f2d648}.st12{fill:#e8be3d}.st16{fill:#e0c03d}.st18{fill:#355682}</style><path class="st0" d="M0 0h992v350H0z"/><path d="M572.2 248H419.8c-2.8 0-5-2.2-5-5v-40c0-2.8 2.2-5 5-5h152.5c2.8 0 5 2.2 5 5v40c-.1 2.7-2.3 5-5.1 5z" opacity=".1"/><path class="st0" d="M446.1 228.8v7.4h-3.3v-24.6h9.9c2.4 0 4.4.9 6.1 2.5 1.7 1.7 2.5 3.7 2.5 6.1 0 2-.6 3.8-1.9 5.4-1.2 1.5-2.8 2.5-4.6 3l6.1 7.7h-4.2l-5.8-7.4h-4.8zm6.6-14h-6.6v10.7h6.6c1.5 0 2.8-.5 3.8-1.6 1.1-1.1 1.6-2.3 1.6-3.8s-.5-2.7-1.6-3.8c-1.1-1-2.4-1.5-3.8-1.5zm25.9-3.3v3.3h-10.7v7.4h7.4v3.3h-7.4v7.4h10.7v3.3h-14v-24.6h14zm9.7 18.1l-2.9 6.6h-3.6l10.7-24.6h3.6l10.7 24.6h-3.6l-2.8-6.6h-12.1zm10.6-3.3l-4.6-10.6-4.6 10.6h9.2zm13.8 3.9c1.7 1.8 3.9 2.7 6.4 2.7 2.5 0 4.6-.9 6.4-2.7l2.3 2.3c-2.4 2.4-5.3 3.6-8.7 3.6-3.4 0-6.3-1.2-8.7-3.6-2.4-2.4-3.6-5.3-3.6-8.7 0-3.4 1.2-6.3 3.6-8.7s5.3-3.6 8.7-3.6c3.4 0 6.3 1.2 8.7 3.6l-2.3 2.3c-1.7-1.8-3.9-2.7-6.4-2.7-2.5 0-4.6.9-6.4 2.7-1.8 1.7-2.7 3.9-2.7 6.4.1 2.5.9 4.7 2.7 6.4zm36.5-18.7v3.3h-7.4v21.4h-3.3v-21.4h-7.4v-3.3h18.1z"/><path d="M392.2 307.1l3.9-2.8c1.4 1.4 2.9 2.1 4.6 2 1.7 0 3.2-1 4.5-2.6.7-1.3.8-2.7.4-4.2-.4-1.4-1.3-2.4-2.6-3.1l-5.6-3.1c-2.5-1.3-4.2-3.3-5-6-.8-2.6-.5-5.2.8-7.8 1.7-3.2 4.5-4.9 8.3-5.2 3.8-.2 6.8 1.1 9 4l-3.9 2.8c-1.4-1.4-2.9-2.1-4.6-2-1.7 0-3.2 1-4.5 2.6-.7 1.3-.8 2.7-.4 4.1.4 1.4 1.3 2.5 2.6 3.2l5.6 3.1c2.5 1.3 4.2 3.3 5 6 .8 2.6.5 5.2-.8 7.8-1.8 3.2-4.5 4.9-8.3 5.2-3.8.3-6.8-1-9-4zm22.5 0l3.9-2.8c1.4 1.4 2.9 2.1 4.6 2 1.7 0 3.2-1 4.5-2.6.7-1.3.8-2.7.4-4.2-.4-1.4-1.3-2.4-2.6-3.1l-5.6-3.1c-2.5-1.3-4.2-3.3-5-6-.8-2.6-.5-5.2.8-7.8 1.7-3.2 4.5-4.9 8.3-5.2 3.8-.2 6.8 1.1 9 4l-3.9 2.8c-1.4-1.4-2.9-2.1-4.6-2-1.7 0-3.2 1-4.5 2.6-.7 1.3-.8 2.7-.4 4.1.4 1.4 1.3 2.5 2.6 3.2l5.6 3.1c2.5 1.3 4.2 3.3 5 6 .8 2.6.5 5.2-.8 7.8-1.8 3.2-4.5 4.9-8.3 5.2-3.8.3-6.8-1-9-4zm28.1-7.2v10.8H438v-36h14.4c3.5 0 6.5 1.2 8.9 3.7s3.7 5.4 3.7 8.9c0 2.9-.9 5.5-2.7 7.8-1.8 2.3-4 3.7-6.8 4.4l8.9 11.2h-6.2l-8.5-10.8h-6.9zm9.6-20.4h-9.6v15.6h9.6c2.2 0 4-.8 5.5-2.3 1.5-1.5 2.3-3.4 2.3-5.5s-.8-4-2.3-5.5c-1.4-1.5-3.3-2.3-5.5-2.3zm45 15.6v4.8h-15.6v-4.8h15.6zm17 12l3.9-2.8c1.4 1.4 2.9 2.1 4.6 2 1.7 0 3.2-1 4.5-2.6.7-1.3.8-2.7.4-4.2-.4-1.4-1.3-2.4-2.6-3.1l-5.6-3.1c-2.5-1.3-4.2-3.3-5-6-.8-2.6-.5-5.2.8-7.8 1.7-3.2 4.5-4.9 8.3-5.2 3.8-.2 6.8 1.1 9 4l-3.9 2.8c-1.4-1.4-2.9-2.1-4.6-2-1.7 0-3.2 1-4.5 2.6-.7 1.3-.8 2.7-.4 4.1.4 1.4 1.3 2.5 2.6 3.2l5.6 3.1c2.5 1.3 4.2 3.3 5 6 .8 2.6.5 5.2-.8 7.8-1.8 3.2-4.5 4.9-8.3 5.2-3.7.3-6.7-1-9-4zm37.8-7.2h-9.6v10.8h-4.8v-36h14.4c3.5 0 6.5 1.2 8.9 3.7 2.4 2.4 3.7 5.4 3.7 8.9s-1.2 6.5-3.7 8.9c-2.5 2.5-5.4 3.7-8.9 3.7zm0-20.4h-9.6v15.6h9.6c2.2 0 4-.8 5.5-2.3 1.5-1.5 2.3-3.4 2.3-5.5s-.8-4-2.3-5.5c-1.5-1.5-3.4-2.3-5.5-2.3zm20.8 21.6l-4.2 9.6h-5.2l15.6-36h5.2l15.6 36h-5.2l-4.1-9.6H573zm15.5-4.8l-6.7-15.6-6.7 15.6h13.4z" fill="#606060"/><text transform="translate(493.295 -158.252)" font-family="Stark" font-size="48">HEXO</text><text transform="translate(670.295 -158.252)" font-family="Stark" font-size="48">RESOURCES</text><path class="st3" d="M434.4 176l49.3 4.6h2.4l65.1-2.3-6.6-42.8c-.9-4.5-4-8.3-8.3-10L507.2 114l-22.3-4.3-22.3 4.3-29.1 11.4c-4.3 1.7-7.5 5.5-8.3 10l-1.9 26.1"/><path fill="#c3ab8a" d="M484.9 96.3h-20.2v9.3l20.2 11.4 20.3-11.4v-9.3z"/><path class="st5" d="M457.2 82.4h-2.9c-5.9 0-10.7-4.8-10.7-10.7 0-5.9 4.8-10.7 10.7-10.7h2.9v21.4zm54.9 0h2.9c5.9 0 10.7-4.8 10.7-10.7 0-5.9-4.8-10.7-10.7-10.7h-2.9v21.4z"/><path class="st5" d="M510.9 25.8c0-1.8-1.5-3.3-3.3-3.3h-45.4c-1.8 0-3.3 1.5-3.3 3.3 0 3.2-1.3 24.1-3.6 26.4l-5 17.5v2.7c0 19.1 15.5 34.6 34.6 34.6s34.6-15.5 34.6-34.6v-2.7l-5-17.5c-2.3-2.3-3.6-23.2-3.6-26.4z"/><path class="st6" d="M484.9 12.1c-11.9 0-25.1 1.3-31.3 10.4-3.7 5.5-3.3 17-3 24.1l1.2 23 3.5-17.5c2.3-2.3 2.1-6.9 2.1-10.1 0-1.8 2.9-11.5 4.7-11.5 0 0 7.5-8.1 22.7-8.4 13.9-.3 22.7 8.4 22.7 8.4 1.8 0 4 9.4 4 11.2 0 3.2.6 8 2.8 10.3l3 17.4 2-23c0-6.6 2-19.1-1.2-24.4-5.9-9.6-20.7-9.9-33.2-9.9z"/><path d="M483 81.6c3.3 0 7.8-2 7.8-4.4l-4.6-7.7c0 1 1.5 5.2.7 7.6-.8 3.2-5.7 4.5-3.9 4.5z" fill="#b79c79"/><circle class="st8" cx="467.8" cy="63" r="3.2"/><path class="st8" d="M473.6 53.6h-11.5c-.8 0-1.5.7-1.5 1.5s.7 1.5 1.5 1.5h11.5c.8 0 1.5-.7 1.5-1.5-.1-.9-.7-1.5-1.5-1.5z"/><circle class="st8" cx="502" cy="63" r="3.2"/><path class="st8" d="M496.3 53.6h11.5c.8 0 1.5.7 1.5 1.5s-.7 1.5-1.5 1.5h-11.5c-.8 0-1.5-.7-1.5-1.5 0-.9.6-1.5 1.5-1.5z"/><path d="M494 90.4h-17.8c-.5 0-1-.4-1-1s.4-1 1-1H494c.5 0 1 .4 1 1s-.5 1-1 1z" fill="#886952"/><path class="st3" d="M479.4 108.6l-15.1-3.2c-.9-.2-1.7.5-1.7 1.4v7.3l22.3 6.9v-5.5c0-3.4-2.3-6.3-5.5-6.9zm11 0l15.1-3.2c.9-.2 1.7.5 1.7 1.4v7.3l-22.3 6.9v-5.5c0-3.4 2.3-6.3 5.5-6.9z"/><path class="st10" d="M511.5 113.9c2.5-.1 4.7.9 5.5 2.3h.3c2.5-.1 4.7.9 5.5 2.3h.3c2.5-.1 4.7.9 5.5 2.3h.3c3.1-.1 5.7 1.4 5.8 3.5s-2.4 3.9-5.5 4c-2.5.1-4.7-.9-5.5-2.3h-.3c-2.5.1-4.7-.9-5.5-2.3h-.3c-2.5.1-4.7-.9-5.5-2.3h-.3c-3.1.1-5.7-1.4-5.8-3.5-.1-2.1 2.3-3.9 5.5-4z"/><path class="st10" d="M522.7 118.2c2.5-.1 4.7.9 5.5 2.3h.3c2.5-.1 4.7.9 5.5 2.3h.3c2.5-.1 4.7.9 5.5 2.3h.3c3.1-.1 5.7 1.4 5.8 3.5.1 2.1-2.4 3.9-5.5 4-2.5.1-4.7-.9-5.5-2.3h-.3c-2.5.1-4.7-.9-5.5-2.3h-.3c-2.5.1-4.7-.9-5.5-2.3h-.3c-3.1.1-5.7-1.4-5.8-3.5s2.4-3.8 5.5-4z"/><path class="st11" d="M512 112.9c2.5-.1 4.7.9 5.5 2.3h.3c2.5-.1 4.7.9 5.5 2.3h.3c2.5-.1 4.7.9 5.5 2.3h.3c3.1-.1 5.7 1.4 5.8 3.5.1 2.1-2.4 3.9-5.5 4-2.5.1-4.7-.9-5.5-2.3h-.3c-2.5.1-4.7-.9-5.5-2.3h-.3c-2.5.1-4.7-.9-5.5-2.3h-.3c-3.1.1-5.7-1.4-5.8-3.5-.1-2 2.3-3.8 5.5-4z"/><path class="st11" d="M524 118c2.5-.1 4.7.9 5.5 2.3h.3c2.5-.1 4.7.9 5.5 2.3h.3c2.5-.1 4.7.9 5.5 2.3h.3c3.1-.1 5.7 1.4 5.8 3.5.1 2.1-2.4 3.9-5.5 4-2.5.1-4.7-.9-5.5-2.3h-.3c-2.5.1-4.7-.9-5.5-2.3h-.3c-2.5.1-4.7-.9-5.5-2.3h-.3c-3.1.1-5.7-1.4-5.8-3.5-.1-2 2.3-3.8 5.5-4z"/><path class="st12" d="M529.2 125.1h.3c1.1-.1 2.1-.4 2.8-.9.4-.3.7-.6.6-.9 0-.5-1.2-1.4-3.2-1.4h-.3l-1.6.1-.7-1.2c-.3-.6-1.6-1.2-3.2-1.2h-.3l-1.6.1-.7-1.2c-.3-.6-1.6-1.2-3.2-1.2h-.3l-1.6.1-.7-1.2c-.3-.6-1.6-1.2-3.2-1.2h-.3c-2.1.1-3.4 1.2-3.4 1.7s1.2 1.4 3.2 1.4h.3l1.6-.1.7 1.2c.3.6 1.6 1.2 3.2 1.2h.3l1.6-.1.7 1.2c.3.6 1.6 1.2 3.2 1.2h.3l1.6-.1.7 1.2c.4.7 1.6 1.3 3.2 1.3z"/><path class="st12" d="M540.9 129.5h.3c1.1-.1 2.1-.4 2.8-.9.4-.3.7-.6.6-.9 0-.5-1.2-1.4-3.2-1.4h-.3l-1.6.1-.7-1.2c-.3-.6-1.6-1.2-3.2-1.2h-.3l-1.6.1-.7-1.1c-.3-.6-1.6-1.2-3.2-1.2h-.3l-1.6.1-.7-1.2c-.3-.6-1.6-1.2-3.2-1.2h-.3c-2.1.1-3.4 1.2-3.4 1.7s1.2 1.4 3.2 1.4h.3l1.6-.1.7 1.2c.3.6 1.6 1.2 3.2 1.2h.3l1.6-.1.7 1.2c.3.6 1.6 1.2 3.2 1.2h.3l1.6-.1.7 1.2c.4.6 1.6 1.2 3.2 1.2z"/><circle class="st11" cx="484.9" cy="130.4" r="2.3"/><circle class="st11" cx="484.9" cy="145.8" r="2.3"/><circle class="st11" cx="484.9" cy="161.2" r="2.3"/><circle class="st11" cx="484.9" cy="176.6" r="2.3"/><g><path fill="#6f9f4a" d="M508.1 146.8v12.8h2.9v-12.8z"/><path fill="#6d9d4a" d="M518.5 146.8h-2.9v12.8h2.9z"/><path fill="#eae26e" d="M511 146.8h4.7v12.8H511z"/><path class="st16" d="M513.2 162.3c-2.4 0-4.3 1.9-4.3 4.3s1.9 4.3 4.3 4.3 4.3-1.9 4.3-4.3c-.1-2.4-2-4.3-4.3-4.3zm0 7.6c-1.9 0-3.4-1.5-3.4-3.4s1.5-3.4 3.4-3.4 3.4 1.5 3.4 3.4-1.6 3.4-3.4 3.4z"/><path class="st11" d="M513.3 161.5l1.2 3.7 3.7-.1-3 2.4 1.2 3.4-3.1-2.2-3 2.2 1.2-3.4-3.1-2.4 3.7.1zm5.4-2.7v2.3h-10.8v-2.3h-.3v2.7H519v-2.7z"/><path class="st16" d="M518.7 150.2v2.4h-10.8v-2.4h-.3v2.7H519v-2.7z"/><path class="st16" d="M518.7 152.9v-2.3h-10.8v2.3h-.3v-2.7H519v2.7z"/><g><path class="st11" d="M509.5 150.5l.3.8h.8l-.7.5.3.8-.7-.5-.7.5.3-.8-.7-.5h.8zm3.8 0l.3.8h.8l-.7.5.3.8-.7-.5-.6.5.2-.8-.7-.5h.9zm3.8 0l.3.8h.8l-.7.5.3.8-.7-.5-.6.5.2-.8-.6-.5h.8z"/></g></g><path d="M467.6 180.9c-5.5-7-9.6-11.5-13.1-19.7-1.5-3.4-2.8-6.9-5.2-9.9-.2-.6-.2-1.3-.7-1.7-9.9-6.2-11.5-15.2-14.2-23.3 4.5-5.6 12.3-4.8 18.3-8.5 1.4-.8 1.4-1.2 2.8-2.1 1.1-.6 1.7-.9 2.6 0 4.6 6.5 11.3 12.6 15.5 19.3 3.2 5.1 6.1 10.3 8.8 15.7 1.3 2.5 2.8 4.9 4.2 7.3 4.3 7 9.1 13.7 14.2 20.2.5.7 1.2 1.2 1.3 2.1l-34.5.6z" fill="#79a8d0"/><g><path class="st10" d="M458.7 113.5c-2.5-.1-4.7.9-5.5 2.3h-.3c-2.5-.1-4.7.9-5.5 2.3h-.3c-2.5-.1-4.7.9-5.5 2.3h-.3c-3.1-.1-5.7 1.4-5.8 3.5-.1 2.1 2.4 3.9 5.5 4 2.5.1 4.7-.9 5.5-2.3h.3c2.5.1 4.7-.9 5.5-2.3h.3c2.5.1 4.7-.9 5.5-2.3h.3c3.1.1 5.7-1.4 5.8-3.5.1-2.1-2.3-3.9-5.5-4z"/><path class="st10" d="M447.5 117.9c-2.5-.1-4.7.9-5.5 2.3h-.3c-2.5-.1-4.7.9-5.5 2.3h-.3c-2.5-.1-4.7.9-5.5 2.3h-.3c-3.1-.1-5.7 1.4-5.8 3.5-.1 2.1 2.4 3.9 5.5 4 2.5.1 4.7-.9 5.5-2.3h.3c2.5.1 4.7-.9 5.5-2.3h.3c2.5.1 4.7-.9 5.5-2.3h.3c3.1.1 5.7-1.4 5.8-3.5 0-2.1-2.4-3.9-5.5-4z"/><path class="st11" d="M458.2 112.6c-2.5-.1-4.7.9-5.5 2.3h-.3c-2.5-.1-4.7.9-5.5 2.3h-.3c-2.5-.1-4.7.9-5.5 2.3h-.3c-3.1-.1-5.7 1.4-5.8 3.5-.1 2.1 2.4 3.9 5.5 4 2.5.1 4.7-.9 5.5-2.3h.3c2.5.1 4.7-.9 5.5-2.3h.3c2.5.1 4.7-.9 5.5-2.3h.3c3.1.1 5.7-1.4 5.8-3.5.1-2.1-2.3-3.9-5.5-4z"/><path class="st11" d="M446.6 117.3c-2.5-.1-4.7.9-5.5 2.3h-.3c-2.5-.1-4.7.9-5.5 2.3h-.3c-2.5-.1-4.7.9-5.5 2.3h-.3c-3.1-.1-5.7 1.4-5.8 3.5-.1 2.1 2.4 3.9 5.5 4 2.5.1 4.7-.9 5.5-2.3h.3c2.5.1 4.7-.9 5.5-2.3h.3c2.5.1 4.7-.9 5.5-2.3h.3c3.1.1 5.7-1.4 5.8-3.5.1-2-2.4-3.8-5.5-4z"/><path class="st12" d="M441 124.8h-.3c-1.1-.1-2.1-.4-2.8-.9-.4-.3-.7-.6-.6-.9 0-.5 1.2-1.4 3.2-1.4h.3l1.6.1.7-1.2c.3-.6 1.6-1.2 3.2-1.2h.3l1.6.1.7-1.2c.3-.6 1.6-1.2 3.2-1.2h.3l1.6.1.7-1.2c.3-.6 1.6-1.2 3.2-1.2h.3c2.1.1 3.4 1.2 3.4 1.7s-1.2 1.4-3.2 1.4h-.3l-1.6-.1-.7 1.2c-.3.6-1.6 1.2-3.2 1.2h-.3l-1.6-.1-.7 1.2c-.3.6-1.6 1.2-3.2 1.2h-.3l-1.6-.1-.7 1.2c-.4.6-1.6 1.3-3.2 1.3z"/><path class="st12" d="M429.3 129.1h-.3c-1.1-.1-2.1-.4-2.8-.9-.4-.3-.7-.6-.6-.9 0-.5 1.2-1.4 3.2-1.4h.3l1.6.1.7-1.2c.3-.6 1.6-1.2 3.2-1.2h.3l1.6.1.7-1.2c.3-.6 1.6-1.2 3.2-1.2h.3l1.6.1.7-1.2c.3-.6 1.6-1.2 3.2-1.2h.3c2.1.1 3.4 1.2 3.4 1.7s-1.2 1.4-3.2 1.4h-.3l-1.6-.1-.7 1.2c-.3.6-1.6 1.2-3.2 1.2h-.3l-1.6-.1-.7 1.2c-.3.6-1.6 1.2-3.2 1.2h-.3l-1.6-.1-.7 1.2c-.4.7-1.6 1.3-3.2 1.3z"/></g><g><path class="st11" d="M487.7 111.4c1.1-1.3 6.9-1.6 12-3 3.8-1.1 6.9-2.5 6.9-2.5s0 1-.2 1.3c-.3.4-2.1.9-2.1.9s0 .9-.2 1.1c-.3.5-2 1.1-2 1.1s0 .8-.1.9c-.3.4-1.7.8-1.7.8s-.6.9-.9 1c-.3.2-1.5.4-1.5.4s0 .7-.1.9c-.2.2-1.2.3-1.2.3s.2.6.1.8c-.2.3-1.1.2-1.4.3-.2.1-.8.2-1 .4-.3.4-.3 2-.3 2l-7.8.7c.1 0 .2-5.9 1.5-7.4z"/><path class="st11" d="M495 118.5s1.2-1.3 1.8-1.3c.2 0 .6.5.8.6.3 0 1 0 1.1-.3.1-.3-.9-.9-.9-.9s1.9-.1 2.5-.1c.5 0 1.4.2 1.9.1.6-.1 1.7-.3 1.6-.9-.2-.9-3.1-.7-3.1-.7s1.2-.2 1.6-.2c.5 0 1.6.1 2.1-.1.6-.2 1.8-1.2 2.2-1.7.1-.2.3-.6.1-.8-.2-.2-1 .1-1.3.2-.6.3-2.5 1.2-2.5 1.2s.2-.6.3-.7c.5-.6 2-1.2 2.3-1.9.2-.4.5-1.4.1-1.7-.2-.2-.7 0-.9.1-.9.6-2.3 2.3-3.1 3.1-.1.1-.5.6-.5.6s.1-.9-.2-1c-.3-.1-.8.5-.9.8-.1.3-.1 1.4-.1 1.4s-.4-1.1-.7-1c-.6.1-.4 1.6-.7 2.1-.1.2-.5.5-.5.5s.2-1.1 0-1.2c-.2-.1-.6.3-.7.4-.2.3-.3 1.2-.3 1.2s-.5-.5-.7-.4c-.3.1-.3 1-.4 1.3-.1.3-.8.5-.9.8-.2.1 0 .5 0 .5zM482.2 111.7c-1.1-1.3-6.9-1.6-12-3-3.8-1.1-6.9-2.5-6.9-2.5s0 1 .2 1.3c.3.4 2.1.9 2.1.9s0 .9.2 1.1c.3.5 2 1.1 2 1.1s0 .8.1.9c.3.4 1.7.8 1.7.8s.6.9.9 1c.3.2 1.5.4 1.5.4s0 .7.1.9c.2.2 1.2.3 1.2.3s-.2.6-.1.8c.2.3 1.1.2 1.4.3.2.1.8.2 1 .4.3.4.3 2 .3 2l7.8.7c-.1 0-.2-6-1.5-7.4z"/><path class="st11" d="M475 118.7s-1.2-1.3-1.8-1.3c-.2 0-.6.5-.8.6-.3 0-1 0-1.1-.3-.1-.3.9-.9.9-.9s-1.9-.1-2.5-.1c-.5 0-1.4.2-1.9.1-.6-.1-1.7-.3-1.6-.9.2-.9 3.1-.7 3.1-.7s-1.2-.2-1.6-.2c-.5 0-1.6.1-2.1-.1-.6-.2-1.8-1.2-2.2-1.7-.1-.2-.3-.6-.1-.8.2-.2 1 .1 1.3.2.6.3 2.5 1.2 2.5 1.2s-.2-.6-.3-.7c-.5-.6-2-1.2-2.3-1.9-.2-.4-.5-1.4-.1-1.7.2-.2.7 0 .9.1.9.6 2.3 2.3 3.1 3.1.1.1.5.6.5.6s-.1-.9.2-1c.3-.1.8.5.9.8.1.3.1 1.4.1 1.4s.4-1.1.7-1c.6.1.4 1.6.7 2.1.1.2.5.5.5.5s-.2-1.1 0-1.2c.2-.1.6.3.7.4.2.3.3 1.2.3 1.2s.5-.5.7-.4c.3.1.3 1 .4 1.3.1.3.8.5.9.8.1.1 0 .5 0 .5z"/></g><g><path class="st6" d="M529.6 44.6c22 12.8 36.9 36.6 36.9 63.9 0 40.8-33.1 73.9-73.9 73.9s-73.9-33.1-73.9-73.9c0-13.3 3.5-25.8 9.7-36.6-9.9 13.7-15.7 30.5-15.7 48.6 0 45.9 37.2 83.1 83.1 83.1s83.1-37.2 83.1-83.1c.1-33.8-20.2-62.9-49.3-75.9z"/><path class="st18" d="M527.3 42.3c22 12.8 36.9 36.6 36.9 63.9 0 40.8-33.1 73.9-73.9 73.9s-73.9-33.1-73.9-73.9c0-13.3 3.5-25.8 9.7-36.6-9.9 13.7-15.7 30.5-15.7 48.6 0 45.9 37.2 83.1 83.1 83.1s83.1-37.2 83.1-83.1c0-33.8-20.2-62.9-49.3-75.9zM426.8 58.1c.1-.2.2-.4 0-.6-3.1-3.3-6.1-6.5-9.2-9.8l-.3-.3c-3.9 4.8-7 10-9.4 15.5l1.2-37.8c12.6.4 25.3.8 37.8 1.2-5.6 2-11 4.8-16.1 8.4.2.2.3.3.4.5l9 9.6c.3.3-4.1-.7-7.2 6.5-3.7 8.1-6.2 6.8-6.2 6.8z"/><path class="st18" d="M421.7 170.5c8 3.7 3.3 6.5 3.1 6.6-3.3 2-6.7 3.9-10.1 5.9-.1 0-.1.1-.3.2 3.3 4.2 7.1 7.9 11.3 10.9-10.5-2.8-21.1-5.6-31.7-8.3 2.8-10.5 5.6-21.1 8.3-31.7.6 5.1 1.9 10.2 4 15.2.2-.1.3-.2.5-.2 3.3-1.9 10.2-6.1 10-6.4.1 0-1.2 5 4.9 7.8zm148.5-97.1c-7.9-3.8-3.2-6.5-2.9-6.6 3.4-1.9 6.7-3.8 10.1-5.7.1 0 .1-.1.3-.2-3.2-4.2-6.9-7.9-11.1-11.1 10.4 2.9 20.9 5.9 31.4 8.8-2.9 10.4-5.9 20.9-8.8 31.4-.5-5.1-1.7-10.2-3.7-15.2-.2.1-.3.2-.5.2-3.3 1.8-10.2 5.9-10.1 6.2 0 0 1.3-5-4.7-7.8zm-21.1 112c-.2.3 4.8 5.6 7.1 8l.3.3c3-3.8 5.4-7.9 7.2-12.2-.2 9.8-.4 19.7-.7 29.5-9.8-.2-19.7-.4-29.5-.7 4.4-1.6 8.6-3.8 12.5-6.7-.1-.1-.1-.2-.2-.2-2.4-2.5-4.8-5.1-7.2-7.6-.2-.2-3.6-3.8 4.3-5 6.1-.8 6.2-5.4 6.2-5.4z"/><path d="M426.8 57.5c-3.1-3.3-6.1-6.5-9.2-9.8l-.3-.3c-3.9 4.8-7 10-9.4 15.5l1.2-37.8c12.6.4 1.8 19.8 10.2 18.9.1.2 7.7 13.7 7.5 13.5zm-2.4 120.1c-3.3 1.8-6.5 3.7-9.8 5.5-.1 0-.1.1-.3.2 3.1 4.1 6.6 7.6 10.6 10.6-10-2.8-20.2-5.6-30.2-8.4 2.9-10 16.3 2.4 17.3-4.5.2-.1 12.7-3.6 12.4-3.4zm124.1 8.1c2.7 2.6 5.3 5.3 7.9 7.9.1.1.1.1.3.2 3.1-4.1 5.5-8.5 7.3-13.1.1 10.4.1 20.9.2 31.4-10.4-.1-2.1-16.4-9-15.4-.1-.2-6.9-11.2-6.7-11zm19.5-119c3.3-1.8 6.5-3.6 9.8-5.5.1 0 .1-.1.3-.2-3.1-4.1-6.6-7.6-10.6-10.6 10 2.8 20.2 5.6 30.2 8.4-2.9 10-16.3-2.4-17.3 4.4-.2.2-12.7 3.7-12.4 3.5z" fill="#80a8cc"/></g></svg>