<svg xmlns="http://www.w3.org/2000/svg" viewBox="0 0 992 350"><style>.st6{fill:#252833}.st7{fill:#fff}.st8{fill:#333645}</style><radialGradient id="SVGID_1_" cx="496" cy="175" r="383.805" gradientTransform="matrix(1 0 0 .7939 0 36.076)" gradientUnits="userSpaceOnUse"><stop offset=".233" stop-color="#94007c"/><stop offset="1" stop-color="#5a006a"/></radialGradient><path fill="url(#SVGID_1_)" d="M0 0h992v350H0z"/><radialGradient id="SVGID_2_" cx="496.499" cy="112.516" r="75.818" gradientUnits="userSpaceOnUse"><stop offset=".233" stop-color="#94007c"/><stop offset="1" stop-color="#5a006a"/></radialGradient><path d="M569.1 118.2l-61.3 66.3c-4.5 4.8-12.1 5.1-17 .7l-66.3-61.3c-4.8-4.5-5.1-12.1-.7-17l61.3-66.3c4.5-4.8 12.1-5.1 17-.7l66.3 61.3c4.9 4.5 5.2 12.1.7 17z" fill="url(#SVGID_2_)"/><radialGradient id="SVGID_3_" cx="428.754" cy="115.088" r="4.586" gradientUnits="userSpaceOnUse"><stop offset=".233" stop-color="#94007c"/><stop offset="1" stop-color="#5a006a"/></radialGradient><circle cx="428.8" cy="115.1" r="4.6" fill="url(#SVGID_3_)"/><radialGradient id="SVGID_4_" cx="565.429" cy="110.501" r="4.586" gradientUnits="userSpaceOnUse"><stop offset=".233" stop-color="#94007c"/><stop offset="1" stop-color="#5a006a"/></radialGradient><circle cx="565.4" cy="110.5" r="4.6" fill="url(#SVGID_4_)"/><radialGradient id="SVGID_5_" cx="493.269" cy="44.151" r="4.586" gradientUnits="userSpaceOnUse"><stop offset=".233" stop-color="#94007c"/><stop offset="1" stop-color="#5a006a"/></radialGradient><circle cx="493.3" cy="44.2" r="4.6" fill="url(#SVGID_5_)"/><radialGradient id="SVGID_6_" cx="499.385" cy="180.826" r="4.586" gradientUnits="userSpaceOnUse"><stop offset=".233" stop-color="#94007c"/><stop offset="1" stop-color="#5a006a"/></radialGradient><circle cx="499.4" cy="180.8" r="4.6" fill="url(#SVGID_6_)"/><path class="st6" d="M488 10c-.1 0-.1 0-.3.1.2.2.3.3.5.4 1.5 1.4 2.9 2.9 4.1 4.6.8 1.1 1.2 2.2 1.1 3.6 0 1.1-.3 2.1-1 3-.5.6-1 1.2-1.5 1.7-.6.7-1.5 1.1-2.4 1.4-1.6.5-3.1.4-4.5-.7-1.2-.9-2.5-1.9-3.7-2.8-.5-.4-1-.9-1.6-1.4 0 .6 0 1.2.1 1.7.4 2.9 1.9 5.3 4.4 6.9 3.2 2.1 6.5 2.3 10 .8.3-.1.5-.1.8.1 3.2 2.9 6.4 5.8 9.7 8.7 3.9 3.5 7.8 7 11.6 10.5 3.9 3.5 11.4 10.4 15.3 13.9.2.2.3.3.2.6-.2 1-.2 2 0 2.9.6 2.8 2.3 4.8 5 5.7 2.8.9 5.3.4 7.5-1.6 3.2-3 3.2-8.1-.1-11-2.1-1.9-4.6-2.4-7.3-1.6-.3.1-.5 0-.7-.2-3-2.7-9.7-8.7-12.7-11.5-5.2-4.7-10.5-9.5-15.7-14.2-2.7-2.5-5.5-4.9-8.2-7.4-.2-.2-.3-.4-.2-.7.9-2.5.8-5.1-.3-7.5-1.6-3.9-5.8-6.4-10.1-6zm54.1 54.4c.1 2.2-1.6 4-3.7 4.1-2.1.1-3.9-1.6-4-3.7-.1-2.1 1.6-4 3.7-4.1 2 0 3.9 1.6 4 3.7z" id="aXo4f3.tif_3_"/><path class="st6" d="M502.9 210c.1 0 .1 0 .3-.1-.2-.2-.3-.3-.5-.4-1.5-1.4-2.9-2.9-4.1-4.6-.8-1.1-1.2-2.2-1.1-3.6 0-1.1.3-2.1 1-3 .5-.6 1-1.2 1.5-1.7.6-.7 1.5-1.1 2.4-1.4 1.6-.5 3.1-.4 4.5.7 1.2.9 2.5 1.9 3.7 2.8.5.4 1 .9 1.6 1.4 0-.6 0-1.2-.1-1.7-.4-2.9-1.9-5.3-4.4-6.9-3.2-2.1-6.5-2.3-10-.8-.3.1-.5.1-.8-.1-3.2-2.9-6.4-5.8-9.7-8.7-3.9-3.5-7.8-7-11.6-10.5-3.9-3.5-13.1-11.7-17-15.2-.2-.2-.3-.3-.2-.6.2-1 .2-2 0-2.9-.6-2.8-2.3-4.8-5-5.7-2.8-.9-5.3-.4-7.5 1.6-3.2 3-3.2 8.1.1 11 2.1 1.9 4.6 2.4 7.3 1.6.3-.1.5 0 .7.2 3 2.7 11.3 10.1 14.3 12.8 5.2 4.7 10.5 9.5 15.7 14.2 2.7 2.5 5.5 4.9 8.2 7.4.2.2.3.4.2.7-.9 2.5-.8 5.1.3 7.5 1.7 3.9 5.9 6.4 10.2 6zm-55.8-55.8c-.1-2.2 1.6-4 3.7-4.1 2.1-.1 3.9 1.6 4 3.7.1 2.1-1.6 4-3.7 4.1-2 .1-3.9-1.6-4-3.7z" id="aXo4f3.tif_2_"/><path class="st7" d="M568.1 115.5l-61.3 66.3c-4.5 4.8-12.1 5.1-17 .7l-66.3-61.3c-4.8-4.5-5.1-12.1-.7-17l61.3-66.3c4.5-4.8 12.1-5.1 17-.7l66.3 61.3c4.9 4.5 5.2 12.2.7 17z"/><circle class="st8" cx="427.8" cy="112.4" r="4.6"/><circle class="st8" cx="564.4" cy="107.8" r="4.6"/><circle class="st8" cx="492.3" cy="41.5" r="4.6"/><circle class="st8" cx="498.4" cy="178.2" r="4.6"/><g><path class="st6" d="M537.7 164h-84.3c-6.6 0-12-5.4-12-12V67.7c0-6.6 5.4-12 12-12h84.3c6.6 0 12 5.4 12 12V152c0 6.6-5.4 12-12 12z"/><circle class="st8" cx="541.8" cy="155.2" r="4.7"/><circle class="st8" cx="450.1" cy="155.2" r="4.7"/><circle class="st8" cx="541.5" cy="63.5" r="4.7"/><circle class="st8" cx="449.8" cy="63.5" r="4.7"/><g><path class="st7" d="M447.4 84.1c1.3-.1 2.7-.3 4.2-.5 1.4-11.9 8-18.9 20.3-20.2v-4h6v12.9h-5.8c-.1-1.3-.1-2.6-.2-3.9-7.9-.8-15.8 7.1-15.3 15.3 1.2.1 2.5.2 3.9.3v6h-13.2c.1-2.1.1-4 .1-5.9zm0 41.9h13.2v5.7l-3.9.3c-.9 7.8 5.9 14.8 15.2 15.6v-4.1h6v12.8H472v-3.9c-12.3-1.4-19.1-8.1-20.4-20.5h-4.3c.1-2 .1-3.9.1-5.9zm0-31.8h13.2v6.3h-13.2v-6.3zm0 10.6h13.2v5.8h-13.2v-5.8zm0 10.6h13.2v5.8h-13.2v-5.8zm66.9 28h5.7c.1 1.4.2 2.7.3 4 8.4.3 16.3-7.7 15.2-15.5-1.2-.1-2.5-.1-3.9-.2v-5.6h12.9v5.6c-1.3.1-2.6.2-3.9.2-3 13.7-8 18.7-20.4 20.3v4h-5.9v-12.8zm5.7-75.2v4.1h-5.8V59.4h5.8c.1 1.3.1 2.6.2 4 12.2 1.2 18.4 8.5 20.4 20.2 1.2.1 2.5.2 4 .3v2.8c0 .9-.1 1.7-.2 2.9h-12.8V84c1.3-.1 2.5-.2 3.8-.3 1.9-6.4-6.7-16.3-15.4-15.5zm11.5 32.1v-5.8h12.9v5.8h-12.9zm.1 4.7h12.9v5.7h-12.9V105zm-.1 10.5h12.9v5.6h-12.9v-5.6zm-27.6-43.2V59.4h5.7c0 3.9.1 7.6-.1 11.4 0 .5-1 1.3-1.6 1.4-1.2.3-2.4.1-4 .1zm-5.1.2c-1.8-.1-3.4-.2-5.4-.3V59.4h5.4v13.1zm-16.1-13.1h5.6v12.9h-5.6V59.4zm10.6 84h5.6v12.9h-5.6v-12.9zm16.1 12.9h-5.7v-12.9h5.7v12.9zm-26.7-12.9h5.7v12.9h-5.7v-12.9z"/></g></g><g id="RlqliZ.tif_1_"><path class="st8" d="M520.4 141c-.7-1.2-1.1-2-1.5-2.7-3.3-5.8-10.8-7-15.9-2.6-1.5 1.3-12.8 1.7-14.3.5-6.4-5.2-13-3.8-16.9 3.4-.2.3-.4.6-1.1 1.6-.7-2.5-1.8-4.4-1.8-6.2 0-3.5.4-7.1 1.2-10.5 1-4.8 4.6-6.8 9.2-7.3 1.7-.2 3.5-.3 5.3-.5 2.1 5.2 6.7 5.7 11.3 5.8 5.6.1 9-1.9 10.6-5.8 2 .2 4 .3 6 .6 5.1.7 8.3 3.6 9 8.8.5 3.6.5 7.3.4 11 .1 1-.8 2.2-1.5 3.9zm-18.2-59.7c4.4 2.4 6.8 5.7 7.6 10.2.3 1.3.1 2.6 1.9 3.1.5.1 1.1 1.4 1 2-.1.6-.9 1.3-1.6 1.6-.5.3-1.3.1-2 .1H482c-.6 0-1.3.1-1.7-.1-.7-.4-1.6-1.1-1.8-1.8-.1-.6.6-1.8 1.1-1.9 1.6-.3 1.6-1.5 1.7-2.6.7-4.6 3.2-8 7.5-10.5.6 2.7 1.2 5.2 1.8 7.7.4 0 .7 0 1.1.1.2-.8.6-1.5.5-2.3-.2-1.9-.8-3.8-.9-5.7 0-.8.8-2.3 1.3-2.4 2-.3 4-.2 6 .1.5.1 1.3 1.5 1.2 2.2-.1 2-.7 4-1 6-.1.6.4 1.3.6 1.9.5-.5 1.4-.9 1.5-1.5.7-2.1 1-4 1.3-6.2z"/><path class="st8" d="M510.1 101.3c-1.2 6.1-3.6 11.3-8.2 15.1-4 3.3-8.4 3.3-12.4 0-4.7-3.9-7.1-9-8.2-15.1h28.8z"/></g><g><path d="M599.8 245.3H392.2c-2.8 0-5-2.2-5-5v-40c0-2.8 2.2-5 5-5h207.5c2.8 0 5 2.2 5 5v40c.1 2.8-2.2 5-4.9 5z" opacity=".1" fill="#fff"/><path class="st7" d="M417.2 225.1v7.4h-3.3v-24.6h9.9c2.4 0 4.4.9 6.1 2.5 1.7 1.7 2.5 3.7 2.5 6.1 0 2-.6 3.8-1.9 5.4-1.2 1.5-2.8 2.5-4.6 3l6.1 7.7h-4.2l-5.8-7.4h-4.8zm6.5-14h-6.6v10.7h6.6c1.5 0 2.8-.5 3.8-1.6 1.1-1.1 1.6-2.3 1.6-3.8s-.5-2.7-1.6-3.8c-1-.9-2.3-1.5-3.8-1.5zm25.9-3.3v3.3h-10.7v7.4h7.4v3.3h-7.4v7.4h10.7v3.3h-14v-24.6h14zM453 230l2.7-1.9c1 1 2 1.4 3.2 1.4 1.2 0 2.2-.7 3.1-1.8.5-.9.6-1.9.3-2.9s-.9-1.7-1.8-2.1l-3.8-2.1c-1.7-.9-2.9-2.3-3.4-4.1-.6-1.8-.4-3.6.6-5.3 1.2-2.2 3.1-3.4 5.7-3.6 2.6-.2 4.6.8 6.1 2.8l-2.7 1.9c-1-1-2-1.4-3.2-1.4-1.2 0-2.2.7-3.1 1.8-.5.9-.6 1.9-.3 2.8.3 1 .9 1.7 1.8 2.2l3.8 2.1c1.7.9 2.9 2.3 3.4 4.1.6 1.8.4 3.6-.6 5.3-1.2 2.2-3.1 3.4-5.7 3.5-2.5.2-4.5-.7-6.1-2.7zm26.9-22.2c3.4 0 6.3 1.2 8.7 3.6 2.4 2.4 3.6 5.3 3.6 8.7s-1.2 6.3-3.6 8.7c-2.4 2.4-5.3 3.6-8.7 3.6s-6.3-1.2-8.7-3.6c-2.4-2.4-3.6-5.3-3.6-8.7s1.2-6.3 3.6-8.7 5.4-3.6 8.7-3.6zm0 21.4c2.5 0 4.6-.9 6.4-2.7 1.7-1.7 2.6-3.9 2.6-6.4 0-2.5-.9-4.6-2.6-6.4-1.8-1.7-3.9-2.6-6.4-2.6-2.5 0-4.6.9-6.4 2.6-1.8 1.8-2.7 3.9-2.7 6.4 0 2.5.9 4.6 2.7 6.4 1.8 1.8 3.9 2.7 6.4 2.7zm18.9-21.4v15.6c0 1.6.6 3 1.7 4.1s2.5 1.7 4.1 1.7c1.6 0 3-.6 4.1-1.7 1.1-1.1 1.7-2.5 1.7-4.1v-15.6h3.3v15.6c0 2.5-.9 4.6-2.6 6.4-1.8 1.8-3.9 2.7-6.4 2.7-2.5 0-4.6-.9-6.4-2.7-1.8-1.7-2.7-3.9-2.7-6.4v-15.6h3.2zm21.4 17.3v7.4h-3.3v-24.6h9.9c2.4 0 4.4.9 6.1 2.5 1.7 1.7 2.5 3.7 2.5 6.1 0 2-.6 3.8-1.9 5.4-1.2 1.5-2.8 2.5-4.6 3l6.1 7.7h-4.2l-5.8-7.4h-4.8zm6.5-14h-6.6v10.7h6.6c1.5 0 2.8-.5 3.8-1.6 1.1-1.1 1.6-2.3 1.6-3.8s-.5-2.7-1.6-3.8c-1-.9-2.3-1.5-3.8-1.5zm17.9 15.4c1.7 1.8 3.9 2.7 6.4 2.7 2.5 0 4.6-.9 6.4-2.7l2.3 2.3c-2.4 2.4-5.3 3.6-8.7 3.6-3.4 0-6.3-1.2-8.7-3.6-2.4-2.4-3.6-5.3-3.6-8.7 0-3.4 1.2-6.3 3.6-8.7 2.4-2.4 5.3-3.6 8.7-3.6 3.4 0 6.3 1.2 8.7 3.6l-2.3 2.3c-1.7-1.8-3.9-2.7-6.4-2.7-2.5 0-4.6.9-6.4 2.7-1.8 1.7-2.7 3.9-2.7 6.4.1 2.6.9 4.7 2.7 6.4zm32.4-18.7v3.3h-10.7v7.4h7.4v3.3h-7.4v7.4H577v3.3h-14v-24.6h14z"/></g><g><path d="M359.2 272.1h5.2l-15.6 36h-5.2l-5.2-12-5.2 12H328l-15.6-36h5.2l13 30 5.2-11.9-7.8-18h5.2l13 30 13-30.1zm10.5 26.4l-4.2 9.6h-5.2l15.6-36h5.2l15.6 36h-5.2l-4.1-9.6h-17.7zm15.6-4.8l-6.7-15.6-6.7 15.6h13.4zm20.6-21.6v36h-4.8v-36h4.8zm20.4 20.4v4.8h-15.6v-4.8h15.6zm14.2 6l-4.2 9.6h-5.2l15.6-36h5.2l15.6 36h-5.2l-4.1-9.6h-17.7zm15.5-4.8l-6.7-15.6-6.7 15.6H456zm21.1 3.6v10.8h-4.8v-36h14.4c3.5 0 6.5 1.2 8.9 3.7s3.7 5.4 3.7 8.9c0 2.9-.9 5.5-2.7 7.8-1.8 2.3-4 3.7-6.8 4.4l8.9 11.2h-6.2l-8.5-10.8h-6.9zm9.6-20.4h-9.6v15.6h9.6c2.2 0 4-.8 5.5-2.3 1.5-1.5 2.3-3.4 2.3-5.5s-.8-4-2.3-5.5c-1.5-1.6-3.4-2.3-5.5-2.3zm21.7-4.8v36h-4.8v-36h4.8zm13.8 26.4l-4.2 9.6h-5.2l15.6-36h5.2l15.6 36H544l-4.1-9.6h-17.7zm15.5-4.8l-6.7-15.6-6.7 15.6h13.4zm54.7-21.6v4.8h-10.8v31.2h-4.8v-31.2H566v-4.8h26.4zm8.2 26.4l-4.2 9.6h-5.2l15.6-36h5.2l15.6 36h-5.2l-4.1-9.6h-17.7zm15.5-4.8l-6.7-15.6-6.7 15.6h13.4zm30.7-21.6c2.8 0 5.3 1 7.2 3 2 2 3 4.4 3 7.2 0 3.1-1.2 5.7-3.6 7.8 2.4 2.1 3.6 4.7 3.6 7.8 0 2.8-1 5.2-3 7.2s-4.4 3-7.2 3h-14.4v-36h14.4zm0 15.6c1.5 0 2.8-.5 3.8-1.6 1.1-1.1 1.6-2.3 1.6-3.8s-.5-2.8-1.6-3.8c-1.1-1.1-2.4-1.6-3.8-1.6h-9.6v10.8h9.6zm-9.6 15.6h9.6c1.5 0 2.8-.5 3.8-1.6 1.1-1.1 1.6-2.3 1.6-3.8s-.5-2.8-1.6-3.8c-1.1-1.1-2.4-1.6-3.8-1.6h-9.6v10.8zm24.8 1.2l3.9-2.8c1.4 1.4 2.9 2.1 4.6 2 1.7 0 3.2-1 4.5-2.6.7-1.3.8-2.7.4-4.2-.4-1.4-1.3-2.4-2.6-3.1l-5.6-3.1c-2.5-1.3-4.2-3.3-5-6-.8-2.6-.5-5.2.8-7.8 1.7-3.2 4.5-4.9 8.3-5.2 3.8-.2 6.8 1.1 9 4l-3.9 2.8c-1.4-1.4-2.9-2.1-4.6-2-1.7 0-3.2 1-4.5 2.6-.7 1.3-.8 2.7-.4 4.1.4 1.4 1.3 2.5 2.6 3.2l5.6 3.1c2.5 1.3 4.2 3.3 5 6 .8 2.6.5 5.2-.8 7.8-1.8 3.2-4.5 4.9-8.3 5.2-3.7.2-6.7-1.1-9-4z" fill="#5a006a"/><path d="M358.2 271.1h5.2l-15.6 36h-5.2l-5.2-12-5.2 12H327l-15.6-36h5.2l13 30 5.2-11.9-7.8-18h5.2l13 30 13-30.1zm10.5 26.4l-4.2 9.6h-5.2l15.6-36h5.2l15.6 36h-5.2l-4.1-9.6h-17.7zm15.6-4.8l-6.7-15.6-6.7 15.6h13.4zm20.6-21.6v36h-4.8v-36h4.8zm20.4 20.4v4.8h-15.6v-4.8h15.6zm14.2 6l-4.2 9.6h-5.2l15.6-36h5.2l15.6 36h-5.2l-4.1-9.6h-17.7zm15.5-4.8l-6.7-15.6-6.7 15.6H455zm21.1 3.6v10.8h-4.8v-36h14.4c3.5 0 6.5 1.2 8.9 3.7s3.7 5.4 3.7 8.9c0 2.9-.9 5.5-2.7 7.8-1.8 2.3-4 3.7-6.8 4.4l8.9 11.2h-6.2l-8.5-10.8h-6.9zm9.6-20.4h-9.6v15.6h9.6c2.2 0 4-.8 5.5-2.3 1.5-1.5 2.3-3.4 2.3-5.5s-.8-4-2.3-5.5c-1.5-1.6-3.4-2.3-5.5-2.3zm21.7-4.8v36h-4.8v-36h4.8zm13.8 26.4l-4.2 9.6h-5.2l15.6-36h5.2l15.6 36H543l-4.1-9.6h-17.7zm15.5-4.8l-6.7-15.6-6.7 15.6h13.4zm54.7-21.6v4.8h-10.8v31.2h-4.8v-31.2H565v-4.8h26.4zm8.2 26.4l-4.2 9.6h-5.2l15.6-36h5.2l15.6 36h-5.2l-4.1-9.6h-17.7zm15.5-4.8l-6.7-15.6-6.7 15.6h13.4zm30.7-21.6c2.8 0 5.3 1 7.2 3 2 2 3 4.4 3 7.2 0 3.1-1.2 5.7-3.6 7.8 2.4 2.1 3.6 4.7 3.6 7.8 0 2.8-1 5.2-3 7.2s-4.4 3-7.2 3h-14.4v-36h14.4zm0 15.6c1.5 0 2.8-.5 3.8-1.6 1.1-1.1 1.6-2.3 1.6-3.8s-.5-2.8-1.6-3.8c-1.1-1.1-2.4-1.6-3.8-1.6h-9.6v10.8h9.6zm-9.6 15.6h9.6c1.5 0 2.8-.5 3.8-1.6 1.1-1.1 1.6-2.3 1.6-3.8s-.5-2.8-1.6-3.8c-1.1-1.1-2.4-1.6-3.8-1.6h-9.6v10.8zm24.8 1.2l3.9-2.8c1.4 1.4 2.9 2.1 4.6 2 1.7 0 3.2-1 4.5-2.6.7-1.3.8-2.7.4-4.2-.4-1.4-1.3-2.4-2.6-3.1l-5.6-3.1c-2.5-1.3-4.2-3.3-5-6-.8-2.6-.5-5.2.8-7.8 1.7-3.2 4.5-4.9 8.3-5.2 3.8-.2 6.8 1.1 9 4l-3.9 2.8c-1.4-1.4-2.9-2.1-4.6-2-1.7 0-3.2 1-4.5 2.6-.7 1.3-.8 2.7-.4 4.1.4 1.4 1.3 2.5 2.6 3.2l5.6 3.1c2.5 1.3 4.2 3.3 5 6 .8 2.6.5 5.2-.8 7.8-1.8 3.2-4.5 4.9-8.3 5.2-3.7.2-6.7-1.1-9-4z" fill="#ffdeaa"/></g></svg>