<svg xmlns="http://www.w3.org/2000/svg" viewBox="0 0 992 350"><style>.st0{fill:#fff}.st3{fill:#333645}.st5{fill:#d6d6d6}</style><path class="st0" d="M0 0h992v350H0z"/><path d="M576.3 245.3H405.5c-2.8 0-5-2.2-5-5v-40c0-2.8 2.2-5 5-5h170.8c2.8 0 5 2.2 5 5v40c0 2.8-2.2 5-5 5z" opacity=".1"/><path class="st0" d="M428.2 231l2.7-1.9c1 1 2 1.4 3.2 1.4 1.2 0 2.2-.7 3.1-1.8.5-.9.6-1.9.3-2.9s-.9-1.7-1.8-2.1l-3.8-2.1c-1.7-.9-2.9-2.3-3.4-4.1-.6-1.8-.4-3.6.6-5.3 1.2-2.2 3.1-3.4 5.7-3.6 2.6-.2 4.6.8 6.1 2.8l-2.7 1.9c-1-1-2-1.4-3.2-1.4-1.2 0-2.2.7-3.1 1.8-.5.9-.6 1.9-.3 2.8.3 1 .9 1.7 1.8 2.2l3.8 2.1c1.7.9 2.9 2.3 3.4 4.1.6 1.8.4 3.6-.6 5.3-1.2 2.2-3.1 3.4-5.7 3.5-2.5.2-4.5-.7-6.1-2.7zm19.3-22.2v15.6c0 1.6.6 3 1.7 4.1 1.1 1.1 2.5 1.7 4.1 1.7 1.6 0 3-.6 4.1-1.7 1.1-1.1 1.7-2.5 1.7-4.1v-15.6h3.3v15.6c0 2.5-.9 4.6-2.6 6.4-1.8 1.8-3.9 2.7-6.4 2.7-2.5 0-4.6-.9-6.4-2.7-1.8-1.7-2.7-3.9-2.7-6.4v-15.6h3.2zm27.9 0c1.9 0 3.6.7 5 2 1.3 1.3 2 3 2 5 0 2.1-.8 3.9-2.5 5.3 1.6 1.4 2.5 3.2 2.5 5.4 0 1.9-.7 3.6-2 4.9-1.3 1.3-3 2-5 2h-9.9v-24.6h9.9zm0 10.7c1 0 1.9-.4 2.6-1.1s1.1-1.6 1.1-2.6-.4-1.9-1.1-2.6-1.6-1.1-2.6-1.1h-6.6v7.4h6.6zm-6.6 10.7h6.6c1 0 1.9-.4 2.6-1.1s1.1-1.6 1.1-2.6-.4-1.9-1.1-2.6-1.6-1.1-2.6-1.1h-6.6v7.4zm30.8 3.3h-14v-24.6h3.3v21.4h10.7v3.2zm6.3-24.7v24.6h-3.3v-24.6h3.3zm6.2 24.7h-3.3v-24.6h3.3l9 9 9-9h3.3v24.6h-3.3v-20l-9 9-9-9v20zm38.6-24.7v3.3H540v7.4h7.4v3.3H540v7.4h10.7v3.3h-14v-24.6h14z"/><path d="M272.1 272.1v4.8h-15.6v10.8h10.8v4.8h-10.8v15.6h-4.8v-36h20.4zm9.6 25.2v10.8h-4.8v-36h14.4c3.5 0 6.5 1.2 8.9 3.7s3.7 5.4 3.7 8.9c0 2.9-.9 5.5-2.7 7.8-1.8 2.3-4 3.7-6.8 4.4l8.9 11.2h-6.2l-8.5-10.8h-6.9zm9.6-20.4h-9.6v15.6h9.6c2.2 0 4-.8 5.5-2.3 1.5-1.5 2.3-3.4 2.3-5.5s-.8-4-2.3-5.5c-1.5-1.6-3.4-2.3-5.5-2.3zm35.4-4.8c4.9 0 9.2 1.8 12.7 5.3s5.3 7.8 5.3 12.7c0 4.9-1.8 9.2-5.3 12.7s-7.8 5.3-12.7 5.3-9.2-1.8-12.7-5.3-5.3-7.8-5.3-12.7c0-4.9 1.8-9.2 5.3-12.7s7.7-5.3 12.7-5.3zm0 31.2c3.6 0 6.8-1.3 9.4-3.9 2.5-2.5 3.8-5.7 3.8-9.3s-1.3-6.8-3.8-9.4c-2.6-2.5-5.7-3.8-9.4-3.8-3.6 0-6.8 1.3-9.3 3.8-2.6 2.6-3.9 5.7-3.9 9.4s1.3 6.8 3.9 9.3c2.5 2.6 5.6 3.9 9.3 3.9zm27.6-31.2l17.8 27.2v-27.2h4.8v36h-4.8l-17.8-27.2v27.2h-4.8v-36h4.8zm53.8 0v4.8h-10.8v31.2h-4.8v-31.2h-10.8v-4.8h26.4zm20.4 20.4v4.8h-15.6v-4.8h15.6zm25.2-20.4v4.8h-15.6v10.8h10.8v4.8h-10.8v10.8h15.6v4.8h-20.4v-36h20.4zm9.6 0l17.8 27.2v-27.2h4.8v36h-4.8l-17.8-27.2v27.2h-4.8v-36h4.8zm40.6 36h-13.2v-36h13.2c4.9 0 9.2 1.8 12.7 5.3s5.3 7.8 5.3 12.7c0 4.9-1.8 9.2-5.3 12.7s-7.8 5.3-12.7 5.3zm9.4-8.7c2.5-2.5 3.8-5.7 3.8-9.3s-1.3-6.8-3.8-9.4c-2.6-2.5-5.7-3.8-9.4-3.8h-8.4v26.4h8.4c3.6 0 6.8-1.3 9.4-3.9zm25.6 5.1l3.9-2.8c1.4 1.4 2.9 2.1 4.6 2 1.7 0 3.2-1 4.5-2.6.7-1.3.8-2.7.4-4.2-.4-1.4-1.3-2.4-2.6-3.1l-5.6-3.1c-2.5-1.3-4.2-3.3-5-6-.8-2.6-.5-5.2.8-7.8 1.7-3.2 4.5-4.9 8.3-5.2 3.8-.2 6.8 1.1 9 4l-3.9 2.8c-1.4-1.4-2.9-2.1-4.6-2-1.7 0-3.2 1-4.5 2.6-.7 1.3-.8 2.7-.4 4.1.4 1.4 1.3 2.5 2.6 3.2l5.6 3.1c2.5 1.3 4.2 3.3 5 6 .8 2.6.5 5.2-.8 7.8-1.8 3.2-4.5 4.9-8.3 5.2-3.8.2-6.8-1.1-9-4zm28.1-32.4l17.8 27.2v-27.2h4.8v36h-4.8L567 280.9v27.2h-4.8v-36h4.8zm31.7 0v36h-4.8v-36h4.8zm18.8 25.2h-9.6v10.8h-4.8v-36h14.4c3.5 0 6.5 1.2 8.9 3.7s3.7 5.4 3.7 8.9-1.2 6.5-3.7 8.9-5.4 3.7-8.9 3.7zm0-20.4h-9.6v15.6h9.6c2.2 0 4-.8 5.5-2.3 1.5-1.5 2.3-3.4 2.3-5.5s-.8-4-2.3-5.5c-1.5-1.6-3.4-2.3-5.5-2.3zm31.8 20.4h-9.6v10.8h-4.8v-36h14.4c3.5 0 6.5 1.2 8.9 3.7s3.7 5.4 3.7 8.9-1.2 6.5-3.7 8.9-5.4 3.7-8.9 3.7zm0-20.4h-9.6v15.6h9.6c2.2 0 4-.8 5.5-2.3 1.5-1.5 2.3-3.4 2.3-5.5s-.8-4-2.3-5.5c-1.5-1.6-3.4-2.3-5.5-2.3zm37.8-4.8v4.8h-15.6v10.8h10.8v4.8h-10.8v10.8h15.6v4.8h-20.4v-36h20.4zm31.2 0v4.8h-10.8v31.2h-4.8v-31.2h-10.8v-4.8h26.4zm3.5 32.4l3.9-2.8c1.4 1.4 2.9 2.1 4.6 2 1.7 0 3.2-1 4.5-2.6.7-1.3.8-2.7.4-4.2-.4-1.4-1.3-2.4-2.6-3.1l-5.6-3.1c-2.5-1.3-4.2-3.3-5-6-.8-2.6-.5-5.2.8-7.8 1.7-3.2 4.5-4.9 8.3-5.2 3.8-.2 6.8 1.1 9 4l-3.9 2.8c-1.4-1.4-2.9-2.1-4.6-2-1.7 0-3.2 1-4.5 2.6-.7 1.3-.8 2.7-.4 4.1.4 1.4 1.3 2.5 2.6 3.2l5.6 3.1c2.5 1.3 4.2 3.3 5 6 .8 2.6.5 5.2-.8 7.8-1.8 3.2-4.5 4.9-8.3 5.2-3.8.2-6.7-1.1-9-4z" fill="#606060"/><text transform="translate(469.17 -160.941)" font-family="Stark" font-size="48">HEXO</text><text transform="translate(646.17 -160.941)" font-family="Stark" font-size="48">RESOURCES</text><path class="st3" d="M491.3 61.6v4.5c0 3.8-2.8 6.9-6.6 6.9-4.4.1-8.9.1-13.3 0-3.8-.1-6.6-3.1-6.7-7v-4.5h-4v4.2c0 2.2-.6 4.1-2.3 5.6-1.1 1-2.4 1.7-3.9 1.7-4.8.1-9.5.1-14.3 0-3.3-.1-6-3.2-6.1-6.5v-4.2c0-.3-.1-.5-.3-.8-.7 4.1 1.2 8.2.4 12.3-.1 0-.3 0-.4.1-.1-.3-.3-.6-.4-.9-.8-3.5-1.1-7-1.2-10.6 0-.5-.1-.9-.6-1.2-.2-.1-.5-.5-.5-.8.1-1.1-.4-2.3.6-3.3.1-.1.1-.6 0-.8-.3-.6-.6-1.3-1-1.9-1.6-2-2.1-4.4-2.4-6.9-.4-3.4-.3-6.9.2-10.3.3-1.9.8-3.8 1.4-5.6.3-.9.4-1.7.2-2.6-.8-3-.5-6 .1-8.9.1-.6.8-1.1 1.2-1.6.8-.9.8-1.3.1-2.3-.2-.2-.2-.6-.3-.9.1 0 .2-.1.3-.1.4.4.8.8 1.3 1.2.2.1.5.1.7.1 0-.3 0-.5-.1-.8-.1-.2-.3-.3-.4-.5-.1-.3-.3-.7-.2-.8.2-.2.7-.5.9-.4.5.3 1.1.7 1.5 1.1.4.4.6 1.1 1 1.5.7.7 1.5.6 2.1-.2.3-.4.5-.8.7-1.2.2-.4.4-.9.6-1.4 1.6 1.6 3.5 2.6 5.7 2.6 1.1 0 2.2-.3 3.3-.6.4-.1.7-.3 1.1-.3 5.4-.1 10.8-.3 16.1-.4 4.9-.1 9.9.2 14.7 1.1 1.2.2 2.5.6 3.7.9 1.1.3 2 1.9 1.6 3-.5 1.4-.1 2.4.9 3.4 1.4 1.3 2.7 2.7 4.1 4 .4.4 1.1.6 1.7.6 1 0 1.6.2 1.9 1.1 1.1 2.7 2.1 5.4 2.3 8.4.1 3 .3 5.9.2 8.9-.1 2.9-.6 5.8-2.6 8.2-.3.3-.5.8-.7 1.1-.3.6-.5 1 .1 1.6.8.8.4 3.2-.5 4-.2.2-.3.5-.3.8-.2 2.6-.4 5.2-.6 7.7-.1 1-.3 2-.6 3.1-.1.2-.3.4-.5.6-.2-.2-.5-.5-.4-.7 0-1.4.1-2.9.2-4.3.2-2.2.4-4.3.6-6.5 0-.2-.1-.5-.2-.7.1.1 0 .2-.1.2zm-57.4-4.8c.8.3 1.1.1 1.5-.4 1.4-2.1 3.4-3 5.9-3h12.2c2.6 0 4.6 1 6.2 3.1.2.3.6.5.9.5 1.4.1 2.9.1 4.3 0 .3 0 .8-.2 1-.5 1.5-2.2 3.6-3.1 6.3-3.1h11.9c2.6 0 4.7.9 6.2 3.1.4.5.7.7 1.3.5 0-.1.1-.2.1-.3 0-.2 0-.4-.1-.5-.8-3.9-2.3-7.5-4.2-10.9-.1-.2-.3-.4-.4-.4-.9-.1-1.3-.7-1.6-1.4-.6-1.4-1.3-2-3-1.8-1.7.3-3.6 0-5.3.2-3.2.3-6.4.7-9.6 1.1-3.4.4-6.8.8-10.3 1.2-.9.1-1.8.1-2.7.2-.3 0-.6.2-.9.2-3.6.3-7.2.1-10.6-1.3-1.4-.6-2.4-.3-3.5.4-.7.5-1.4 1.1-1.9 1.8-2.5 3.2-3.1 7.2-3.7 11.3zm13.5 13.6h6.4c2.3-.1 4.1-1.8 4.1-4.2v-5.9c0-2.5-1.7-4.2-4.2-4.2H441c-2.4 0-4.1 1.7-4.2 4.2v5.9c.1 2.5 1.9 4.2 4.4 4.2h6.2zm30.5 0h6.3c2.4 0 4.2-1.7 4.3-4.1.1-2 .1-4 0-6-.1-2.4-1.8-4.2-4.2-4.2h-12.7c-2.6 0-4.2 1.7-4.2 4.3v5.7c0 2.5 1.8 4.2 4.3 4.3h6.2zm51.6 86.1H394.8c-2.2 0-4.1-1.8-4.1-4.1v-8.7l142.9-.5v9.2c0 2.3-1.8 4.1-4.1 4.1z"/><path d="M513.7 154.5H410.5c-2.2 0-4.1-1.8-4.1-4.1l-7.8-70.6c0-2.2 1.8-4.1 4.1-4.1h118.8c2.2 0 4.1 1.8 4.1 4.1l-7.8 70.6c0 2.2-1.8 4.1-4.1 4.1z" fill="#494f63"/><circle class="st3" cx="462.1" cy="115.1" r="13.6"/><path class="st5" d="M579.7 79.1C570.2 37.3 533 8.9 491.7 9c35.7 4 66.6 30.1 75 67.2 10.6 46.8-18.7 93.4-65.5 104-25.1 5.7-50.2-.1-69.7-14 21 18.9 50.6 27.6 80.2 20.8 48.6-11 79-59.3 68-107.9z"/><path class="st5" d="M525.6 49.1c-.5-.9-.9-1.8-1.5-2.7-.7-1.1-.4-1.8.6-2.7 2.3-1.9 2.3-1.9 1.6-4.7-.1-.5-.6-.9-1.1-1.2-1.1-.5-2.7-.6-3.2-1.4-.6-.9-.1-2.4-.1-3.7v-.3c0-.9.4-1.4 1.3-1.5.8-.1 1.6-.3 2.4-.4.3-.1.8-.2.9-.4.4-1 .9-2.1 1.1-3.2.1-.4-.6-1-1-1.5-2-2.2-2-2.2-.3-4.8 1.3-2 1.3-1.9 3.6-1.2.7.2 1.6.8 2.1.5 1-.5 1.9-1.3 2.6-2.2.3-.4 0-1.2-.1-1.8-.6-2.9-.6-2.9 2-4.3 2.2-1.1 2.2-1.1 3.9.8.5.5 1 1.4 1.5 1.5 1.1.1 2.3-.2 3.3-.6.4-.2.6-1 .8-1.6.9-2.9.9-2.9 4-2.7 2.3.2 2.3.2 2.7 2.5.1.5.2 1.1.4 1.6.1.3.4.7.7.8 2.8 1.2 2.8 1.2 5.1-.9.2-.1.3-.3.5-.4.5-.6 1.1-.7 1.7-.2.3.2.6.4 1 .6 2.9 2 2.9 2 1.8 5-.2.5-.5 1.2-.3 1.5.6.9 1.4 1.9 2.3 2.5.4.3 1.4 0 2.1-.2 2.6-.6 2.6-.6 3.8 1.8 1.3 2.5 1.3 2.5-.8 4.3-.3.3-.7.5-.9.8-.2.3-.4.8-.4 1.1.4 3 .4 3 3.3 3.9.3.1.6.1.8.3.3.3.7.8.9 1.2.1.4 0 .9 0 1.4-.1 3.1-.1 3.1-3.2 3.7-.6.1-1.4.2-1.6.6-.5 1-1 2-1 3.1 0 .6.8 1.2 1.3 1.8 1.7 1.9 1.7 1.9.3 4.1-1.5 2.4-1.5 2.4-4.1 1.4-.3-.1-.6-.3-1-.3-.5 0-1.1.1-1.6.3-.4.2-.7.7-1.1.9-.9.6-1.1 1.3-.9 2.4.8 3.3.7 3.4-2.4 4.8-2.2 1-1.7 1-3-.7-1.2-1.5-2.3-2.2-4.2-1.5-.9.3-1.4.6-1.7 1.5-1 3.3-1 3.3-4.4 3-2-.1-2.2-.1-2.3-2.1-.2-2-1-3.1-3-3.5-.8-.2-1.4-.2-2 .4-2.6 2.5-2.7 2.5-5.7.4l-.1-.1c-1.2-.6-1.5-1.4-.8-2.5 1.2-2 .8-3.7-1-5-.4-.3-1-.5-1.4-.4-1 .1-2 .4-3.2.7-.4 0-.8-.2-1-.5zm5.3-14.4c-.4 9.5 7 17.6 16.5 18 9.4.4 17.5-7 18-16.5.5-9.4-7-17.5-16.5-17.9-9.4-.4-17.5 7-18 16.4z"/><circle transform="rotate(-56.536 548.214 35.649)" cx="548.2" cy="35.6" fill="#6daba8" r="14.5"/><circle transform="rotate(-56.536 547.667 36.263)" cx="547.7" cy="36.3" fill="#86bcb8" r="11.5"/><path class="st5" d="M541.3 148c.5-.8.3-1.4-.1-2.2-1-2.1-2.4-2.7-4.6-2.1-.4.1-.9.1-1.3.1-2.1.2-2.1.2-2.8-1.7l-.9-2.4c-1.1-3.5-1.2-3.7 2-5.4 2-1.1 3-2.3 2.4-4.7-.2-.7-.3-1.2-1-1.5-1.3-.6-2.6-1.3-4-1.9-.7-.3-.9-.7-.8-1.4.5-2.1.9-4.1 1.4-6.2.2-.7.5-1.1 1.3-1 1.5 0 2.9 0 4.4-.1.4 0 .9-.1 1.1-.3.6-1 1.3-2 1.6-3.1.1-.6-.6-1.4-.9-2-.7-1.3-2.1-2.6-2-3.7.2-1.3 1.7-2.4 2.7-3.5 2.4-2.6 2.5-2.7 5.5-.8 1.9 1.2 3.4 1.3 5.2-.2.6-.5 1-1 .9-1.8-.1-1.4-.2-2.8-.3-4.3-.1-.7.2-1.1.9-1.3 1.6-.5 3.2-1.1 4.8-1.6 2.2-.9 2.2-.9 3.4 1.1.3.5.7 1 .9 1.5.7 1.8 1.9 2.3 3.9 2 1.1-.2 1.8-.5 2.2-1.5.4-1 1-2 1.5-3 .4-1 .9-1.4 2.1-1.1 1.7.4 3.4.8 5.2 1.1 1.3.2 1.9.9 1.6 2.2-.1.6.2 1.2.1 1.8-.5 2.5.8 3.7 2.9 4.3.5.1 1.1.1 1.5-.1 1.3-.7 2.5-1.6 3.7-2.4.7-.5 1.2-.5 1.8 0 1.1 1 2.3 1.9 3.4 3 2 1.9 1.9 1.9.6 4.4-.1.2-.2.5-.4.7-1.5 1.8-1.3 3.4.2 5.1.6.6 1 1 1.8.9 1.3-.2 2.7-.2 4-.3.9-.1 1.4.2 1.7 1.1.6 2.1 1.3 4.1 1.9 6.2.1.3-.2.9-.5 1.1-1.1.7-2.2 1.4-3.3 2-1.1.6-1.6 1.3-1.4 2.5.2 1.3-.1 2.7 1.7 3.2 1.1.4 2.2 1.1 3.3 1.6.8.3 1 .9.8 1.6-.3 1.4-.5 2.9-.9 4.3-.6 2.6-.7 2.6-3.3 2.8-.3 0-.7.1-1 .1-2.4-.5-3.6.6-4.3 2.7-.3.7-.3 1.2.1 1.9 1 1.4 2 2.9 3 4.5-1.2 1.4-2.3 2.7-3.5 4-2 2.2-2.1 2.2-4.8.7-.2-.1-.3-.1-.5-.2-1.8-1.5-3.4-1.4-5.1.1-.6.5-1 1-.9 1.8.1 1.3.1 2.6.3 3.9.2 1.1-.3 1.6-1.2 1.9l-4.5 1.5c-2.1.6-2.1.6-3.3-1.4-.2-.4-.4-.7-.7-1.1-1.6-2.6-1.6-2.6-4.7-2.3-.5.1-1.1.5-1.3.9-.7 1.2-1.3 2.5-1.9 3.8-.3.8-.8 1.1-1.6.9-1.3-.3-2.7-.4-3.9-.8-3.8-1-3.1-.2-3.2-4.2 0-2.3-.5-3.7-2.8-4.5-.7-.2-1.2-.4-1.9.1-1.2.9-2.5 1.7-3.8 2.5-.3.2-1 .2-1.2 0-1.9-1.6-3.8-3.3-5.7-5 .9-1.8 1.7-3.3 2.5-4.8zm22.3-39.9c-11.6 1.2-20 11.7-18.8 23.5 1.2 11.5 11.8 19.9 23.5 18.7 11.5-1.2 19.9-11.7 18.7-23.3-1.3-11.7-11.8-20.1-23.4-18.9z"/><circle transform="rotate(-65.121 565.798 128.996)" cx="565.8" cy="129" fill="#c45468" r="18.3"/><circle transform="rotate(-65.121 565.798 128.996)" cx="565.8" cy="129" fill="#d67b8f" r="15.5"/><g><path class="st5" d="M480.8 195.2c-.3-.8-.5-1.6-.8-2.4-.4-1-.1-1.6.9-2.1 2.2-1.2 2.2-1.3 2-3.7 0-.4-.4-.9-.7-1.1-.8-.6-2.2-.9-2.5-1.6-.3-.8.3-2 .5-3.1v-.2c.1-.8.5-1.1 1.3-1 .7.1 1.4 0 2 0 .3 0 .7 0 .8-.2.5-.8 1.1-1.6 1.4-2.5.1-.4-.4-.9-.6-1.4-1.4-2.2-1.4-2.1.4-4 1.4-1.4 1.4-1.4 3.2-.5.6.3 1.2.9 1.7.7.9-.3 1.7-.9 2.4-1.5.3-.3.2-1 .2-1.5-.1-2.5-.1-2.5 2.3-3.3 2-.6 2-.6 3.1 1.2.3.5.6 1.3 1 1.4.9.2 1.9.1 2.8-.1.4-.1.7-.8.9-1.2 1.2-2.3 1.2-2.3 3.7-1.7 1.9.5 1.9.5 1.9 2.5 0 .5 0 .9.1 1.4.1.3.2.6.4.8 2.2 1.4 2.2 1.4 4.4 0 .1-.1.3-.2.4-.3.5-.5 1-.5 1.5.1.2.2.5.4.7.6 2.1 1.8 2.1 1.8.8 4.2-.2.4-.6.9-.5 1.2.4.9.9 1.8 1.5 2.4.3.3 1.1.1 1.7.1 2.2-.1 2.2-.1 2.9 2 .7 2.3.7 2.3-1.3 3.5-.3.2-.7.3-.9.6-.2.2-.5.6-.5.9-.1 2.5-.1 2.5 2.2 3.7.2.1.5.2.7.3.2.3.5.7.5 1.1.1.4-.1.8-.2 1.2-.6 2.6-.6 2.6-3.2 2.6-.5 0-1.2 0-1.4.3-.6.7-1.1 1.6-1.3 2.4-.1.5.5 1.1.8 1.7 1.2 1.8 1.2 1.8-.3 3.4-1.6 1.8-1.6 1.7-3.6.6-.2-.1-.5-.4-.8-.4-.4 0-.9-.1-1.4.1-.4.1-.6.5-1 .6-.8.4-1.1.9-1 1.8.2 2.9.2 2.9-2.7 3.6-1.9.5-1.5.6-2.4-1-.7-1.4-1.6-2.1-3.3-1.9-.8.1-1.3.3-1.6 1-1.3 2.6-1.3 2.6-4.1 1.9-1.7-.4-1.8-.4-1.7-2 .1-1.7-.4-2.7-2-3.3-.7-.2-1.1-.3-1.7.1-2.5 1.7-2.6 1.7-4.8-.5 0 0 0-.1-.1-.1-.9-.6-1-1.4-.3-2.2 1.3-1.5 1.1-2.9-.2-4.3-.3-.3-.7-.5-1.1-.5-.8 0-1.7.1-2.8.1.2 0-.2-.2-.3-.5zm6.5-11.2c-1.7 7.8 3.4 15.6 11.3 17.3 7.7 1.6 15.5-3.4 17.2-11.2 1.7-7.8-3.4-15.5-11.3-17.2-7.8-1.7-15.6 3.3-17.2 11.1z"/><circle transform="rotate(-47.156 501.452 187.116)" cx="501.4" cy="187.1" fill="#73649e" r="12.7"/><circle transform="rotate(-56.536 500.98 187.535)" cx="501" cy="187.5" fill="#8e86b2" r="10.2"/></g></svg>