<svg id="Camada_1" xmlns="http://www.w3.org/2000/svg" viewBox="0 0 992 350"><style>.st0{fill:#fff}.st3{fill:#d5eafb}.st6{fill:#e2e2e2}</style><path class="st0" d="M0 0h992v350H0z"/><path d="M564.5 245.3h-137c-2.8 0-5-2.2-5-5v-40c0-2.8 2.2-5 5-5h137c2.8 0 5 2.2 5 5v40c0 2.8-2.3 5-5 5z" opacity=".1"/><path class="st0" d="M486.1 207.3v17.4c0 1.8.6 3.3 1.9 4.5 1.2 1.2 2.7 1.9 4.5 1.9 1.8 0 3.3-.6 4.5-1.9 1.2-1.2 1.9-2.7 1.9-4.5v-17.4h3.7v17.4c0 2.8-1 5.2-2.9 7.1-2 2-4.4 3-7.1 3-2.8 0-5.2-1-7.1-3-2-1.9-3-4.3-3-7.1v-17.4h3.6zm23.4 0v27.5h-3.7v-27.5h3.7z"/><circle cx="497.4" cy="111.8" r="81.9" fill="#a0d2f8"/><path class="st3" d="M444.3 117.1c-4.3-19.3.7-33.9 19.3-56.1-3.6-4.3-7.3-8.8-11-13.2 35.4-32.6 97.1-22.2 120 23-3.4 1.8-6.9 3.7-11 5.9-12-20.2-29.4-32.1-52.5-34.6-10.7-1.2-21.2.3-31.4 5.7 2.1 5.5 4.2 10.7 6.3 16.2-3.2 2.1-6.2 3.9-9 6-12.1 8.9-18 21.1-19.1 35.8-1 10.1-.8 10.1-11.6 11.3z"/><path class="st0" d="M444.3 111c-3.7-19.4 1.8-33.9 21.2-55.4-3.5-4.4-7-9-10.6-13.5 36.5-31.4 97.8-18.9 119.1 27-3.5 1.7-7 3.5-11.2 5.5-11.3-20.5-28.3-33.1-51.3-36.4-10.7-1.5-21.2-.4-31.5 4.6 1.9 5.6 3.8 10.8 5.7 16.4-3.3 2-6.3 3.7-9.2 5.7-12.4 8.5-18.7 20.5-20.3 35.1-1.2 10.1-1.1 10.1-11.9 11z"/><path class="st0" d="M527.3 162.1c-15.2 12.7-30.5 14.9-58.7 8.5-2.2 5.2-4.5 10.5-6.7 15.8-45.1-16.7-64-76.3-34.3-117.2 3.2 2.2 6.4 4.5 10.3 7.1-12.5 19.9-15.2 40.8-6.8 62.6 3.8 10.1 9.9 18.7 19.4 25.3 3.9-4.4 7.6-8.6 11.5-13 3.4 1.9 6.4 3.7 9.5 5.3 13.4 6.7 27 6.4 40.6.7 9.3-4 9.2-4.1 15.2 4.9z"/><path class="st3" d="M521.8 58.3c18.8 6.3 28.7 18.2 38 45.6 5.6-.8 11.3-1.7 17-2.6 9.5 47.2-31.4 94.5-81.9 90.6.2-3.9.4-7.8.7-12.5 23.5.2 42.7-8.5 56.9-27 6.6-8.6 10.7-18.2 11.4-29.8-5.8-1-11.3-2-17.1-3-.2-3.9-.1-7.4-.5-10.8-1.3-14.9-8.7-26.3-20.7-34.9-8.2-5.9-8.4-5.7-3.8-15.6z"/><path class="st0" d="M524.4 63.5c18.8 6.3 28.7 18.2 38 45.6 5.6-.8 11.3-1.7 17-2.6 9.5 47.2-31.4 94.5-81.9 90.6.2-3.9.4-7.8.7-12.5 23.5.2 42.7-8.5 56.9-27 6.6-8.6 10.7-18.2 11.4-29.8-5.8-1-11.3-2-17.1-3-.2-3.9-.1-7.4-.5-10.8-1.3-14.9-8.7-26.3-20.7-34.9-8.2-5.9-8.4-5.7-3.8-15.6z"/><circle class="st3" cx="498.7" cy="111.8" r="33.8"/><path d="M485.6 87.5c17.2-8.6 37.3 1.9 39.9 20.9 2 14.7-8.7 28.7-23.5 30.7-19.8 2.6-35.5-15.6-30.2-34.7.1-.4.4-.8.5-1.2l1.2.9c3.5 2.4 8.1 2.4 11.5.1 3.5-2.4 5.1-6.6 4.1-10.8-.5-2.5-1.9-4.2-3.5-5.9z" fill="#253b4f"/><circle cx="497.4" cy="111.8" r="15.6" fill="#0b0c11"/><circle class="st0" cx="480.5" cy="97.5" r="13"/><circle class="st0" cx="513" cy="122.2" r="9.1"/><path class="st6" d="M575 55.8c-3.6 1.9-6.8 3.7-10.3 5.6-6.1-12-13.8-22.2-24.7-30.8.2 5.9.3 11.1.5 17.3-13.6-12.3-28.3-20.8-46.4-24.2 2.7 5.2 5.1 9.8 7.5 14.5-7.8-1-15.3-2.6-22.8-2.9-7.4-.3-14.9.8-20.5 1.1 11-3.2 23.9-4 38.1-1.9-4-5.9-7.4-10.9-11.1-16.3 16.6.9 31.8 5 45.8 13.4.3-.2.5-.3.8-.5-1.1-6-2.3-12-3.5-18.4C548.1 23 564.2 36.2 575 55.8z"/><path d="M575 51.9c-3.6 1.9-6.8 3.7-10.3 5.6-6.1-12-13.8-22.2-24.7-30.8.2 5.9.3 11.1.5 17.3-13.6-12.3-28.3-20.8-46.4-24.2 2.7 5.2 5.1 9.8 7.5 14.5-7.8-1-15.3-2.6-22.8-2.9-7.4-.3-14.9.8-20.5 1.1 11-3.2 23.9-4 38.1-1.9-4-5.9-7.4-10.9-11.1-16.3 16.6.9 31.8 5 45.8 13.4.3-.2.5-.3.8-.5-1.1-6-2.3-12-3.5-18.4C548.1 19 564.2 32.3 575 51.9z" fill="#2662c4"/><path class="st6" d="M519 208.9c.1-4.1.1-7.7.2-11.8 13.4.6 26.1-1 39-6.2-5.2-2.8-9.8-5.2-15.3-8.2 17.5-5.7 32.1-14.3 44-28.2-5.8-.2-11.1-.5-16.3-.7 4.8-6.2 9.8-11.9 13.8-18.3 3.9-6.3 6.7-13.3 9.2-18.4-2.7 11.1-8.4 22.8-17.3 34 7.1-.6 13.2-1 19.7-1.6-9.1 13.9-20.2 25.1-34.3 33.1v.9c5.8 2 11.5 4 17.7 6.1-18.4 12.3-38 19.7-60.4 19.3z"/><path d="M515.1 207.6c.1-4.1.1-7.7.2-11.8 13.4.6 26.1-1 39-6.2-5.2-2.8-9.8-5.2-15.3-8.2 17.5-5.7 32.1-14.3 44-28.2-5.8-.2-11.1-.5-16.3-.7 4.8-6.2 9.8-11.9 13.8-18.3 3.9-6.3 6.7-13.3 9.2-18.4-2.7 11.1-8.4 22.8-17.3 34 7.1-.6 13.2-1 19.7-1.6-9.1 13.9-20.2 25.1-34.3 33.1v.9c5.8 2 11.5 4 17.7 6.1-18.5 12.3-38 19.7-60.4 19.3z" fill="#c62424"/><path class="st6" d="M414.3 77.1c3.4 2.1 6.6 4.1 10 6.2-7.4 11.2-12.5 23-14.6 36.7 5-3.1 9.5-5.8 14.8-9-4 17.9-4.1 34.9 1.9 52.2 3.2-4.9 6-9.3 8.9-13.6 2.9 7.3 5.3 14.6 8.7 21.2 3.4 6.6 8 12.6 11.1 17.3-8.2-8-15.3-18.8-20.4-32.2-3.1 6.4-5.8 11.9-8.7 17.8-7.4-14.9-11.3-30.1-11-46.4-.3-.1-.5-.3-.8-.4-4.7 3.9-9.3 7.9-14.3 12.1-.9-22.2 2.7-42.8 14.4-61.9z"/><path d="M410.4 77.1c3.4 2.1 6.6 4.1 10 6.2-7.4 11.2-12.5 23-14.6 36.7 5-3.1 9.5-5.8 14.8-9-4 17.9-4.1 34.9 1.9 52.2 3.2-4.9 6-9.3 8.9-13.6 2.9 7.3 5.3 14.6 8.7 21.2 3.4 6.6 8 12.6 11.1 17.3-8.2-8-15.3-18.8-20.4-32.2-3.1 6.4-5.8 11.9-8.7 17.8-7.4-14.9-11.3-30.1-11-46.4-.3-.1-.5-.3-.8-.4-4.7 3.9-9.3 7.9-14.3 12.1-.9-22.2 2.7-42.8 14.4-61.9z" fill="#26c480"/><g><path d="M440.4 299.4c2.5 2.6 5.7 3.9 9.3 3.9 3.6 0 6.8-1.3 9.3-3.9l3.4 3.4c-3.5 3.5-7.7 5.3-12.7 5.3-4.9 0-9.2-1.8-12.7-5.3s-5.3-7.8-5.3-12.7c0-5 1.8-9.2 5.3-12.7s7.8-5.3 12.7-5.3c5 0 9.2 1.8 12.7 5.3l-3.4 3.4c-2.5-2.6-5.7-3.9-9.3-3.9-3.6 0-6.8 1.3-9.3 3.9-2.6 2.5-3.9 5.7-3.9 9.3s1.3 6.7 3.9 9.3zm44.9-27.3c4.9 0 9.2 1.8 12.7 5.3s5.3 7.8 5.3 12.7c0 4.9-1.8 9.2-5.3 12.7s-7.8 5.3-12.7 5.3-9.2-1.8-12.7-5.3-5.3-7.8-5.3-12.7c0-4.9 1.8-9.2 5.3-12.7s7.7-5.3 12.7-5.3zm0 31.2c3.6 0 6.8-1.3 9.4-3.9 2.5-2.5 3.8-5.7 3.8-9.3s-1.3-6.8-3.8-9.4c-2.6-2.5-5.7-3.8-9.4-3.8-3.6 0-6.8 1.3-9.3 3.8-2.6 2.6-3.9 5.7-3.9 9.4s1.3 6.8 3.9 9.3c2.5 2.6 5.6 3.9 9.3 3.9zm27.6-6v10.8h-4.8v-36h14.4c3.5 0 6.5 1.2 8.9 3.7 2.4 2.4 3.7 5.4 3.7 8.9 0 2.9-.9 5.5-2.7 7.8-1.8 2.3-4 3.7-6.8 4.4l8.9 11.2h-6.2l-8.5-10.8h-6.9zm9.6-20.4h-9.6v15.6h9.6c2.2 0 4-.8 5.5-2.3 1.5-1.5 2.3-3.4 2.3-5.5s-.8-4-2.3-5.5c-1.5-1.6-3.4-2.3-5.5-2.3zm37.8-4.8v4.8h-15.6v10.8h10.8v4.8h-10.8v10.8h15.6v4.8h-20.4v-36h20.4z" fill="#606060"/></g></svg>