<svg version="1.1" id="Camada_1" xmlns="http://www.w3.org/2000/svg" x="0" y="0" viewBox="0 0 265.4 265.4" xml:space="preserve"><style>.st0{fill:#333645}.st1{fill:#fff}.st2{fill:#9fcc48}</style><path class="st0" d="M0 0h265.4v265.4H0z"/><path class="st1" d="M77.6 231.7c0-.7.1-3.1.7-4.4.6-1.5 2.6-2.9 2.6-2.9H152s1.9 1.6 2.4 3c.5 1.2.7 3.6.7 4.3H77.6zM81.2 220.9c-3.2-4.2-4.9-10.1-4.5-15.9.4-5.4 4-10.9 6.9-15.3.4-.6.8-1.1 1.1-1.7h63.7c2.6 3.8 6.9 11.1 7.3 18.2.4 5.6-1.1 10.4-4.5 14.8h-70zM101.2 120.8h-7c-.5-.1-4.5-2.3-4.1-5.9.4-4.6 4.6-6.1 5-6.1h7.5v-.2c1.2-19.1-8.4-35.1-15.3-40-1-.7-5.8-4.5-2.3-9.5 1.7-2.5 4.1-2.8 5.3-2.8.5 0 1.1.1 1.5.2.4.1 1 .4 1.7.8 1.5.8 3.6 1.9 5.8 1.9 3.5 0 6.8-1.8 8.9-3.4 2.5 1.8 5.5 3.7 8.8 3.7 3.1 0 6.1-1.8 8.3-3.3.1-.2.3-.3.4-.4h.1c.3.2.6.4.8.7 2.8 1.8 5.5 2.7 8 2.7 2.3 0 4.3-1.1 5.8-1.9.7-.4 1.3-.7 1.7-.8.4-.1 1-.2 1.5-.2 1.2 0 3.6.4 5.3 2.8 3.5 5-1.3 8.8-2.3 9.5-6.9 4.8-16.5 20.8-15.3 39.8v.2l.2.1h6.5c.5 0 4.3 2 4.8 6.4.3 3.5-3.3 5.5-3.9 5.5h-37.7zM88.1 183.6l.9-1.6c7.6-14.1 14.2-26.3 16.2-57.4h24.7c2 31.4 9.1 44.2 16.5 57.8l.6 1.1H88.1z"/><path class="st2" d="M130 124.7s.7 8.2 1.2 11.8c2.1 17.4 5.8 28.6 10.3 38 2 4.3-5.4-.5-10.5-.2-6.9.5-6.1 15-12.9 9.4-6.3-5.2 4.7-19.4-1.3-31.6-2.1-4.4-1.1-7.9 1.2-14.1.5-1.5-.8-8 2.6-8.5 3.1-.5 2.1-4.8 2.1-4.8h7.3zM121.3 108.8H138c.5 0 4.5 2.1 5 6.7.1.8-.6 1.8-1.9 1.8-1.3 0-2.8-2.8-3.8-2.7-1.9.1-1.2 5-3.9 4.7-1.9-.2-1.8-3.5-4.2-5.7-1.2-1.1-3.2-1.3-5-1.7-2.4-.5-2.9-3.1-2.9-3.1z"/><path class="st0" d="M134.7 44c-.9 21-9.9 0-13 2.9-3.1 3 9.7 13.4-4.2 13.4-18.8 0 .1-10.5-2.8-13-3.6-3.2-14.5 13-13.6-4.1-.6-16.4 10.3.4 13.3-2.6 3.2-3.1-14.6-13.8 3.8-13.8 20 0-.8 10.8 2.2 13.9 3.1 3.2 14.9-13.8 14.3 3.3z"/><path class="st1" d="M129.1 46.1c-.6 13.9-6.5 0-8.6 1.9-2.1 2 6.4 8.9-2.7 8.9-12.4 0 0-6.9-1.9-8.6-2.4-2.1-9.6 8.6-9-2.7-.4-10.8 6.8.3 8.8-1.7 2.1-2.1-9.6-9.1 2.5-9.1 13.2 0-.5 7.1 1.4 9.2s9.9-9.2 9.5 2.1z"/><g><path class="st0" d="M75.7 222.8c15.3-5.3 21.8-18 29.3-29.7 6.6-10.3 12.8-20.9 20.2-30.6 9.5-12.4 22.2-19.6 38.4-19.2-10.8 3.1 44.4-14.7 38.6-5.7-8.7 13.5-11.6 24.4-7.1 28.6 5.6 5.2 7.6 12.3 5.3 19.9-3.7 12.5-11 22.7-21.8 29.8-20.3 13.4-43 17.1-66.8 15.7-12-.9-23.9-3.3-36.1-8.8z"/><path class="st1" d="M88.9 219.7c11.8-4.4 16.5-14.4 22.2-23.7 4.9-8.1 9.5-16.5 15.1-24.2 7.1-9.8 16.9-15.7 29.5-15.7-8.3 2.6-13.9 8.6-18.2 15.7-6.5 10.7-12.6 21.7-18.3 33.2 3-2.6 6.3-4.8 8.9-7.7 7-7.7 13.5-15.8 20.5-23.5 5-5.5 11-9.7 18.8-10.4h2.4c-10.1 6.5-17.6 14.7-23.6 24.5.8-.7 1.6-1.5 2.5-2 6.7-4.1 13.2-8.4 20.1-12 3.5-1.8 8.1-3.8 11.7-.6 4.5 4 6.2 9.4 4.5 15.4-2.7 9.8-8.1 17.8-16.4 23.7-15.5 10.9-33.1 14.1-51.6 13.5-9.2-.5-18.5-2.2-28.1-6.2z"/><path class="st2" d="M88.9 219.7c11.8-4.4 20.5 10.8 65.6-15.4 6.7-3.9 22.6 2.1 14.3 7.9-15.5 10.9-33.1 14.1-51.6 13.5-9.4-.3-18.7-2-28.3-6z"/><path class="st1" d="M176.9 146.1c-3.5 4.4 13.7 27.6 30.1 24 .5-.1 1.6 4.4-.9 6.6-3.1 2.8-7 1.3-7.2 1L174.2 155l-.1-.2-4.4-4.1c-.3-.3-1.7-4.1.8-7.4 2-2.6 5.7-1.7 6.1-1.3.1.1 14.5-10.7 17.8-7.6.1 0-15 8.5-17.5 11.7z"/></g></svg>