<svg xmlns="http://www.w3.org/2000/svg" viewBox="0 0 265.4 265.4"><path fill="#fff" d="M0 0h265.4v265.4H0z"/><path fill="#9ac2a9" d="M105.1 130.9V62c0-1.9.9-2.8 2.7-2.7 8.6.6 12.9 1 21.6 1.6 1.7.1 2.6 1.1 2.6 3v111c0 1.9-.9 2.9-2.6 3-12.4.8-18.5 1.2-30.9 2-1.8.1-3-.8-3.6-2.7-7.4-23.5-14.7-47-21.8-70.6v71.9c0 2-.9 3-2.6 3.2-8.6.5-12.9.8-21.6 1.3-1.8.1-2.7-.9-2.7-2.9V57.8c0-2.1.9-3 2.7-2.9 12.4.9 18.6 1.4 31 2.3 1.8.1 3 1.2 3.6 3.2 7.1 23.6 14.2 47.1 21.6 70.5z"/><path fill="#464a45" d="M168.1 182.4c.1 1.4.8 2.1 2.2 2.1h45.8c2.1 0 3.1 1 3.1 3.1v19.7c0 2.1-1 3.1-3.1 3.1h-49.8c-8.1 0-15-2.9-20.7-8.6-5.7-5.7-8.6-12.6-8.6-20.7v-71.3c0-8.1 2.9-15 8.6-20.7 5.7-5.7 12.6-8.6 20.7-8.6h49.8c2.1 0 3.1 1 3.1 3.1v19.7c0 2.1-1 3.1-3.1 3.1h-45.8c-1.4 0-2.1.7-2.2 2.1v73.9z"/></svg>