<svg version="1.1" id="Camada_1" xmlns="http://www.w3.org/2000/svg" x="0" y="0" viewBox="0 0 265.4 265.4" xml:space="preserve"><style>.st2{fill:#ccc}.st4{fill-rule:evenodd;clip-rule:evenodd}</style><path fill="#fff" d="M0 0h265.4v265.4H0z"/><circle transform="matrix(.09171 -.9958 .9958 .09171 -11.106 244.27)" cx="128.3" cy="128.2" fill-rule="evenodd" clip-rule="evenodd" fill="#b03442" r="72"/><path class="st2" d="M50.7 82c-2.1-.8-1.3-2-.5-3 1.1-1.3 2.5-2.4 4-3.8-1.9.1-3.5.1-5.1.2-1.2-3.9.2-8.2 3.7-9.8 3.9-1.9 8.1-3.2 12.3-4.6 1.7-.6 3.7-.6 5.3-1.3 1.3-.6 2.2-1.8 3.3-2.8-.4-.5-.5-.7-.6-.7-.7-.4-1.4-.9-2.1-1.3.7-.6 1.2-1.3 2-1.7 1-.5 2.1-.8 3.1-1.5h-3.5c-2.6-.1-2.8-.5-1.9-3 1.1-2.8 3.2-4.4 5.9-5.4 4.7-1.7 9.5-2.8 14.6-3.1 7.2-.4 14.3-1.5 21.5-2.3 13.4-1.6 26.8-1 40.3-1 1.5 0 3.1.2 4.6.5 1 .2 2 .5 2.7 1.1.9.9 1.9 2 2.1 3.2.1.5-1.6 1.4-2.5 2.1 4 2.4 9.5-.6 13.9 3.2-.7.1-1.5.2-2.2.3 0 .3.1.6.1.8 1 .2 2.1.6 3.1.7 3.5.2 6.9.4 10.4.5 4.5.1 7.4 2.8 10 6 .2.2-.3 1.5-.6 1.6-1.6.5-3.3.7-4.9 1.1-2.1.5-4.3 1.2-6.4 1.8v1c3.3.5 6.5 1.2 9.8 1.5 2.7.3 5.4.1 8.1.3 2.7.2 5.3 1.1 7.2 3.1.8.8 1.6 1.4 1.3 2.9-.1.5 1.2 1.8 2.1 2.1 1.5.6 3.2.6 4.7 1.1 2.7.7 4.1 3.1 4 6.4 0 2.1-1.1 3.2-4 3.9-2.9.6-5.8 1-8.7 1.9 1.7.3 3.3.6 5 .9 1.7.3 2.4 1.1 1.9 2.8-.7 2 .3 3 2 3.8 3.3 1.4 3.5 1.9 3.3 5.5 0 .5-.1 1-.1 1.5-.2 3.3-.9 6.2-4.9 6.8-.5.1-.9.5-1.9 1.1 1 .1 1.5.2 2 .3 2 .3 4.1.3 6.1.8 1 .2 2.1 1.1 2.5 1.9 1.1 2.6 1.9 5.3 2.7 8 .5 1.7-.3 3-1.9 3.8-2.3 1-4.5 2-6.8 3-1.1.5-2.2 1-3.7 1.6 1.3.5 2.2.9 3.7 1.5-1.6 1.6-2.9 3-4.2 4.5-.4.4-.7 1-1.1 1.5.5.4 1.1 1 1.7 1.1 1.4.3 2.9.4 4.4.7 1.3.3 1.9.8 1.4 2.4-.5 1.7-.7 3.5-.7 5.2 0 2.9-1.4 4.4-4 5.4-1.5.5-3 1-4.3 1.7-.8.4-1.4 1.2-2.5 2 1.6.4 2.6.6 3.6.9.1.2.1.4.2.6-1.6 1.2-3.2 2.3-5.2 3.7 4.4 2.2 9.1-.4 13.6 1.6-3.7 1.6-2.8 4.5-2.9 7.2-.1 2.2-1.1 3.3-3.4 3.9-4.2 1.1-8.3 2.7-12.4 4.3-1 .4-1.9 1.3-2.8 1.9.1.2.1.5.2.7 2.3.3 4.5.5 6.8.8-2.1 4.8-4.7 8.4-10.4 8.4.1.2.3.5.4.7.7-.1 1.4-.2 2.2-.2 3.4-.3 6.7-.7 10.1-.9 2-.1 2.5.6 2.2 2.6-.3 1.5-.5 2.9-.8 4.4-1 5.3-3.9 7.9-9.2 8.7-1.2.2-1.7 7.3 3.6 9 4.3 1.4 8.4 1.4 7.4 4.6-1 3.2-27.2-8.7-32-8.9-2.5-.1-5.1-.3-7 2-.3.4-1 .6-1.5.7-5 1-9.9 2.2-15 3-2 .3-4.2 0-6.3-.3-2.4-.3-3.8-1.7-4-4.3 24-5.9 42.5-19.4 54.4-41.3 9-16.7 11.8-34.6 8.4-53.3-6.9-37.8-39.2-65.6-77.4-66.9-38.2-1.3-72.6 24.3-81.8 60.9-5.2 20.7-3 40.6 7.2 59.5 10.1 18.8 25.6 31.5 45.8 38.7-3.8 1.7-23 3-25.2 1.6l2.3-2.3c-1.4-.4-2.5-1-3.6-1-2.3-.1-4.5.1-6.8.2-4.5.2-9 .5-13.5.6-.6 0-1.3-.8-1.9-1.3.4-.5.6-1.3 1.1-1.5 1.7-.7 3.5-1.3 5.3-1.9 0-.2 0-.5-.1-.7-2.1 0-4.3-.3-6.3-.1-4 .5-7.9 1.4-11.9 2-3.9.6-6.7-1.6-7.5-5.6-.1-.3-.2-.7-.1-.8 1.8-2.3-.2-3.6-1.3-5.1-1.1-1.4-.8-2.5.8-3.2.8-.3 1.6-.6 2.3-1.1-1.5.2-2.9.4-4.4.5-2.7.1-5.5.3-8.3.3-1.6 0-2.5-.8-2-2.6 1.1-3.7 2.1-7.5 3.3-11.1.9-2.5 3.2-3.7 5.5-4.7 3-1.3 5.9-2.6 9.4-4.2-1.7-.6-2.8-1-4.7-1.7 1.8-1.1 3.1-1.9 4.6-2.7-1.5-1.8-3.4-2.6-5.6-1.8-2.7 1-4.8.3-6.8-1.5s-2.5-3.3-1.6-5.8c1.6-4.8 3.3-9.6 4.9-14.4.8-2.3 2-4.1 4.5-5 .6-.2 1.6-1 1.5-1.5-.1-.7-.9-1.3-1.4-1.9-.2-.2-.6-.3-.9-.5-2.3-1.2-2.4-1.6-.8-3.6 0-.1.1-.1.1-.2.6-1.2 1.2-2.4 1.7-3.6-1.2-.3-2.5-.7-3.7-.8-1.6-.1-1.9-.8-1.5-2.2.4-1.5.8-3 .7-4.5-.4-6.6 1.7-11.6 7.9-14.6 2-1 4-2.2 6-3.2 1.4-.7 2-1.3.9-2.9-1.5-2.1-1-3.5 1.2-4.9.9-.5 1.7-1.1 2.5-1.6.7-.8 1.1-1.2 1.7-1.6z"/><g opacity=".3"><path class="st4" d="M50.6 102.4L87.5 91c.9-.3 1.6-.2 2.4.2 6 2.5 12.2 4.8 18.2 7.5 11.6 5.1 19.9 2 26.2-4.2 3.7-3.6 6.5-7.8 8.5-12.3 5.3-12.3 10.3-24.7 15.4-37 .2-.4.3-.8.6-1.4.3.5.5.8.6 1.1 8.1 16.8 16.1 33.5 24.2 50.3.4.8.4 1.5.1 2.3-2.2 5.2-4.1 10.5-6.4 15.6-4.4 9.9-.2 17.7 7.5 24.1 4.5 3.7 9.5 6.8 14.9 9.1 11.9 5.1 23.9 10 35.9 14.9 2.7 1.1 5.5 2.2 8.4 3.4-.4.2-.7.3-.9.4-18.1 5.5-36.2 11.1-54.3 16.6-.5.2-1.3.1-1.8-.1-6.3-2.5-12.6-5-18.9-7.7-10.7-4.6-18.7-2.1-24.8 3.5-4.2 3.8-7.2 8.3-9.4 13.3-4 9.2-7.8 18.4-11.6 27.7-1.4 3.5-2.8 7-4.3 10.6-.2-.4-.4-.6-.5-.8-8.1-16.9-16.2-33.7-24.3-50.6-.4-.8-.4-1.4-.1-2.1 2.2-5.2 4.1-10.5 6.4-15.6 4.6-10.1 0-18-7.4-24.2-4.4-3.7-9.3-6.7-14.6-8.9-8.9-3.7-17.7-7.4-26.6-11.1-5.6-2.4-6-11.4-.3-13.2zm191.7 62.1c-1.2-.5-2.2-.9-3.2-1.3-5.3-2.1-10.5-4.3-15.8-6.4-.5-.2-1.2-.4-1.6-.3-3.9 1.1-7.7 2.3-11.5 3.4-2.7.8-5.3 1.8-8 2.6-3.5 1.1-7 2-10.4 3.1-.7.2-1.3.5-1.9.7-3.5 1.1-7.1 2.1-10.6 3.1-.8.2-1.6.6-2.4.9-2.5.8-5 1.7-7.5 2.5-.1 0-.2.2-.3.4l1.2.6c5.6 2.3 11.2 4.7 16.9 7 .5.2 1.2.2 1.7 0 6.6-2 13.1-4 19.7-6 7.8-2.4 15.5-4.8 23.3-7.1 3.3-1 6.7-2 10.4-3.2zm-116.2-33.2c-2.4 5.8 1.1 12.7 7.8 15.5 6.7 2.8 14.3.3 16.7-5.4 2.4-5.8-1.1-12.8-7.9-15.6-6.8-2.8-14.2-.4-16.6 5.5zm2.3 69.7c-.8.2-1.2.2-1.6.3-1.1.4-2.2.7-3.3 1.1-1.8.6-1.8.6-2.7-1.1-1.7-3.2-3.3-6.4-4.9-9.6-.4-.9-1-1-1.9-.7-3.4 1.2-6.9 2.3-10.3 3.4-1 .3-1.3.9-.8 1.9.8 1.6 1.5 3.2 2.3 4.8 3.3 6.8 6.5 13.7 9.8 20.5.9 1.9 1.8 3.7 2.7 5.6 3.5-8.6 7-17.3 10.7-26.2z"/><path class="st4" d="M242.3 164.5c-3.7 1.1-7.1 2.2-10.5 3.3-7.8 2.4-15.5 4.8-23.3 7.1-6.6 2-13.1 4-19.7 6-.5.2-1.2.2-1.7 0-5.6-2.3-11.2-4.7-16.9-7-.4-.2-.7-.3-1.2-.6.1-.2.2-.4.3-.4 2.5-.9 5-1.7 7.5-2.5.8-.3 1.6-.7 2.4-.9 3.5-1.1 7.1-2.1 10.6-3.1.7-.2 1.3-.5 1.9-.7 3.5-1 7-2 10.4-3.1 2.7-.8 5.3-1.8 8-2.6 3.8-1.2 7.6-2.3 11.5-3.4.4-.1 1.1.1 1.6.3 5.3 2.1 10.5 4.2 15.8 6.4 1 .3 2 .7 3.3 1.2zM128.4 201c-3.6 8.9-7.2 17.6-10.7 26.3-.9-1.9-1.8-3.7-2.7-5.6-3.3-6.8-6.5-13.7-9.8-20.5-.8-1.6-1.5-3.2-2.3-4.8-.5-1-.2-1.6.8-1.9 3.4-1.1 6.9-2.3 10.3-3.4.8-.3 1.4-.2 1.9.7 1.6 3.2 3.3 6.4 4.9 9.6.9 1.7.9 1.7 2.7 1.1 1.1-.4 2.2-.7 3.3-1.1.4-.2.8-.2 1.6-.4z"/></g><path class="st4" d="M48.2 101.4c12.3-3.9 24.5-7.8 36.8-11.7.9-.3 1.6-.2 2.4.1 6.1 2.4 12.2 4.7 18.2 7.3 11.7 5 20 1.8 26.1-4.4 3.6-3.6 6.4-7.8 8.3-12.4 5.1-12.3 10.1-24.8 15.1-37.2.2-.4.3-.8.5-1.4.3.5.5.8.6 1.1 8.2 16.7 16.4 33.4 24.7 50 .4.8.5 1.5.1 2.3-2.1 5.2-4 10.5-6.3 15.7-4.3 9.9 0 17.7 7.7 24 4.5 3.7 9.6 6.7 15 8.9 12 5 24 9.7 36.1 14.5 2.7 1.1 5.5 2.2 8.5 3.4-.4.2-.6.3-.9.4-18 5.7-36.1 11.5-54.1 17.2-.5.2-1.3.1-1.8-.1-6.3-2.5-12.7-4.9-18.9-7.5-10.8-4.5-18.7-1.9-24.8 3.7-4.1 3.8-7.1 8.4-9.3 13.3-3.9 9.2-7.6 18.5-11.3 27.8-1.4 3.5-2.8 7-4.2 10.7-.3-.4-.4-.6-.5-.8-8.3-16.8-16.5-33.6-24.8-50.3-.4-.8-.4-1.4-.1-2.1 2.1-5.2 4-10.5 6.3-15.7 4.5-10.2-.2-18-7.7-24.1-4.4-3.6-9.4-6.6-14.7-8.8-8.9-3.7-17.8-7.2-26.7-10.8-5.5-2.3-5.9-11.3-.3-13.1zm192.3 60.1c-1.2-.5-2.2-.9-3.2-1.3-5.3-2.1-10.5-4.2-15.8-6.2-.5-.2-1.2-.4-1.6-.3-3.8 1.1-7.7 2.3-11.5 3.6-2.7.9-5.3 1.8-7.9 2.7-3.4 1.1-6.9 2.1-10.4 3.2-.7.2-1.3.6-1.9.8-3.5 1.1-7.1 2.1-10.6 3.2l-2.4.9c-2.5.9-5 1.7-7.4 2.6-.1 0-.2.2-.3.4.4.2.8.4 1.2.5 5.6 2.3 11.3 4.6 16.9 6.8.5.2 1.2.2 1.7 0 6.6-2 13.1-4.2 19.6-6.2 7.7-2.5 15.5-4.9 23.2-7.4 3.4-1 6.8-2.1 10.4-3.3zm-116.5-32c-2.3 5.8 1.3 12.7 8 15.5 6.8 2.7 14.3.2 16.6-5.6 2.3-5.8-1.3-12.8-8-15.5-6.9-2.8-14.3-.3-16.6 5.6zm3 69.6c-.8.2-1.2.2-1.6.4-1.1.4-2.2.8-3.3 1.1-1.8.6-1.8.6-2.7-1.1-1.7-3.2-3.4-6.4-5-9.6-.5-.9-1.1-1-1.9-.7-3.4 1.2-6.8 2.4-10.2 3.5-1 .3-1.3.9-.8 1.9.8 1.6 1.6 3.2 2.3 4.8 3.3 6.8 6.7 13.6 10 20.4.9 1.9 1.8 3.7 2.8 5.6 3.4-8.6 6.8-17.3 10.4-26.3z"/><path class="st4" d="M240.5 161.5c-3.6 1.2-7.1 2.3-10.5 3.4-7.7 2.5-15.5 4.9-23.2 7.4-6.5 2.1-13.1 4.2-19.6 6.2-.5.2-1.2.2-1.7 0-5.7-2.2-11.3-4.5-16.9-6.8-.4-.1-.7-.3-1.2-.5.1-.2.2-.4.3-.4 2.5-.9 5-1.7 7.4-2.6.8-.3 1.6-.7 2.4-.9 3.5-1.1 7.1-2.1 10.6-3.2.7-.2 1.3-.6 1.9-.8 3.5-1.1 6.9-2.1 10.4-3.2 2.7-.8 5.3-1.8 7.9-2.7 3.8-1.2 7.6-2.4 11.5-3.6.4-.1 1.1.1 1.6.3 5.3 2 10.6 4.1 15.8 6.2 1.1.4 2.1.7 3.3 1.2zM127 199.1c-3.6 9-7 17.6-10.5 26.4-.9-1.9-1.9-3.7-2.8-5.6-3.3-6.8-6.7-13.6-10-20.4-.8-1.6-1.5-3.2-2.3-4.8-.5-1-.2-1.6.8-1.9 3.4-1.2 6.8-2.4 10.2-3.5.8-.3 1.4-.2 1.9.7 1.7 3.2 3.3 6.4 5 9.6.9 1.7.9 1.7 2.7 1.1 1.1-.4 2.2-.8 3.3-1.1.5-.2.9-.3 1.7-.5z"/><path class="st2" d="M50.7 82c-2.1-.8-1.3-2-.5-3 1.1-1.3 2.5-2.4 4-3.8-1.9.1-3.5.1-5.1.2-1.2-3.9.2-8.2 3.7-9.8 3.9-1.9 8.1-3.2 12.3-4.6 1.7-.6 3.7-.6 5.3-1.3 1.3-.6 2.2-1.8 3.3-2.8-.4-.5-.5-.7-.6-.7-.7-.4-1.4-.9-2.1-1.3.7-.6 1.2-1.3 2-1.7 1-.5 2.1-.8 3.1-1.5h-3.5c-2.6-.1-2.8-.5-1.9-3 1.1-2.8 3.2-4.4 5.9-5.4 4.7-1.7 9.5-2.8 14.6-3.1 7.2-.4 14.3-1.5 21.5-2.3 13.4-1.6 26.8-1 40.3-1 1.5 0 3.1.2 4.6.5 1 .2 2 .5 2.7 1.1.9.9 1.9 2 2.1 3.2.1.5-1.6 1.4-2.5 2.1 4 2.4 9.5-.6 13.9 3.2-.7.1-1.5.2-2.2.3 0 .3.1.6.1.8 1 .2 2.1.6 3.1.7 3.5.2 6.9.4 10.4.5 4.5.1 7.4 2.8 10 6 .2.2-.3 1.5-.6 1.6-1.6.5-3.3.7-4.9 1.1-2.1.5-4.3 1.2-6.4 1.8v1c3.3.5 6.5 1.2 9.8 1.5 2.7.3 5.4.1 8.1.3 2.7.2 5.3 1.1 7.2 3.1.8.8 1.6 1.4 1.3 2.9-.1.5 1.2 1.8 2.1 2.1 1.5.6 3.2.6 4.7 1.1 2.7.7 4.1 3.1 4 6.4 0 2.1-1.1 3.2-4 3.9-2.9.6-5.8 1-8.7 1.9 1.7.3 3.3.6 5 .9 1.7.3 2.4 1.1 1.9 2.8-.7 2 .3 3 2 3.8 3.3 1.4 3.5 1.9 3.3 5.5 0 .5-.1 1-.1 1.5-.2 3.3-.9 6.2-4.9 6.8-.5.1-.9.5-1.9 1.1 1 .1 1.5.2 2 .3 2 .3 4.1.3 6.1.8 1 .2 2.1 1.1 2.5 1.9 1.1 2.6 1.9 5.3 2.7 8 .5 1.7-.3 3-1.9 3.8-2.3 1-4.5 2-6.8 3-1.1.5-2.2 1-3.7 1.6 1.3.5 2.2.9 3.7 1.5-1.6 1.6-5.7 3.8-9.1-14.9-6.9-37.8-39.2-65.6-77.4-66.9-38.2-1.3-72.6 24.3-81.8 60.9-5.2 20.7-17.7 17.4-16.1 15.3 0-.1.1-.1.1-.2.6-1.2 1.2-2.4 1.7-3.6-1.2-.3-2.5-.7-3.7-.8-1.6-.1-1.9-.8-1.5-2.2.4-1.5.8-3 .7-4.5-.4-6.6 1.7-11.6 7.9-14.6 2-1 4-2.2 6-3.2 1.4-.7 2-1.3.9-2.9-1.5-2.1-1-3.5 1.2-4.9.9-.5 1.7-1.1 2.5-1.6.6-.4 1-.8 1.6-1.2z"/><path class="st4" d="M122.1 134.3s.6 2.3 3 5c11.9 14 25 1.1 25 1.1l-27.2 48.9-7.9-31 7.1-24z"/></svg>