<svg version="1.1" id="Camada_1" xmlns="http://www.w3.org/2000/svg" x="0" y="0" viewBox="0 0 265.4 265.4" xml:space="preserve"><style>.st6{fill:#252833}.st7{fill:#fff}.st8{fill:#333645}</style><radialGradient id="SVGID_1_" cx="132.724" cy="132.724" r="132.724" gradientUnits="userSpaceOnUse"><stop offset=".233" stop-color="#94007c"/><stop offset="1" stop-color="#5a006a"/></radialGradient><path fill="url(#SVGID_1_)" d="M0 0h265.4v265.4H0z"/><radialGradient id="SVGID_2_" cx="134.02" cy="134.927" r="84.377" gradientUnits="userSpaceOnUse"><stop offset=".233" stop-color="#94007c"/><stop offset="1" stop-color="#5a006a"/></radialGradient><path d="M215.2 140.2l-69.6 75.2c-4.5 4.8-12.1 5.1-17 .7l-75.2-69.6c-4.8-4.5-5.1-12.1-.7-17l69.6-75.2c4.5-4.8 12.1-5.1 17-.7l75.2 69.6c4.9 4.6 5.2 12.2.7 17z" fill="url(#SVGID_2_)"/><radialGradient id="SVGID_3_" cx="59.098" cy="137.77" r="5.072" gradientUnits="userSpaceOnUse"><stop offset=".233" stop-color="#94007c"/><stop offset="1" stop-color="#5a006a"/></radialGradient><circle cx="59.1" cy="137.8" r="5.1" fill="url(#SVGID_3_)"/><radialGradient id="SVGID_4_" cx="210.252" cy="132.698" r="5.072" gradientUnits="userSpaceOnUse"><stop offset=".233" stop-color="#94007c"/><stop offset="1" stop-color="#5a006a"/></radialGradient><circle cx="210.3" cy="132.7" r="5.1" fill="url(#SVGID_4_)"/><g><radialGradient id="SVGID_5_" cx="130.448" cy="59.319" r="5.072" gradientUnits="userSpaceOnUse"><stop offset=".233" stop-color="#94007c"/><stop offset="1" stop-color="#5a006a"/></radialGradient><circle cx="130.4" cy="59.3" r="5.1" fill="url(#SVGID_5_)"/></g><g><radialGradient id="SVGID_6_" cx="137.211" cy="210.474" r="5.072" gradientUnits="userSpaceOnUse"><stop offset=".233" stop-color="#94007c"/><stop offset="1" stop-color="#5a006a"/></radialGradient><circle cx="137.2" cy="210.5" r="5.1" fill="url(#SVGID_6_)"/></g><g><path class="st6" d="M124.6 21.6c-.1 0-.2 0-.3.1l.5.5c1.6 1.6 3.2 3.2 4.6 5.1.9 1.2 1.3 2.5 1.2 4 0 1.2-.3 2.3-1.1 3.3-.5.6-1.1 1.3-1.6 1.9-.7.8-1.6 1.3-2.6 1.6-1.8.6-3.5.4-5-.7-1.4-1-2.7-2.1-4.1-3.1-.6-.5-1.2-1-1.8-1.6 0 .7 0 1.3.1 1.9.5 3.2 2.1 5.8 4.8 7.6 3.5 2.3 7.2 2.6 11.1.9.4-.2.6-.1.9.1 3.6 3.2 7.1 6.4 10.7 9.6 4.3 3.9 8.6 7.7 12.9 11.6 4.3 3.9 12.6 11.4 17 15.3.2.2.3.4.2.7-.2 1.1-.3 2.2 0 3.3.7 3.1 2.5 5.3 5.5 6.3 3.1 1 5.9.4 8.3-1.8 3.6-3.3 3.6-9-.1-12.2-2.3-2.1-5-2.6-8-1.8-.3.1-.5 0-.8-.2-3.3-3-10.7-9.7-14-12.7-5.8-5.2-11.6-10.5-17.4-15.7-3-2.7-6-5.5-9.1-8.2-.3-.2-.3-.4-.2-.8 1-2.8.9-5.6-.3-8.3-2-4.4-6.7-7.2-11.4-6.7zm59.8 60.2c.1 2.4-1.7 4.4-4.1 4.5-2.3.1-4.3-1.7-4.5-4.1-.1-2.4 1.8-4.4 4.1-4.5 2.4-.1 4.4 1.7 4.5 4.1z" id="aXo4f3.tif_1_"/></g><g><path class="st6" d="M141.1 242.7c.1 0 .2 0 .3-.1l-.5-.5c-1.6-1.6-3.2-3.2-4.6-5.1-.9-1.2-1.3-2.5-1.2-4 0-1.2.3-2.3 1.1-3.3.5-.6 1.1-1.3 1.6-1.9.7-.8 1.6-1.3 2.6-1.6 1.8-.6 3.5-.4 5 .7 1.4 1 2.7 2.1 4.1 3.1.6.5 1.2 1 1.8 1.6 0-.7 0-1.3-.1-1.9-.5-3.2-2.1-5.8-4.8-7.6-3.5-2.3-7.2-2.6-11.1-.9-.4.2-.6.1-.9-.1-3.6-3.2-7.1-6.4-10.7-9.6-4.3-3.9-8.6-7.7-12.9-11.6-4.3-3.9-14.5-12.9-18.8-16.8-.2-.2-.3-.4-.2-.7.2-1.1.3-2.2 0-3.3-.7-3.1-2.5-5.3-5.5-6.3-3.1-1-5.9-.4-8.3 1.8-3.6 3.3-3.6 9 .1 12.2 2.3 2.1 5 2.6 8 1.8.3-.1.5 0 .8.2 3.3 3 12.5 11.1 15.9 14.1 5.8 5.2 11.6 10.5 17.4 15.7 3 2.7 6 5.5 9.1 8.2.3.2.3.4.2.8-1 2.8-.9 5.6.3 8.3 1.9 4.5 6.6 7.3 11.3 6.8zm-61.7-61.6c-.1-2.4 1.7-4.4 4.1-4.5 2.3-.1 4.3 1.7 4.5 4.1.1 2.4-1.8 4.4-4.1 4.5-2.3 0-4.3-1.8-4.5-4.1z" id="aXo4f3.tif_4_"/></g><g><path class="st7" d="M214.1 137.3l-69.6 75.2c-4.5 4.8-12.1 5.1-17 .7l-75.2-69.6c-4.8-4.5-5.1-12.1-.7-17l69.6-75.2c4.5-4.8 12.1-5.1 17-.7l75.2 69.6c4.9 4.5 5.2 12.1.7 17z"/><circle class="st8" cx="58" cy="134.8" r="5.1"/><circle class="st8" cx="209.1" cy="129.8" r="5.1"/><circle class="st8" cx="129.3" cy="56.4" r="5.1"/><circle class="st8" cx="136.1" cy="207.5" r="5.1"/></g><g><path class="st6" d="M180.8 191.9H85c-6.6 0-12-5.4-12-12V84.1c0-6.6 5.4-12 12-12h95.8c6.6 0 12 5.4 12 12v95.8c0 6.6-5.4 12-12 12z"/><circle class="st8" cx="184.1" cy="182.1" r="5.2"/><circle class="st8" cx="82.7" cy="182.1" r="5.2"/><g><circle class="st8" cx="183.8" cy="80.7" r="5.2"/><circle class="st8" cx="82.3" cy="80.7" r="5.2"/></g><g><path class="st7" d="M79.7 103.5c1.5-.2 3-.3 4.7-.5 1.5-13.2 8.8-20.9 22.5-22.3v-4.4h6.6v14.2h-6.4c-.1-1.5-.1-2.9-.2-4.4-8.7-.9-17.4 7.8-16.9 16.9 1.3.1 2.7.2 4.3.3v6.6H79.7v-6.4zM79.7 149.9h14.6v6.3c-1.4.1-2.9.2-4.3.3-1 8.6 6.5 16.3 16.8 17.3v-4.6h6.7v14.1H107V179c-13.6-1.5-21.1-9-22.6-22.7h-4.7v-6.4zM79.7 114.7h14.6v6.9H79.7v-6.9zM79.7 126.4h14.6v6.4H79.7v-6.4zM79.7 138.1h14.6v6.4H79.7v-6.4zM153.7 169.1h6.3c.1 1.6.2 3 .3 4.5 9.3.4 18-8.5 16.8-17.1-1.4-.1-2.7-.1-4.3-.2v-6.2h14.3v6.2c-1.4.1-2.9.2-4.3.2-3.4 15.2-8.8 20.7-22.6 22.5v4.4h-6.6c.1-4.7.1-9.3.1-14.3zM160.1 85.9v4.6h-6.4V76.3h6.4c.1 1.5.1 2.9.2 4.4 13.4 1.4 20.4 9.4 22.6 22.4 1.3.1 2.8.2 4.4.4v3c0 1-.2 1.9-.3 3.2h-14.2v-6.2l4.2-.3c2.2-7.2-7.3-18.2-16.9-17.3zM172.8 121.4V115h14.3v6.4h-14.3zM172.8 126.6h14.3v6.3h-14.3v-6.3zM172.8 138.3h14.3v6.2h-14.3v-6.2zM142.2 90.5V76.2h6.3c0 4.3.1 8.4-.1 12.6 0 .6-1.1 1.5-1.8 1.6-1.3.3-2.6.1-4.4.1zM136.6 90.7c-2-.1-3.8-.2-6-.3V76.2h6v14.5zM118.8 76.2h6.2v14.3h-6.2V76.2zM130.4 169.1h6.2v14.2h-6.2v-14.2zM148.3 183.4H142v-14.2h6.3v14.2zM118.8 169.1h6.3v14.2h-6.3v-14.2z"/></g></g><g id="RlqliZ.tif"><path class="st8" d="M160.5 166.4c-.8-1.4-1.2-2.2-1.7-3-3.7-6.4-12-7.7-17.5-2.9-1.7 1.5-14.1 1.9-15.8.5-7.1-5.7-14.4-4.2-18.7 3.7l-1.2 1.8c-.8-2.7-2-4.8-1.9-6.9 0-3.9.5-7.8 1.3-11.6 1.1-5.3 5.1-7.5 10.2-8.1 1.9-.3 3.9-.3 5.9-.5 2.3 5.7 7.4 6.3 12.5 6.4 6.2.1 10-2.1 11.8-6.4 2.2.2 4.4.3 6.6.6 5.7.8 9.2 4 9.9 9.7.5 4 .6 8.1.5 12.2-.2 1.4-1.2 2.7-1.9 4.5zM140.4 100.4c4.9 2.6 7.5 6.3 8.4 11.3.3 1.4.2 2.9 2.1 3.4.6.1 1.2 1.5 1.1 2.2-.1.7-1 1.4-1.8 1.8-.6.3-1.5.2-2.2.2h-30c-.7 0-1.4.2-1.9-.1-.8-.5-1.8-1.2-1.9-2-.1-.6.7-2 1.2-2.1 1.8-.4 1.7-1.7 1.9-2.9.8-5.1 3.5-8.9 8.3-11.6.7 3 1.3 5.8 1.9 8.5.4 0 .8.1 1.2.1.2-.8.7-1.7.6-2.5-.2-2.1-.9-4.2-1-6.3 0-.9.8-2.5 1.5-2.6 2.2-.3 4.4-.2 6.6.1.6.1 1.4 1.6 1.3 2.4-.2 2.2-.8 4.4-1.1 6.6-.1.7.4 1.4.7 2.1.6-.6 1.5-1 1.7-1.7.7-2.3 1-4.5 1.4-6.9z"/><path class="st8" d="M149.1 122.5c-1.3 6.7-4 12.5-9.1 16.7-4.4 3.6-9.3 3.6-13.7 0-5.2-4.3-7.8-10-9.1-16.7h31.9z"/></g></svg>