<svg version="1.1" id="Camada_1" xmlns="http://www.w3.org/2000/svg" x="0" y="0" viewBox="0 0 265.4 265.4" xml:space="preserve"><style>.st0{fill:#fff}.st2{fill:#d5eafb}.st5{fill:#e2e2e2}</style><path class="st0" d="M0 0h265.4v265.4H0z"/><circle cx="134" cy="135.3" r="73.9" fill="#a0d2f8"/><path class="st2" d="M86.1 140.1c-3.9-17.4.6-30.6 17.4-50.6-3.3-3.9-6.6-7.9-9.9-11.9 31.9-29.4 87.5-20 108.1 20.7-3.1 1.7-6.2 3.3-10 5.3-10.8-18.2-26.5-28.9-47.4-31.2-9.7-1.1-19.1.3-28.3 5.1 1.9 5 3.7 9.7 5.7 14.6-2.9 1.9-5.6 3.6-8.1 5.4-10.9 8-16.2 19-17.2 32.3-.7 9.1-.6 9.2-10.3 10.3z"/><path class="st0" d="M86.1 134.6c-3.3-17.5 1.6-30.6 19.1-50-3.1-4-6.3-8.1-9.5-12.2 32.9-28.3 88.2-17 107.4 24.3-3.2 1.6-6.3 3.1-10.1 5-10.2-18.5-25.5-29.8-46.3-32.8-9.6-1.4-19.1-.4-28.4 4.2 1.8 5 3.4 9.8 5.2 14.8-3 1.8-5.7 3.4-8.3 5.1-11.1 7.6-16.8 18.5-18.3 31.7-1.2 9.1-1 9.1-10.8 9.9z"/><path class="st0" d="M160.9 180.6c-13.7 11.4-27.5 13.4-52.9 7.6-2 4.7-4 9.5-6 14.3-40.7-15-57.7-68.8-30.9-105.7 2.9 2 5.8 4 9.3 6.4-11.2 17.9-13.7 36.8-6.2 56.4 3.5 9.1 8.9 16.9 17.5 22.8 3.5-4 6.9-7.7 10.4-11.7 3 1.7 5.7 3.4 8.5 4.8 12.1 6 24.3 5.7 36.6.6 8.4-3.5 8.3-3.6 13.7 4.5z"/><path class="st2" d="M156 87.1c16.9 5.7 25.8 16.4 34.2 41.1 5-.8 10.2-1.5 15.3-2.3 8.5 42.5-28.3 85.2-73.8 81.7.2-3.5.4-7.1.6-11.3 21.1.2 38.5-7.6 51.3-24.3 5.9-7.7 9.7-16.4 10.3-26.8-5.2-.9-10.2-1.8-15.4-2.7-.1-3.5-.1-6.6-.4-9.8-1.2-13.4-7.9-23.7-18.6-31.5-7.5-5.4-7.6-5.2-3.5-14.1z"/><path class="st0" d="M158.3 91.8c16.9 5.7 25.8 16.4 34.2 41.1 5-.8 10.2-1.5 15.3-2.3 8.5 42.5-28.3 85.2-73.8 81.7.2-3.5.4-7.1.6-11.3 21.1.2 38.5-7.6 51.3-24.3 5.9-7.7 9.7-16.4 10.3-26.8-5.2-.9-10.2-1.8-15.4-2.7-.1-3.5-.1-6.6-.4-9.8-1.2-13.4-7.9-23.7-18.6-31.5-7.5-5.4-7.6-5.3-3.5-14.1z"/><circle class="st2" cx="135.2" cy="135.3" r="30.5"/><path d="M123.4 113.4c15.5-7.8 33.6 1.7 36 18.8 1.8 13.3-7.9 25.9-21.2 27.6-17.8 2.3-32-14-27.2-31.3.1-.4.3-.7.5-1.1.4.3.7.5 1.1.8 3.1 2.2 7.3 2.2 10.4.1 3.2-2.2 4.6-6 3.7-9.7-.6-2.1-1.9-3.7-3.3-5.2z" fill="#253b4f"/><circle cx="134" cy="135.3" r="14.1" fill="#0b0c11"/><circle class="st0" cx="118.8" cy="122.4" r="11.7"/><circle class="st0" cx="148.1" cy="144.7" r="8.2"/><path class="st5" d="M203.9 84.8c-3.2 1.8-6.1 3.3-9.3 5.1-5.5-10.8-12.4-20-22.3-27.8.2 5.3.3 10 .5 15.6-12.3-11-25.5-18.6-41.8-21.7 2.4 4.6 4.6 8.9 6.7 13-7-.9-13.8-2.4-20.5-2.6-6.7-.2-13.4.7-18.5 1 9.9-2.9 21.6-3.6 34.4-1.7-3.6-5.3-6.7-9.8-10-14.7 14.9.9 28.7 4.5 41.3 12 .2-.1.5-.3.7-.4-1-5.4-2-10.8-3.1-16.6 17.7 9.2 32.2 21.2 41.9 38.8z"/><path d="M203.9 81.3c-3.2 1.8-6.1 3.3-9.3 5.1-5.5-10.8-12.4-20-22.3-27.8.2 5.3.3 10 .5 15.6-12.3-11.1-25.5-18.7-41.8-21.8 2.4 4.6 4.6 8.9 6.7 13-7-.9-13.8-2.4-20.5-2.6-6.7-.2-13.4.7-18.5 1 9.9-2.9 21.6-3.6 34.4-1.7-3.6-5.3-6.7-9.8-10-14.7 14.9.9 28.7 4.5 41.3 12 .2-.1.5-.3.7-.4-1-5.4-2-10.8-3.1-16.6 17.7 9.3 32.2 21.2 41.9 38.9z" fill="#2662c4"/><path class="st5" d="M153.5 222.9c.1-3.7.1-7 .2-10.6 12.1.6 23.6-.9 35.2-5.6-4.7-2.5-8.8-4.7-13.8-7.3 15.7-5.1 28.9-12.9 39.6-25.5-5.2-.2-10-.4-14.7-.6 4.3-5.6 8.9-10.8 12.4-16.5 3.5-5.7 6.1-12 8.3-16.6-2.4 10-7.6 20.5-15.6 30.7 6.4-.5 11.9-.9 17.8-1.4-8.2 12.6-18.2 22.6-30.9 29.9v.8c5.2 1.8 10.4 3.6 16 5.5-16.7 10.8-34.3 17.5-54.5 17.2z"/><g><path d="M150 221.7c.1-3.7.1-7 .2-10.6 12.1.6 23.6-.9 35.2-5.6-4.7-2.5-8.8-4.7-13.8-7.3 15.7-5.1 28.9-12.9 39.6-25.5-5.2-.2-10-.4-14.7-.6 4.3-5.6 8.9-10.8 12.4-16.5 3.5-5.7 6.1-12 8.3-16.6-2.4 10-7.6 20.5-15.6 30.7 6.4-.5 11.9-.9 17.8-1.4-8.2 12.6-18.2 22.6-30.9 29.9v.8c5.2 1.8 10.4 3.6 16 5.5-16.7 10.8-34.3 17.5-54.5 17.2z" fill="#c62424"/></g><g><path class="st5" d="M59.1 104c3.1 1.9 5.9 3.7 9 5.6-6.7 10.1-11.3 20.7-13.1 33.1 4.5-2.8 8.5-5.2 13.4-8.1-3.6 16.2-3.7 31.5 1.7 47.1 2.9-4.4 5.4-8.4 8-12.3 2.6 6.6 4.7 13.1 7.9 19.1 3.1 5.9 7.2 11.3 10 15.6-7.4-7.2-13.8-17-18.4-29.1-2.8 5.7-5.2 10.7-7.9 16-6.6-13.4-10.2-27.2-9.9-41.9-.2-.1-.5-.3-.7-.4-4.2 3.5-8.4 7.1-12.9 10.9-.9-19.8 2.3-38.3 12.9-55.6z"/></g><g><path d="M55.6 104c3.1 1.9 5.9 3.7 9 5.6-6.7 10.1-11.3 20.7-13.1 33.1 4.5-2.8 8.5-5.2 13.4-8.1-3.6 16.2-3.7 31.5 1.7 47.1 2.9-4.4 5.4-8.4 8-12.3 2.6 6.6 4.7 13.1 7.9 19.1 3.1 5.9 7.2 11.3 10 15.6-7.4-7.2-13.8-17-18.4-29.1-2.8 5.7-5.2 10.7-7.9 16-6.6-13.4-10.2-27.2-9.9-41.9-.2-.1-.5-.3-.7-.4-4.2 3.5-8.4 7.1-12.9 10.9-.9-19.8 2.3-38.3 12.9-55.6z" fill="#26c480"/></g></svg>