<svg version="1.1" id="Camada_1" xmlns="http://www.w3.org/2000/svg" x="0" y="0" viewBox="0 0 265.4 265.4" xml:space="preserve"><style>.st0{fill:#fff}.st1{fill:#6daba8}.st2{fill:#c45468}.st3{fill:#f4df80}.st4{fill:#73649e}.st5{fill:#d6d6d6}.st6{font-family:&apos;Stark&apos;}.st7{font-size:36.8964px}</style><path class="st0" d="M0 0h265.4v265.4H0z"/><path class="st1" d="M81.3 127.7L65 114.4V68.1l16.3 13.1z"/><path class="st2" d="M97.5 141.2l-16.2-13.4V70.9l16.2 13.2z"/><path class="st3" d="M113.8 154.7l-16.3-13.4V58.5l16.3 13.2z"/><path class="st4" d="M130.1 168l-16.3-13.3V85.9l16.3 13.2zM178.9 127.8l16.2-13.4V45.7l-16.2 13.1z"/><path class="st3" d="M162.6 141.2l16.3-13.4V86.9L162.6 100z"/><path class="st2" d="M146.3 154.7l16.3-13.4V72.5l-16.3 13.2z"/><path class="st1" d="M130.1 168l16.2-13.3V72.3l-16.2 13.2z"/><text transform="translate(36.207 193.498)"><tspan x="0" y="0" class="st5 st6 st7">SIDE </tspan><tspan x="81.7" y="0" class="st5 st6" font-size="20.698">BY</tspan><tspan x="108.2" y="0" class="st5 st6 st7"> SIDE</tspan></text><path class="st2" d="M222.2 215.5l-65.3-.3-117.8-14.8.4-1.3h182.7z"/><g><text transform="translate(168.65 212.374)" class="st0 st6" font-size="13.598">Arena</text></g></svg>