<svg version="1.1" id="Camada_1" xmlns="http://www.w3.org/2000/svg" x="0" y="0" viewBox="0 0 265.4 265.4" xml:space="preserve"><style>.st0{fill:#fff}.st1{fill:#eadba4}.st2{fill:#967a06}.st3{fill:#aa8b09}.st4{fill:#776104}</style><path class="st0" d="M0 0h265.4v265.4H0z"/><path class="st1" d="M240 195.2l-108.5-5.7-106 3.9 33.8-58s36.7-12.1 49.2-10.6c6.3.8 22.7 11.2 22.7 11.2s21.1-7.4 28.4-8.5c19.3-2.7 48.9 7.9 48.9 7.9l31.5 59.8z"/><path class="st0" d="M222.9 182.3c-.5-1.5-1-2.9-1.4-4.2-4.7-13.6-9.4-27.3-14.1-40.9-.3-.7-.5-1.2-1.5-1.2-6-.1-11.3-2.1-16.6-4.8-4.6-2.3-9.5-3.7-14.6-4.1-1.5-.1-3-.4-4.5-.4-1.7 0-3.4.1-5.1.2v.3c3 .2 6.1.4 9.1.6v.3h-3.4c-11.3-.5-22 1.9-32.1 7-.3.2-.6.4-.9.5-2.4.6-2.8 2.5-2.8 4.6-.2 4.9-.4 9.8-.7 14.7-.2 4.5-.6 9.1-.9 13.6v-1.1-29.7c0-1.1.3-1.7 1.3-2.1l14.7-5.7c7.4-3 15.2-3.8 23.1-3.4 6.7.3 13.2 1.4 19.3 4.5 4.7 2.4 9.8 3.4 15.1 3.7.9.1 1.3.3 1.6 1.2 2.8 8.2 5.7 16.4 8.5 24.6 2.5 7.3 5.1 14.6 7.6 21.9.1.3.2.7.3 1.2-1.9.2-3.7.4-5.5.4-5.6.1-11.2-.4-16.6-1.7-10.4-2.6-20.6-5.4-30.9-8.1-5.7-1.5-11.5-3-17.5-3-7 0-13.6 1.4-19.7 4.9.3-.3.6-.6.9-.8 3.6-2.8 7.7-4.1 12.1-4.7 7.7-1.1 15.3-.4 22.9.9 8.1 1.5 16 3.6 23.7 6.6 6 2.4 12.2 3.7 18.6 4.2 3.1.3 6.4 0 10 0zM130.9 176c-3.4-1.7-6.8-3.1-10.4-3.9-4.9-1.1-9.9-1.3-14.9-.5-9.5 1.4-18.5 4.6-27.7 7.1-7.2 2-14.4 3.9-21.8 4.8-4.8.6-9.7.9-14.6.3-.3 0-.5-.1-.9-.2.7-2.1 1.4-4.1 2.1-6.1 4.4-12.7 8.8-25.5 13.3-38.2.4-1.1.7-2.3 1.2-3.4.2-.4.8-.9 1.3-1 6-.4 11.8-1.9 17.2-4.6 4.9-2.5 10.2-3.7 15.6-4.5 7.7-1.2 15.3-1.1 22.7 1.4.1 0 .2.1.4.2-2.7-.3-5.2-.7-7.8-.9-3.8-.2-7.7-.4-11.5-.1-5 .3-9.9 1.3-14.6 3.1-2.7 1.1-5.4 2.5-8.1 3.6-4.2 1.8-8.6 3.1-13.2 3.1-.3 0-.5.1-1 .3.4.3.6.5.6.5-.4.5-.9.9-1 1.5-2.5 7.3-5.1 14.6-7.6 21.9-2.4 6.8-4.8 13.7-7.1 20.5-.2.5-.3.9-.5 1.7 2.1.1 4 .2 5.9.2 7.2-.3 14.3-1.4 21.1-3.8 5.6-2 11.2-3.9 17-5.4 4.9-1.3 9.9-2.2 14.8-2.8 4.3-.5 8.7-.7 13-.5 5.6.3 11.1 1.5 15.7 5.1.2.1.5.4.8.6z"/><path class="st0" d="M142.1 188.5c-5.8 4.4-12.8 4.6-18.5.7-.8-.5-1.5-.8-2.4-.8-6.2.4-12.4.8-18.6 1.1-5.3.3-10.5.6-15.8.9-5.7.3-11.4.7-17.1 1-4.9.3-9.9.5-14.8.8-6.2.4-12.5.7-18.7 1.1-3 .2-6 .4-8.9.5-.6 0-1.1.1-2 .2 6.3-13.2 12.5-26.3 18.7-39.4.1 0 .2.1.2.1-5.8 12.6-11.5 25.2-17.4 37.9 2.4-.2 4.5-.3 6.5-.5 4-.3 7.9-.7 11.8-1.1 4.4-.4 8.9-.8 13.3-1.2 4.8-.4 9.5-.8 14.3-1.2l20.1-1.8c4.5-.4 9-.7 13.5-1.1 4.7-.4 9.4-.9 14.1-1.3 1.1-.1 2 0 2.8 1 2 2.6 5 3.4 8.2 3.8 3.2.4 6.4 0 9.6-.7h1.1zM221.4 154.7c1 2.2 2.1 4.4 3.1 6.6 2.9 6.1 5.8 12.3 8.8 18.4.3.6.9.9 1.4 1.3 0 0-.3.1-.6.3 2 4.2 4 8.4 6 12.7-30.3-1.8-60.4-3.6-90.7-5.4 2.3-2.8 4.9-3.5 8.2-3 3.7.5 7.5.8 11.3 1.1l16.5 1.5c3.8.3 7.7.6 11.5.9 4.5.4 9.1.9 13.6 1.3 3.8.3 7.6.6 11.3.9 4.4.4 8.9.8 13.3 1.2 1 .1 2 .2 3.4.3-5.9-12.8-11.6-25.4-17.4-37.9.1-.1.2-.2.3-.2z"/><path class="st0" d="M130.7 178.9c-5.5-3.5-11.5-4.7-17.8-3.6-5.7 1-11.2 2.5-16.8 3.8-4.6 1-9.1 2.1-13.7 3-4.6.9-9.2 1.8-13.8 2.5-4.8.7-9.6 1.4-14.5 1.8-4.9.4-9.8.6-14.7.8-1.3.1-2.7-.2-4.2-.3 5.7-14.3 11.3-28.4 16.9-42.5.1 0 .1 0 .2.1-5.1 13.7-10.1 27.3-15.4 41.4 1.8 0 3.3.1 4.8 0 3-.1 6.1-.2 9.1-.5 5.5-.5 11-1 16.5-1.9 8.2-1.4 16.3-3 24.4-4.8 5-1.1 9.9-2.8 14.9-3.8 6.5-1.3 13.1-1.6 19.4 1 1.7.7 3.3 1.8 5 2.8-.1 0-.2.1-.3.2zM213.5 144.8c5.5 13.9 11.1 27.9 16.7 42-1.2.1-2.2.3-3.2.3-8.7.2-17.4-.8-26-1.9-9.6-1.3-19.2-3.2-28.6-5.4-4.9-1.1-9.7-2.6-14.5-3.7-7.9-1.9-15.7-1.8-23 2.7 1.2-1.5 3.9-3 6.3-3.7 5.1-1.5 10.3-1.6 15.4-.6 4.3.8 8.5 2.1 12.7 3 6.7 1.5 13.4 3.3 20.1 4.5 7.5 1.3 15.2 2.2 22.8 3.1 3.1.4 6.3.4 9.5.6 2 .1 4.1.2 6.4.3-.2-1.1-.2-1.9-.5-2.7-4.6-12.5-9.2-25-13.9-37.4-.1-.3-.2-.7-.3-1 0-.1.1-.1.1-.1zM132 168.9c-.1-2.7-.2-5.4-.4-8.2l-.9-15.6c-.1-2.4-.2-4.8-.4-7.2 0-.4-.4-.9-.7-1.1-6.2-3.7-12.9-6.2-20-7.4-4-.7-8.1-1-12.2-1.3-2-.1-4.1.2-6.1 0 .9-.1 1.8-.3 2.7-.4 11.4-1 22.2 1.7 32.6 6.1 1.6.7 3.2 1.4 4.7 2.2.4.2.9.8.9 1.3v31.5c-.1 0-.1.1-.2.1z"/><path class="st0" d="M96.1 167.7c11.6-4.7 25.6-3.6 35.1 6.9-5.1-3.6-10.7-6.1-16.8-7.3-6.1-1.2-12.2-1-18.3.4zM169.4 167.6c-12.7-2.9-24.4-.5-35.1 6.8 4.4-4.7 9.7-7.8 16.1-8.9 6.5-1.2 12.8-.2 19 2.1zM70.1 172.7c10.4-5.5 21.4-8.8 33.3-8.8-11.4 1.8-22.6 4.5-33.3 8.8zM143.1 180.2c8.6-3.8 16.7-2.2 24.5 2.2-8-2.8-16.2-3.6-24.5-2.2zM218.8 179.6c-.8-3.2-1.5-5.9-2.2-8.6.1 0 .2 0 .2-.1 1.2 3.3 2.3 6.5 3.5 9.8-7.6 0-14.8-1-21.7-3.8 3.3.6 6.6 1.3 9.9 1.7 3.3.5 6.6.7 10.3 1zM66 177.1c-6.6 2.8-13.5 3.6-20.8 3.7 1.2-3.3 2.3-6.6 3.5-9.9.1 0 .1 0 .2.1-.7 2.7-1.4 5.5-2.1 8.5 6.6-.2 12.9-.9 19.2-2.4zM212.2 159.6c-1.2-3.2-2.3-6.4-3.5-9.7-1.1-3.1-2.3-6.3-3.4-9.4-.1-.3.1-.7.2-1.1.3.2.8.4.9.7 2.1 6.4 4.1 12.9 6.1 19.3-.1.1-.2.2-.3.2zM132.1 169c-1.3-1.4-2.5-2.5-3.4-3.7-4.3-5.6-10.7-9.6-18.2-12.9-5.9-2.6-12.3-4.4-18.8-6.1-6.3-1.7-12.6-3.4-18.9-5.2-.6-.2-1.2-.8-1.3-1.2-.9-4.5-1.6-9.1-2.4-13.6 0-.1.1-.1.3-.5 5 1.3 10.1 2.6 15.2 3.9.1-.1.1-.2.2-.4-2.1-.8-4.2-1.6-6.4-2.5-7.9-3-15.9-6-23.8-9.1-.6-.2-1.3-.8-1.3-1.3 0-4.2.1-8.4.2-12.6 0-.2.1-.3.2-.7 4 1.5 7.8 2.9 11.6 4.3.1-.1.2-.2.2-.3-.9-.5-1.8-1-2.7-1.4-6.6-3.2-13.1-6.3-19.7-9.4-.8-.4-1.3-.8-1.2-1.6.6-4.5 1.1-9 1.6-13.5 0-.1.1-.2.3-.5.5.2 1 .3 1.4.5 16.4 8 32.7 15.9 49.1 23.9 2.3 1.1 4.7 2.2 6.9 3.4.7.4 31.9 22.2 31.9 22.2s32.2-22 32.9-22.4c14.6-7.1 29.2-14.2 43.7-21.3 4-1.9 8-3.9 12-5.8.4-.2.7-.3 1.2-.5.2.3.3.5.4.7.5 4.3 1 8.7 1.6 13 .1.9-.3 1.5-1.4 2-7.3 3.5-14.5 7-21.7 10.5-.2.1-.3.2-.5.3.1.1.1.2.2.3 3.8-1.4 7.5-2.8 11.6-4.3.1.4.2.8.2 1.1l.3 11.9c0 .8-.4 1.3-1.4 1.7-9.4 3.6-18.8 7.1-28.2 10.7-.7.3-1.3.6-2 .9.1.1.1.2.2.3 5.1-1.3 10.2-2.6 15.5-4-.2 1.5-.4 2.6-.6 3.8-.6 3.4-1.2 6.7-1.8 10.1-.2 1-.8 1.4-2 1.8-9.9 2.7-19.9 5.3-29.7 8.3-9 2.8-16.8 6.7-22.8 12.5-2.1 2.1-4.6 3.9-6.9 5.9-.4.1-1 .4-1.8.8z"/><path class="st2" d="M132.2 170.5c-1.2-1.5-2.3-2.8-3.1-4.2-3.9-6.4-9.8-10.9-16.7-14.6-5.4-2.9-11.3-5-17.3-7-5.8-1.9-11.6-3.9-17.3-5.9-.5-.2-1.1-.9-1.2-1.4-.8-5.2-1.5-10.3-2.2-15.5 0-.1.1-.2.3-.6 4.6 1.5 9.3 3 13.9 4.5.1-.1.1-.3.2-.4-1.9-.9-3.9-1.9-5.8-2.8-7.3-3.4-14.6-6.9-21.8-10.3-.6-.3-1.2-1-1.2-1.5 0-4.8.1-9.5.2-14.3 0-.2.1-.3.2-.8 3.6 1.7 7.1 3.3 10.7 4.9.1-.1.2-.2.2-.3-.8-.5-1.6-1.1-2.5-1.6-6-3.6-12.1-7.2-18.1-10.7-.8-.5-1.2-.9-1.1-1.8l1.5-15.3c0-.1.1-.2.2-.6.4.2.9.3 1.3.6 15 9 30 18.1 45 27.1 2.1 1.3 35.6 31 35.6 31s29.6-26.9 30.2-27.3c13.4-8.1 26.7-16.2 40.1-24.2 3.7-2.2 7.3-4.4 11-6.6.3-.2.7-.4 1.1-.6.1.3.3.5.3.8.5 4.9.9 9.9 1.4 14.8.1 1.1-.2 1.7-1.3 2.3-6.7 3.9-13.3 7.9-19.9 11.9-.1.1-.3.2-.4.3.1.1.1.2.2.3 3.5-1.6 6.9-3.2 10.6-4.9.1.5.2.9.2 1.2l.3 13.5c0 1-.4 1.5-1.3 1.9-8.6 4-17.3 8.1-25.9 12.2-.6.3-1.2.7-1.8 1 .1.1.1.2.2.3 4.7-1.5 9.3-3 14.3-4.6-.2 1.7-.3 3-.5 4.3-.5 3.8-1.1 7.7-1.6 11.5-.1 1.1-.7 1.6-1.9 2-9.1 3.1-18.3 6.1-27.2 9.5-8.2 3.1-15.4 7.7-20.9 14.2-2 2.3-4.2 4.5-6.4 6.7-.5.2-1.1.5-1.8 1z"/><path class="st3" d="M132.9 175.4c-.6-1-1.2-1.8-1.6-2.7-2-4.1-5.1-7.1-8.6-9.5-2.8-1.9-5.8-3.3-8.9-4.5-3-1.2-6-2.5-8.9-3.8-.3-.1-.6-.6-.6-.9-.4-3.3-.8-6.7-1.2-10.1 0 0 0-.1.1-.4 2.4 1 4.8 1.9 7.2 2.9 0-.1.1-.2.1-.3l-3-1.8c-3.8-2.2-7.5-4.4-11.3-6.7-.3-.2-.6-.6-.6-.9 0-3.1.1-6.2.1-9.3 0-.1 0-.2.1-.5 1.9 1.1 3.7 2.1 5.5 3.2 0-.1.1-.1.1-.2-.4-.4-.8-.7-1.3-1.1-3.1-2.3-6.2-4.6-9.3-7-.4-.3-.6-.6-.6-1.2.3-3.3.5-6.6.8-9.9 0-.1.1-.2.1-.4.2.1.5.2.7.4 7.8 5.9 15.5 11.7 23.2 17.6 1.1.8 18.4 18.9 18.4 18.9s15.3-16.2 15.6-16.5c6.9-5.2 13.8-10.5 20.7-15.7 1.9-1.4 3.8-2.9 5.7-4.3.2-.1.3-.2.6-.4.1.2.2.4.2.5.2 3.2.5 6.4.7 9.6.1.7-.1 1.1-.7 1.5-3.4 2.5-6.9 5.1-10.3 7.7l-.2.2c0 .1.1.1.1.2 1.8-1 3.6-2.1 5.5-3.2 0 .3.1.6.1.8.1 2.9.1 5.8.2 8.7 0 .6-.2.9-.7 1.2-4.5 2.6-8.9 5.3-13.4 7.9-.3.2-.6.4-.9.7 0 .1.1.1.1.2 2.4-1 4.8-1.9 7.4-3-.1 1.1-.2 1.9-.3 2.8-.3 2.5-.6 5-.8 7.5-.1.7-.4 1.1-1 1.3-4.7 2-9.4 3.9-14.1 6.1-4.3 2-8 5-10.8 9.2-1 1.5-2.2 2.9-3.3 4.3-.3.4-.5.6-.9.9z"/><path class="st1" d="M132.9 175.9c-.6-1-1.1-1.9-1.6-2.8-2-4.3-5-7.4-8.4-9.9-2.8-2-5.7-3.4-8.7-4.7-2.9-1.3-5.8-2.6-8.8-4-.3-.1-.5-.6-.6-.9-.4-3.5-.8-7-1.1-10.4 0-.1 0-.1.1-.4 2.3 1 4.7 2 7 3 0-.1.1-.2.1-.3-1-.6-2-1.3-2.9-1.9-3.7-2.3-7.4-4.6-11-7-.3-.2-.6-.6-.6-1 0-3.2.1-6.4.1-9.6 0-.1 0-.2.1-.5l5.4 3.3c0-.1.1-.1.1-.2-.4-.4-.8-.8-1.3-1.1-3-2.4-6.1-4.8-9.2-7.2-.4-.3-.6-.6-.6-1.2.3-3.4.5-6.9.7-10.3 0-.1.1-.2.1-.4.2.1.4.2.6.4l22.8 18.3c1.1.9 18 19.6 18 19.6s15-16.8 15.3-17.1c6.8-5.4 13.5-10.9 20.3-16.3 1.9-1.5 3.7-3 5.6-4.5.2-.1.3-.2.6-.4.1.2.2.4.2.5.2 3.3.5 6.6.7 10 .1.7-.1 1.2-.6 1.6-3.4 2.6-6.7 5.3-10.1 8l-.2.2c0 .1.1.1.1.2 1.8-1.1 3.5-2.1 5.4-3.3 0 .3.1.6.1.8.1 3 .1 6.1.2 9.1 0 .6-.2 1-.6 1.3-4.4 2.7-8.7 5.5-13.1 8.2-.3.2-.6.5-.9.7 0 .1.1.1.1.2 2.4-1 4.7-2 7.2-3.1-.1 1.1-.2 2-.3 2.9-.3 2.6-.6 5.2-.8 7.7-.1.7-.4 1.1-.9 1.4-4.6 2.1-9.2 4.1-13.8 6.4-4.2 2.1-7.8 5.2-10.6 9.5-1 1.6-2.1 3-3.2 4.5-.4.2-.6.4-1 .7z"/><g id="M95yPz.tif"><path d="M156.9 163.9c0 .1 0 .1 0 0-.1.1-.2 0-.3 0 0 0 0-.1.1-.1 0 .1.1.1.2.1z"/></g><g id="KxQ997.tif"><path class="st1" d="M155 85.7c.6 2.7.8 5.3-1.2 7.6-.1.1-.2.5-.1.7 1.6 4.3.9 8.5-.9 12.6-1.7 4-4.4 7.4-7.1 10.7-4.1 5-7.6 10.4-11.1 15.8-.7 1-.6 1-1.3 0-3.6-5.4-7.1-10.9-11.2-15.9-1.9-2.3-3.9-4.5-5.3-7.1-1.5-2.7-2.9-5.5-3.3-8.7-.3-2.5-.3-4.9.6-7.3.1-.2 0-.7-.2-.9-1.7-1.7-1.8-5.6-1-7.5.3.7.6 1.5 1 2.1.7.9 1.5 1.7 2.3 2.5.4.4.8.3 1.3 0 4.3-3.2 9.2-4.9 14.6-5 3.4-.1 6.9-.1 10.3 1 2.9.9 5.6 2.2 8 4 .5.4.8.3 1.3 0 1.6-1.2 2.6-2.8 3.3-4.6zm-37.6 20.6c-.4.9-.4 1.5.1 2.1 1.6 2.2 3.1 4.6 4.9 6.7 3.7 4.2 7 8.6 10.1 13.2.4.6.9 1.2 1.3 1.9.5-.7.9-1.3 1.4-2 2.9-4.2 5.9-8.3 9.2-12.2 2.1-2.4 3.9-5.1 5.8-7.6.5-.6.5-1.3.2-1.9-.8 1.1-1.6 2.3-2.5 3.4-.9 1.1-2.1 1.8-3.6 2.4.4-1.1.7-2 1-2.9-1.6.8-3 1.5-4.5 2.2-1.8.8-3.3 2.1-4.3 3.8-.1.2-.3.4-.4.5 0-.5.1-.8.2-1.2.8-2 2.4-3.2 4.1-4.2 2.1-1.3 4.3-2.5 5.6-4.9.7 1.2.6 2.3.6 3.6 2-2.2 3.3-4.4 3.9-7.1.1 0 .2 0 .3.1.3 1 .6 2.1.9 3.1 1.2-3.6 2.1-7.1.7-10.9-.8.1-1.1.5-1.1 1.3 0 1 0 2.1-.3 3.1-.8 3.3-2.9 6.1-6.8 6.5-3.1.4-5.9-.8-6.9-4.3-.2-.7-.3-1.3-.5-2.1-.6.4-1.1.8-1.6 1.2-.1-.1-.1-.2-.1-.3 0-.1.1-.3.1-.4.5-2.1 1.8-3.6 3.7-4.5 1.4-.6 2.8-1.1 4.3-1.6 1.8-.6 3.7-1.1 5.5-1.7.3-.1.5-.2.8-.4-4-3.5-11.6-5.7-20-4.7-4.3.5-8.3 1.9-11.7 4.7 1.4.6 2.8 1 4.2 1.5 1.8.6 3.7 1.1 5.5 1.8 1.9.7 3.4 2 4.2 4 .2.5.3 1 .4 1.5-.1 0-.1 0-.2.1l-1.5-1.2c-.1.6-.2 1-.3 1.4-.4 1.8-1.2 3.4-2.9 4.4-2.5 1.4-6.7.7-8.7-1.4-2-2.1-2.7-4.7-2.6-7.6 0-.8-.3-1.1-1-1.3-1.3 3.7-.4 7.3.8 10.8.3-1 .6-2.1.9-3.1h.3c.6 2.7 1.9 5 3.8 6.9 0-1.2 0-2.3.5-3.2.9.9 1.6 1.9 2.5 2.6.9.8 2.1 1.3 3.1 2 1.1.8 2.1 1.5 3.1 2.4.9.8 1.4 1.9 1.7 3.3-.2-.2-.3-.2-.3-.3-.1-.1-.2-.2-.2-.3-1.1-1.9-2.8-3.1-4.7-4-1.3-.6-2.5-1.3-3.7-2h-.4c.3.9.7 1.8 1 2.7-.1 0-.1.1-.2.1-2.6-1.2-4.5-3.1-5.7-6zM114 90.2c.3 1.5 1.2 2.5 2.4 3.1 1.5.6 3.1 1.1 4.7 1.5 2.7.6 5.4.7 8 1.9l.2-.2c-.6-.4-1.2-.8-1.8-1.1-1.7-.6-3.4-1.1-5.1-1.7-2.9-.9-5.9-1.4-8.4-3.5zm24.4 6.3c0 .1.1.1.1.2.6-.2 1.2-.6 1.8-.7 2.4-.5 4.9-.9 7.3-1.4 1.8-.4 3.5-.9 4.9-2.1.7-.6 1.1-1.4 1.4-2.3-1.1.6-2 1.3-3.1 1.7-1.6.6-3.3 1.1-4.9 1.6l-5.7 1.8c-.6.3-1.2.8-1.8 1.2z"/><path class="st2" d="M117.4 106.3c1.2 2.9 3.1 4.8 5.7 6 .1 0 .1-.1.2-.1-.3-.9-.6-1.7-1-2.7h.4c1.2.7 2.5 1.4 3.7 2 2 .9 3.6 2.1 4.7 4 .1.1.1.2.2.3l.3.3c-.2-1.4-.8-2.5-1.7-3.3-.9-.9-2-1.6-3.1-2.4-1-.7-2.1-1.3-3.1-2-.9-.7-1.6-1.6-2.5-2.6-.6 1-.5 2.1-.5 3.2-1.9-1.9-3.3-4.2-3.8-6.9h-.3c-.3 1-.6 2.1-.9 3.1-1.2-3.5-2.1-7.1-.8-10.8.8.2 1.1.5 1 1.3-.1 2.9.6 5.4 2.6 7.6 2 2.1 6.1 2.8 8.7 1.4 1.7-.9 2.5-2.5 2.9-4.4.1-.4.2-.8.3-1.4.6.5 1.1.8 1.5 1.2.1 0 .1 0 .2-.1-.1-.5-.2-1-.4-1.5-.8-2-2.3-3.2-4.2-4-1.8-.7-3.7-1.2-5.5-1.8-1.4-.4-2.8-.9-4.2-1.5 3.4-2.9 7.4-4.2 11.7-4.7 8.5-1.1 16 1.2 20 4.7-.3.1-.5.3-.8.4-1.8.6-3.7 1.1-5.5 1.7-1.4.5-2.9.9-4.3 1.6-1.9.9-3.3 2.4-3.7 4.5 0 .1-.1.3-.1.4 0 .1.1.1.1.3.5-.4 1-.8 1.6-1.2.2.8.3 1.5.5 2.1 1 3.5 3.7 4.7 6.9 4.3 3.9-.4 6-3.2 6.8-6.5.2-1 .3-2 .3-3.1 0-.8.2-1.1 1.1-1.3 1.3 3.7.4 7.3-.7 10.9-.3-1-.6-2.1-.9-3.1-.1 0-.2 0-.3-.1-.6 2.7-2 5-3.9 7.1.1-1.3.1-2.5-.6-3.6-1.3 2.5-3.5 3.6-5.6 4.9-1.7 1.1-3.3 2.3-4.1 4.2-.2.4-.3.8-.2 1.2.2-.2.3-.3.4-.5 1-1.7 2.5-2.9 4.3-3.8 1.5-.7 2.9-1.4 4.5-2.2-.3.9-.6 1.8-1 2.9 1.5-.6 2.7-1.3 3.6-2.4.9-1.1 1.7-2.2 2.5-3.4.3.6.2 1.3-.2 1.9-1.9 2.5-3.7 5.2-5.8 7.6-3.3 3.9-6.3 8-9.2 12.2-.4.6-.9 1.2-1.4 2-.5-.7-.9-1.3-1.3-1.9-3.1-4.6-6.5-9-10.1-13.2-1.8-2.1-3.3-4.4-4.9-6.7-.4-.6-.4-1.2-.1-2.1zm16.4 8.6h.2c.1-.4.2-.7.3-1.1.9-3.1 2.1-6 3.6-8.9.2-.3.2-.6-.2-.7-1.3-.5-2.4-1.4-3.3-2.5-.4-.4-.7-.3-1 0-.9 1-2 1.9-3.3 2.4-.5.2-.4.4-.2.8 1.5 3 2.9 6.1 3.7 9.5 0 .2.1.3.2.5zm-.9-17.7c.1-2.8-4.2-6.4-7.1-5.9 2.8 1.6 5.3 3.3 7.1 5.9zm1.9 0c1.8-2.6 4.3-4.3 7.2-5.9-3.3-.2-6.7 2.6-7.2 5.9z"/><path class="st1" d="M133.8 114.9c-.1-.2-.2-.3-.2-.5-.8-3.3-2.1-6.4-3.7-9.5-.2-.4-.3-.6.2-.8 1.3-.5 2.3-1.4 3.3-2.4.4-.4.6-.5 1 0 1 1 2 2 3.3 2.5.4.2.4.4.2.7-1.5 2.9-2.7 5.8-3.6 8.9-.1.4-.2.7-.3 1.1h-.2zm0-3.4h.2c.1-.2.2-.3.2-.5.8-2 1.5-4.1 2.3-6.1.1-.2 0-.5-.2-.6l-2.1-1.5c-.1-.1-.5-.1-.6 0-.7.5-1.4 1-2.1 1.6-.1.1-.2.4-.2.6.6 1.6 1.3 3.2 1.9 4.8.2.5.4 1.1.6 1.7zM132.9 97.2c-1.8-2.6-4.3-4.3-7.1-5.9 3-.5 7.2 3.1 7.1 5.9zM134.8 97.2c.4-3.3 3.8-6.1 7.2-5.9-2.8 1.5-5.3 3.3-7.2 5.9z"/><path class="st1" d="M133.8 111.5c-.2-.6-.3-1.2-.6-1.8-.6-1.6-1.3-3.2-1.9-4.8-.1-.2 0-.5.2-.6.7-.6 1.4-1.1 2.1-1.6.1-.1.5-.1.6 0l2.1 1.5c.1.1.3.5.2.6-.7 2-1.5 4.1-2.3 6.1-.1.2-.1.3-.2.5-.1.1-.2.1-.2.1z"/></g><g><path class="st2" d="M148.7 96.6v-.8c0-.2.1-.4.3-.5.8-.2.9-.2.9.6-.1 2.1-.5 4.1-1.9 5.8-2.3 2.8-6.2 2.6-8.1.5-1-1.2-1.4-2.6-1.4-4.1 0-.7.8-.7 1.2-.8.4-.1.3.4.4.7.1.3 0 .7.1 1.1.7 2.5 2.5 3.3 5.1 2.6 2.1-.7 3.5-2.3 3.4-5.1zM119.6 96.6c-.2 4.6 3.8 5.8 6.3 5.1 1.2-.3 2.2-1.7 2.3-3.1v-.3c.1-.4-.2-1 .4-1 .9-.1 1.4.5 1.2 1.3-.2 1.4-.6 2.8-1.7 3.9-1.5 1.5-4.6 1.8-6.4.6-2.2-1.4-3-3.5-3.3-5.9-.1-.5-.2-.9-.1-1.4 0-.2-.1-.6.3-.5.3.1.9-.1.9.5.1.2.1.6.1.8z"/></g><path class="st3" d="M133.5 157.3c-.3-.5-.6-1-.8-1.4-1-2.2-2.5-3.7-4.2-5-1.4-1-2.9-1.7-4.4-2.4-1.5-.6-2.9-1.3-4.4-2-.1-.1-.3-.3-.3-.5-.2-1.7-.4-3.5-.6-5.2 0 0 0-.1.1-.2 1.2.5 2.4 1 3.5 1.5 0 0 0-.1.1-.1l-1.5-.9c-1.9-1.2-3.7-2.3-5.6-3.5-.1-.1-.3-.3-.3-.5 0-1.6 0-3.2.1-4.8v-.3c.9.6 1.8 1.1 2.7 1.7 0 0 0-.1.1-.1l-.6-.6c-1.5-1.2-3.1-2.4-4.6-3.6-.2-.2-.3-.3-.3-.6.1-1.7.3-3.5.4-5.2 0 0 0-.1.1-.2.1.1.2.1.3.2 3.8 3.1 7.6 6.1 11.4 9.2.5.4 9 9.8 9 9.8s7.5-8.5 7.7-8.6c3.4-2.7 6.8-5.5 10.2-8.2.9-.7 1.9-1.5 2.8-2.2.1-.1.2-.1.3-.2 0 .1.1.2.1.3.1 1.7.2 3.3.4 5 0 .4-.1.6-.3.8-1.7 1.3-3.4 2.7-5.1 4l-.1.1s0 .1.1.1c.9-.5 1.8-1.1 2.7-1.6v.4c0 1.5 0 3 .1 4.6 0 .3-.1.5-.3.6-2.2 1.4-4.4 2.7-6.6 4.1-.2.1-.3.2-.5.3v.1l3.6-1.5c-.1.6-.1 1-.1 1.5-.1 1.3-.3 2.6-.4 3.9 0 .4-.2.5-.5.7-2.3 1.1-4.6 2.1-6.9 3.2-2.1 1.1-3.9 2.6-5.3 4.8-.5.8-1.1 1.5-1.6 2.3-.2-.1-.3 0-.5.2z"/><path class="st2" d="M133.5 155.8c-.3-.5-.6-1-.8-1.4-1-2.2-2.5-3.7-4.2-5-1.4-1-2.9-1.7-4.4-2.4-1.5-.6-2.9-1.3-4.4-2-.1-.1-.3-.3-.3-.5-.2-1.7-.4-3.5-.6-5.2 0 0 0-.1.1-.2 1.2.5 2.4 1 3.5 1.5 0 0 0-.1.1-.1l-1.5-.9c-1.9-1.2-3.7-2.3-5.6-3.5-.1-.1-.3-.3-.3-.5 0-1.6 0-3.2.1-4.8v-.3c.9.6 1.8 1.1 2.7 1.7 0 0 0-.1.1-.1l-.6-.6c-1.5-1.2-3.1-2.4-4.6-3.6-.2-.2-.3-.3-.3-.6.1-1.7.3-3.5.4-5.2 0 0 0-.1.1-.2.1.1.2.1.3.2 3.8 3.1 7.6 6.1 11.4 9.2.5.4 9 9.8 9 9.8s7.5-8.5 7.7-8.6c3.4-2.7 6.8-5.5 10.2-8.2.9-.7 1.9-1.5 2.8-2.2.1-.1.2-.1.3-.2 0 .1.1.2.1.3.1 1.7.2 3.3.4 5 0 .4-.1.6-.3.8-1.7 1.3-3.4 2.7-5.1 4l-.1.1s0 .1.1.1c.9-.5 1.8-1.1 2.7-1.6v.4c0 1.5 0 3 .1 4.6 0 .3-.1.5-.3.6-2.2 1.4-4.4 2.7-6.6 4.1-.2.1-.3.2-.5.3v.1l3.6-1.5c-.1.6-.1 1-.1 1.5-.1 1.3-.3 2.6-.4 3.9 0 .4-.2.5-.5.7-2.3 1.1-4.6 2.1-6.9 3.2-2.1 1.1-3.9 2.6-5.3 4.8-.5.8-1.1 1.5-1.6 2.3-.2-.1-.3 0-.5.2z"/><path class="st1" d="M133.5 141.6c-.3-.5-.6-1-.8-1.4-1-2.2-2.5-3.7-4.2-5-1.4-1-2.9-1.7-4.4-2.4-1.5-.6-2.9-1.3-4.4-2-.1-.1-.3-.3-.3-.5-.2-1.7-.4-3.5-.6-5.2 0 0 0-.1.1-.2 1.2.5 2.4 1 3.5 1.5 0 0 0-.1.1-.1l-1.5-.9c-1.9-1.2-3.7-2.3-5.6-3.5-.1-.1-.3-.3-.3-.5 0-1.6 0-3.2.1-4.8v-.3c.9.6 1.8 1.1 2.7 1.7 0 0 0-.1.1-.1l-.6-.6c-1.5-1.2-3.1-2.4-4.6-3.6-.2-.2-.3-.3-.3-.6.1-1.7.3-3.5.4-5.2 0 0 0-.1.1-.2.1.1.2.1.3.2 3.8 3.1 7.6 6.1 11.4 9.2.5.4 9 9.8 9 9.8s7.5-8.5 7.7-8.6c3.4-2.7 6.8-5.5 10.2-8.2.9-.7 1.9-1.5 2.8-2.2.1-.1.2-.1.3-.2 0 .1.1.2.1.3.1 1.7.2 3.3.4 5 0 .4-.1.6-.3.8-1.7 1.3-3.4 2.7-5.1 4l-.1.1s0 .1.1.1c.9-.5 1.8-1.1 2.7-1.6v.4c0 1.5 0 3 .1 4.6 0 .3-.1.5-.3.6-2.2 1.4-4.4 2.7-6.6 4.1-.2.1-.3.2-.5.3v.1l3.6-1.5c-.1.6-.1 1-.1 1.5-.1 1.3-.3 2.6-.4 3.9 0 .4-.2.5-.5.7-2.3 1.1-4.6 2.1-6.9 3.2-2.1 1.1-3.9 2.6-5.3 4.8-.5.8-1.1 1.5-1.6 2.3-.2-.1-.3 0-.5.2z"/><g><path class="st3" d="M66 161.9l-.2 2.9-1.3.4.9-9.2 1.5-.5 5.8 7.2-1.4.4-1.8-2.3-3.5 1.1zm3-1.8l-1.7-2.1c-.4-.5-.7-.9-1-1.3v1.6l-.2 2.7 2.9-.9zM72.2 158.5c-.8-2.6.6-4.9 3.3-5.7 2.7-.8 5 .4 5.7 2.8.9 2.8-.8 4.9-3.2 5.7-2.8.8-5.1-.3-5.8-2.8zm7.6-2.4c-.5-1.6-2-3-4.1-2.4-2.1.6-2.7 2.6-2.1 4.4.5 1.7 2.1 3 4.2 2.4 1.9-.7 2.6-2.6 2-4.4zm-1.4-.2l.3.9-4 1.2-.3-.9 4-1.2zM88 153.9l-3.8 1.2.9 3 4.3-1.3.3.9-5.5 1.7-2.5-8.2 5.3-1.6.3.9-4 1.2.8 2.6 3.8-1.2.1.8z"/></g><path class="st3" d="M106.1 110L52.3 80.1v-7.8l45.1 27.2zM160.8 110l53.8-29.9v-7.8l-45 27.2z"/><g><path class="st3" d="M178.2 155.2l-1.9 2.2-1.3-.5 6.2-6.9 1.5.5.4 9.3-1.3-.5-.1-2.9-3.5-1.2zm3.5.3l-.1-2.7v-1.7c-.3.4-.6.9-1 1.3l-1.8 2 2.9 1.1zM185.2 156c.9-2.6 3.4-3.6 6-2.6 2.6.9 3.8 3.3 2.9 5.6-1 2.8-3.5 3.5-6 2.6-2.6-.8-3.8-3.1-2.9-5.6zm7.6 2.6c.6-1.6.2-3.6-1.9-4.4-2.1-.8-3.7.5-4.3 2.2-.6 1.7-.1 3.7 1.9 4.4 2 .8 3.6-.3 4.3-2.2zm-1-.9l-.3.9-3.9-1.4.3-.9 3.9 1.4zM200.6 161.8l-3.8-1.3-1 2.9 4.2 1.5-.3.9-5.4-1.9 2.9-8.1 5.2 1.9-.3.9-4-1.4-.9 2.6 3.8 1.3-.4.7z"/></g><path class="st4" d="M133.6 143c-.2-.4-.4-.7-.5-1-.7-1.5-1.7-2.6-2.9-3.4-1-.7-2-1.2-3-1.6-1-.4-2-.9-3-1.4-.1 0-.2-.2-.2-.3-.1-1.2-.3-2.4-.4-3.6v-.1c.8.3 1.6.7 2.4 1v-.1c-.3-.2-.7-.4-1-.7-1.3-.8-2.6-1.6-3.8-2.4-.1-.1-.2-.2-.2-.3v-3.4-.2c.6.4 1.3.8 1.9 1.1v-.1l-.4-.4c-1.1-.8-2.1-1.7-3.2-2.5-.1-.1-.2-.2-.2-.4l.3-3.6v-.1c.1 0 .2.1.2.1 2.6 2.1 5.3 4.2 7.9 6.4.4.3 6.3 6.8 6.3 6.8s5.2-5.9 5.3-6c2.4-1.9 4.7-3.8 7.1-5.7.6-.5 1.3-1 1.9-1.6.1 0 .1-.1.2-.1 0 .1.1.1.1.2.1 1.2.2 2.3.3 3.5 0 .3 0 .4-.2.5-1.2.9-2.3 1.9-3.5 2.8l-.1.1v.1c.6-.4 1.2-.7 1.9-1.1v.3c0 1.1 0 2.1.1 3.2 0 .2-.1.3-.2.4-1.5.9-3 1.9-4.6 2.9-.1.1-.2.2-.3.2v.1c.8-.4 1.6-.7 2.5-1.1 0 .4-.1.7-.1 1l-.3 2.7c0 .3-.1.4-.3.5-1.6.7-3.2 1.4-4.8 2.2-1.5.7-2.7 1.8-3.7 3.3-.3.5-.7 1-1.1 1.6-.2 0-.3.1-.4.2z"/><path class="st4" d="M133.9 148.7c-.1-.2-.3-.5-.4-.7-.5-1-1.2-1.8-2-2.3-.7-.5-1.4-.8-2.1-1.1l-2.1-.9c-.1 0-.1-.1-.1-.2-.1-.8-.2-1.7-.3-2.5v-.1c.6.2 1.1.5 1.7.7v-.1c-.2-.1-.5-.3-.7-.4-.9-.6-1.8-1.1-2.6-1.7-.1 0-.1-.2-.1-.2v-2.3-.1c.4.3.9.5 1.3.8l-.3-.3c-.7-.6-1.5-1.1-2.2-1.7-.1-.1-.1-.1-.1-.3.1-.8.1-1.6.2-2.5v-.1c.1 0 .1.1.2.1 1.8 1.5 3.6 2.9 5.4 4.4.3.2 4.3 4.7 4.3 4.7s3.6-4 3.6-4.1l4.8-3.9c.4-.4.9-.7 1.3-1.1l.1-.1v.1c.1.8.1 1.6.2 2.4 0 .2 0 .3-.2.4-.8.6-1.6 1.3-2.4 1.9v.2c.4-.3.8-.5 1.3-.8V139.3c0 .2 0 .2-.2.3-1 .6-2.1 1.3-3.1 2-.1 0-.1.1-.2.2v.1c.6-.2 1.1-.5 1.7-.7 0 .3 0 .5-.1.7-.1.6-.1 1.2-.2 1.8 0 .2-.1.3-.2.3l-3.3 1.5c-1 .5-1.9 1.2-2.5 2.3-.2.4-.5.7-.8 1.1.3-.4.2-.3.1-.2z"/></svg>