<svg version="1.1" id="Camada_1" xmlns="http://www.w3.org/2000/svg" x="0" y="0" viewBox="0 0 265.4 265.4" xml:space="preserve"><style>.st1{fill:#333645}.st3{fill:#d6d6d6}</style><path fill="#fff" d="M0 0h265.4v265.4H0z"/><path class="st1" d="M129.8 94.6v4c0 3.4-2.5 6.1-5.9 6.2-4 .1-7.9.1-11.9 0-3.4-.1-5.9-2.8-5.9-6.2v-4h-3.5v3.7c0 1.9-.6 3.6-2 5-1 .9-2.2 1.5-3.5 1.5-4.2.1-8.5.1-12.7 0-2.9-.1-5.4-2.8-5.4-5.8v-3.7c0-.2-.1-.5-.3-.7-.6 3.7 1 7.3.4 10.9-.1 0-.2 0-.4.1-.1-.3-.3-.5-.3-.8-.8-3.1-1-6.3-1.1-9.5 0-.5-.1-.8-.5-1.1-.2-.1-.5-.5-.5-.7.1-1-.4-2.1.5-2.9.1-.1.1-.5 0-.7-.3-.6-.5-1.2-.9-1.7-1.5-1.8-1.9-4-2.1-6.2-.3-3.1-.3-6.2.2-9.2.3-1.7.7-3.4 1.2-5 .2-.8.4-1.5.2-2.3-.8-2.7-.5-5.3.1-8 .1-.5.7-1 1.1-1.4.7-.8.7-1.2.1-2.1-.2-.2-.2-.6-.2-.8.1 0 .2-.1.3-.1.4.4.7.7 1.1 1 .2.1.4.1.6.1 0-.2 0-.5-.1-.7-.1-.2-.3-.3-.4-.4-.1-.2-.3-.6-.2-.7.2-.2.6-.5.8-.4.5.2.9.6 1.3 1s.6 1 .9 1.4c.7.7 1.3.6 1.9-.2.2-.3.4-.7.6-1.1.2-.4.3-.8.5-1.2 1.4 1.5 3.1 2.3 5.1 2.3 1 0 2-.3 2.9-.5.3-.1.7-.3 1-.3 4.8-.1 9.6-.3 14.4-.3 4.4-.1 8.8.2 13.2.9 1.1.2 2.2.5 3.3.8 1 .3 1.8 1.7 1.5 2.7-.4 1.2-.1 2.2.8 3 1.3 1.1 2.4 2.4 3.6 3.6.4.3 1 .5 1.5.5.9 0 1.4.1 1.7 1 1 2.4 1.9 4.8 2 7.5.1 2.6.2 5.3.1 7.9-.1 2.6-.5 5.2-2.3 7.3-.3.3-.4.7-.6 1-.3.5-.4.9.1 1.5.7.7.4 2.8-.4 3.5-.2.2-.3.5-.3.8-.2 2.3-.3 4.6-.6 6.9-.1.9-.3 1.8-.5 2.7 0 .2-.3.4-.4.6-.1-.2-.4-.4-.4-.6 0-1.3.1-2.6.2-3.9.2-1.9.4-3.8.5-5.8 0-.2-.1-.4-.2-.6 0 .1-.1.2-.2.2zm-51.3-4.3c.7.3 1 0 1.3-.4 1.3-1.9 3.1-2.7 5.3-2.7H96c2.3 0 4.1.9 5.5 2.8.2.2.5.4.8.4h3.8c.3 0 .7-.2.9-.5 1.4-1.9 3.3-2.8 5.6-2.7h10.6c2.3 0 4.2.8 5.5 2.7.3.5.7.6 1.2.4 0-.1.1-.2.1-.2 0-.2 0-.3-.1-.5-.7-3.5-2-6.7-3.8-9.8-.1-.2-.2-.4-.4-.4-.8-.1-1.1-.7-1.4-1.3-.5-1.2-1.2-1.8-2.6-1.6-1.6.2-3.2 0-4.8.2-2.9.3-5.7.7-8.6 1-3.1.4-6.1.7-9.2 1.1-.7.2-1.5.2-2.3.2-.2 0-.5.2-.8.2-3.2.2-6.5.1-9.5-1.1-1.2-.5-2.2-.3-3.1.4-.6.4-1.2 1-1.7 1.6-2.1 3-2.7 6.6-3.2 10.2zm12.1 12.1h5.8c2.1-.1 3.7-1.6 3.7-3.7v-5.3c0-2.2-1.5-3.8-3.8-3.8H85c-2.2 0-3.7 1.5-3.8 3.7v5.3c0 2.2 1.7 3.8 3.9 3.8h5.5zm27.2 0H123.5c2.1 0 3.8-1.5 3.8-3.7.1-1.8.1-3.6 0-5.3 0-2.1-1.6-3.7-3.7-3.7h-11.3c-2.3 0-3.7 1.5-3.7 3.8v5.1c0 2.3 1.6 3.8 3.8 3.8h5.4zM164 179.4H43.6c-2 0-3.6-1.6-3.6-3.6V168l127.6-.4v8.2c0 2-1.6 3.6-3.6 3.6z"/><path d="M149.8 177.6H57.7c-2 0-3.6-1.6-3.6-3.6l-7-63.1c0-2 1.6-3.6 3.6-3.6h106.1c2 0 3.6 1.6 3.6 3.6l-7 63.1c.1 1.9-1.6 3.6-3.6 3.6z" fill="#494f63"/><circle class="st1" cx="103.8" cy="142.4" r="12.1"/><g><path class="st3" d="M208.8 110.3c-8.5-37.4-41.8-62.8-78.6-62.7 31.9 3.6 59.5 26.9 67 60 9.5 41.8-16.7 83.4-58.5 92.9-22.5 5.1-44.8-.1-62.2-12.5 18.8 16.8 45.2 24.6 71.6 18.6 43.4-9.8 70.5-53 60.7-96.3z"/><path class="st3" d="M160.4 83.4c-.5-.8-.8-1.6-1.3-2.4-.6-1-.4-1.6.5-2.4 2.1-1.7 2.1-1.7 1.4-4.2-.1-.4-.6-.8-1-1-1-.5-2.5-.5-2.9-1.3-.5-.8-.1-2.2-.1-3.3v-.2c0-.8.4-1.2 1.2-1.3.7-.1 1.4-.2 2.1-.4.3-.1.7-.1.8-.3.4-.9.8-1.9 1-2.9.1-.4-.5-.9-.9-1.3-1.8-2-1.8-2-.3-4.3 1.2-1.7 1.2-1.7 3.2-1 .6.2 1.5.7 1.9.5.9-.4 1.7-1.2 2.3-2 .3-.3 0-1.1-.1-1.6-.6-2.6-.6-2.6 1.8-3.8 2-1 2-1 3.5.7.4.5.9 1.3 1.3 1.3 1 .1 2-.2 3-.6.4-.1.6-.9.7-1.4.8-2.6.8-2.6 3.6-2.4 2.1.2 2.1.2 2.4 2.3.1.5.2 1 .3 1.4.1.3.3.6.6.7 2.5 1.1 2.5 1.1 4.6-.8.1-.1.3-.2.4-.4.5-.6 1-.6 1.6-.2.3.2.6.4.9.5 2.5 1.5 2.5 1.5 1.5 4.3-.2.4-.5 1.1-.3 1.4.6.8 1.2 1.7 2 2.3.4.3 1.2 0 1.8-.2 2.3-.5 2.3-.5 3.4 1.6 1.1 2.2 1.1 2.2-.7 3.9-.3.2-.6.5-.8.8-.2.3-.4.7-.3 1 .3 2.7.4 2.7 2.9 3.5.3.1.6.1.7.2.3.3.6.7.8 1.1.1.4 0 .8 0 1.2-.1 2.8-.1 2.8-2.9 3.3-.5.1-1.2.2-1.4.5-.2.8-.6 1.8-.6 2.8 0 .5.7 1.1 1.1 1.6 1.5 1.7 1.5 1.7.3 3.7-1.4 2.1-1.4 2.1-3.7 1.3-.3-.1-.6-.3-.9-.3-.5 0-1 .1-1.4.3-.4.2-.6.6-.9.8-.8.5-1 1.1-.8 2.1.7 3 .7 3-2.2 4.3-1.9.9-1.5.9-2.6-.6-1-1.4-2.1-2-3.8-1.4-.8.3-1.3.5-1.5 1.4-.9 2.9-.9 2.9-3.9 2.7-1.8-.1-2-.1-2.1-1.9-.1-1.8-.9-2.8-2.7-3.1-.7-.1-1.2-.2-1.8.4-2.4 2.2-2.4 2.2-5 .3l-.1-.1c-1.1-.5-1.3-1.3-.7-2.3 1.1-1.8.7-3.3-.9-4.5-.3-.2-.8-.4-1.3-.4-.9.1-1.8.4-2.9.6-.2-.1-.6-.2-.8-.5zm4.8-12.8c-.4 8.5 6.3 15.7 14.8 16.1 8.4.4 15.6-6.3 16.1-14.7.4-8.4-6.2-15.6-14.7-16-8.6-.4-15.8 6.2-16.2 14.6z"/><circle transform="rotate(-56.536 180.647 71.411)" cx="180.6" cy="71.4" fill="#6daba8" r="13"/><circle transform="rotate(-56.536 180.158 71.96)" cx="180.2" cy="72" fill="#86bcb8" r="10.2"/><g><path class="st3" d="M174.5 171.8c.4-.7.3-1.2-.1-2-.9-1.9-2.2-2.4-4.1-1.9-.4.1-.8.1-1.2.1-1.9.2-1.9.2-2.5-1.5-.3-.7-.5-1.4-.8-2.2-1-3.2-1.1-3.3 1.8-4.8 1.8-1 2.7-2.1 2.2-4.2-.2-.6-.3-1-.9-1.3-1.2-.5-2.3-1.2-3.5-1.7-.6-.3-.8-.6-.7-1.3.4-1.8.8-3.7 1.2-5.5.1-.7.4-.9 1.2-.9 1.3 0 2.6 0 3.9-.1.3 0 .8-.1.9-.3.5-.9 1.2-1.8 1.4-2.8.1-.5-.5-1.2-.8-1.8-.6-1.1-1.9-2.3-1.8-3.3.1-1.1 1.5-2.2 2.4-3.2 2.1-2.3 2.2-2.4 4.9-.7 1.7 1.1 3.1 1.2 4.6-.2.6-.5.9-.9.8-1.6-.1-1.3-.1-2.5-.3-3.8-.1-.6.2-1 .8-1.2 1.4-.5 2.8-1 4.3-1.4 1.9-.6 1.9-.5 3 1.2.3.5.6.9.8 1.4.6 1.6 1.7 2.1 3.4 1.8 1-.2 1.6-.4 2-1.4.4-.9.9-1.8 1.3-2.7.4-.9.8-1.3 1.8-1 1.5.4 3.1.7 4.6 1 1.2.2 1.7.8 1.4 2-.1.5.2 1.1.1 1.6-.5 2.2.7 3.3 2.6 3.9.4.1 1 .1 1.3-.1 1.1-.7 2.2-1.4 3.3-2.2.6-.4 1.1-.5 1.6 0 1 .9 2.1 1.7 3 2.7 1.7 1.7 1.7 1.7.6 3.9l-.3.6c-1.3 1.6-1.2 3 .2 4.6.5.6.9.9 1.6.8l3.6-.3c.8-.1 1.3.2 1.5.9.6 1.8 1.2 3.7 1.7 5.5.1.3-.2.8-.5 1-.9.7-1.9 1.3-2.9 1.8s-1.4 1.1-1.3 2.3c.1 1.2-.1 2.4 1.5 2.9 1 .3 1.9 1 2.9 1.4.7.3.9.8.8 1.4-.3 1.3-.5 2.6-.8 3.9-.6 2.3-.6 2.3-2.9 2.5-.3 0-.6.1-.9.1-2.1-.5-3.2.6-3.9 2.4-.2.7-.3 1.1.1 1.7.9 1.3 1.7 2.6 2.7 4-1.1 1.2-2 2.4-3.1 3.6-1.8 2-1.9 1.9-4.2.7-.1-.1-.3-.1-.4-.2-1.6-1.3-3-1.2-4.6.1-.6.5-.9.9-.8 1.6.1 1.2.1 2.3.3 3.5.2 1-.2 1.4-1.1 1.7-1.4.4-2.7.9-4.1 1.3-1.9.5-1.9.5-3-1.2-.2-.3-.4-.7-.6-1-1.5-2.3-1.5-2.3-4.2-2-.4 0-1 .4-1.2.8-.6 1.1-1.2 2.2-1.7 3.4-.3.7-.7.9-1.4.8-1.2-.2-2.4-.4-3.5-.7-3.4-.9-2.8-.1-2.8-3.7 0-2-.4-3.3-2.5-4-.6-.2-1.1-.4-1.7.1-1.1.8-2.2 1.5-3.4 2.2-.3.2-.9.2-1.1 0l-5.1-4.5c1.2-1.8 1.8-3.2 2.6-4.5zm19.9-35.7c-10.4 1.1-17.9 10.5-16.8 21 1.1 10.3 10.6 17.8 21 16.7 10.3-1.1 17.8-10.5 16.7-20.8-1.2-10.4-10.5-18-20.9-16.9z"/><circle transform="rotate(-65.121 196.35 154.812)" cx="196.3" cy="154.8" fill="#c45468" r="16.3"/><circle transform="rotate(-65.121 196.35 154.812)" cx="196.3" cy="154.8" fill="#d67b8f" r="13.8"/></g><g><path class="st3" d="M120.5 213.9c-.3-.7-.5-1.5-.7-2.2-.4-.9-.1-1.4.8-1.9 2-1.1 2-1.1 1.8-3.3 0-.4-.3-.8-.7-1-.7-.5-2-.8-2.2-1.4-.3-.7.2-1.8.4-2.8v-.2c.1-.7.5-1 1.2-.9h1.8c.2 0 .6 0 .7-.2.5-.7 1-1.5 1.2-2.3.1-.3-.3-.8-.6-1.2-1.2-1.9-1.2-1.9.4-3.6 1.2-1.3 1.2-1.3 2.8-.4.5.3 1.1.8 1.5.7.8-.2 1.6-.8 2.2-1.3.3-.2.2-.9.2-1.3-.1-2.3-.1-2.3 2-2.9 1.8-.5 1.8-.5 2.8 1.1.3.5.5 1.2.9 1.3.8.2 1.7.1 2.5-.1.3-.1.6-.7.8-1.1 1.1-2 1-2.1 3.3-1.5 1.7.4 1.7.4 1.7 2.2 0 .4 0 .8.1 1.2 0 .2.2.6.4.7 1.9 1.3 2 1.3 3.9 0 .1-.1.3-.2.4-.3.5-.4.9-.4 1.3 0l.6.6c1.8 1.6 1.8 1.6.7 3.8-.2.4-.5.8-.4 1.1.3.8.8 1.6 1.4 2.2.3.3 1 .1 1.6.1 2-.1 2-.1 2.6 1.8.6 2 .6 2-1.1 3.1-.3.2-.6.3-.8.5-.2.2-.4.5-.4.8-.1 2.3-.1 2.3 2 3.3.2.1.5.1.6.3.2.3.4.6.5 1 0 .3-.1.7-.2 1-.5 2.3-.5 2.3-2.9 2.4-.4 0-1 0-1.2.3-.5.6-1 1.4-1.1 2.2-.1.4.4 1 .7 1.5 1 1.6 1.1 1.6-.3 3.1-1.4 1.6-1.4 1.6-3.3.6-.2-.1-.4-.3-.7-.3-.4 0-.8 0-1.2.1-.3.1-.6.4-.9.5-.7.3-1 .8-.9 1.6.2 2.6.1 2.6-2.4 3.3-1.7.5-1.4.5-2.1-.9-.7-1.3-1.4-1.9-3-1.7-.7.1-1.1.3-1.5.9-1.1 2.3-1.2 2.3-3.6 1.7-1.5-.4-1.6-.4-1.5-1.8.1-1.5-.4-2.4-1.8-3-.6-.2-1-.3-1.6.1-2.3 1.5-2.3 1.5-4.2-.4 0 0 0-.1-.1-.1-.8-.6-.9-1.2-.3-2 1.1-1.3 1-2.6-.2-3.8-.2-.3-.6-.5-1-.5-.8 0-1.5 0-2.5.1-.1-.3-.3-.5-.4-.8zm5.7-10c-1.5 7 3.1 13.9 10.1 15.4 6.9 1.5 13.9-3.1 15.4-10s-3-13.9-10.1-15.3c-7-1.5-13.9 3-15.4 9.9z"/><circle transform="rotate(-47.156 138.869 206.724)" cx="138.9" cy="206.7" fill="#73649e" r="11.4"/><circle transform="rotate(-56.536 138.452 207.094)" cx="138.5" cy="207.1" fill="#8e86b2" r="9.1"/></g></g></svg>